<?xml version="1.0" encoding="UTF-8"?><svg id="_レイヤー_1" xmlns="http://www.w3.org/2000/svg" viewBox="0 0 660 68.1"><defs><style>.cls-1{fill:#ffc6c6;}</style></defs><path class="cls-1" d="m13.56,20.25c0-.16-.08-.67-1.08-.84-1.34-.22-5.39-.7-6.23-.76h-.22c-.35,0-.35.37-.35.52,0,.07,0,.14,0,.26.01.44.05,1.45.05,5.08,0,11.85,0,21.22,8.79,25.96,1.51.81,2.87,1.21,4.14,1.21,3.4,0,6.44-2.86,9.56-9.01l.02-.07s.01-.04.02-.06c.02-.05.04-.11.04-.17,0-.18-.09-.33-.16-.4-1.26-1.37-3.67-6.22-3.69-6.27l-.2-.41-.16.42c-2.57,7.05-3.96,9.32-5.7,9.32-.37,0-.82-.14-1.37-.41-4.7-2.46-5.34-7.39-5.34-12.35,0-2.42.19-6.93.48-11.01,1.04-.2,1.41-.66,1.41-1.03Z"/><path class="cls-1" d="m37.35,18.22l-.08-.07-5.76,1.8.24.23c6.51,6.09,10.89,15.42,10.89,23.22v.97c0,.14,0,.57.41.57.08,0,.16,0,.3-.07l5.66-2.54.11-.05v-.72c0-7.25-5.28-17.73-11.77-23.35Z"/><path class="cls-1" d="m54.76,53.2l6.73,1.09.06-.13c1.8-3.6,3.51-7.02,5.13-10.36l.06.37s.81,5.02.81,6.99c0,.94,2.98,2.24,5.91,2.24,3.82,0,8.64-2.15,10.71-8.17,1.11-3.32,1.79-7.89,1.79-11.93,0-7.82-2.42-11.31-7.86-11.31-.65,0-1.31.05-2.02.16h-.07c.91-2.81,1.8-6.12,2.2-7.71,1.09-.09,1.82-.5,1.82-1.05,0-.3-.19-.71-1.11-.94-1.29-.37-6.23-1.21-6.44-1.24l-.21-.04-.02.21c-.27,3.42-1.14,7.27-2.65,11.77-3.39.64-5.99,1-9.19,1-1.36,0-2.61-.06-3.72-.16h-.22c-.14,0-.47,0-.47.36,0,.07.03.16.09.34l1.69,5.46h.14c2.17,0,4.55-.28,7.28-.87.68-.17,1.45-.37,2.22-.52-3.29,7.88-7.96,16.28-12.53,24.19l-.14.25Zm19.23-25.65c.7-.11,2.28-.31,2.78-.31,2.82,0,3.31,1.78,3.31,5.52,0,3.43-.65,7.81-1.55,10.4-.94,2.59-2.78,4.02-5.16,4.02-2.19,0-4.59-1.22-6.27-3.17l-.32-.37c2.63-5.42,5.03-10.64,7.22-16.1Z"/><path class="cls-1" d="m91.86,22.03l-.09-.06-4.73,2.14c-.19.08-.55.22-.55.56,0,.16.19.37.48.55,6.57,3.7,10.38,8.93,11.02,15.15.04.16.12.47.4.47.08,0,.18-.03.36-.13l5.18-2.64.11-.06v-.13c-.43-5.44-4.75-11.07-12.18-15.85Z"/><path class="cls-1" d="m113.6,50.82l-.49.12.44.24s4.63,2.54,6,4.02c.15.14.3.21.46.21.06,0,.21,0,.32-.06,8.65-2.6,18.97-9.01,18.97-24.79,0-11.54-4.23-18.7-11.04-18.7-2.15,0-6.19.87-9.12,6.68,0,0,0,0,0,0,.13-.87.47-2.02.83-3.24.3-1.03.62-2.1.8-3.01,1.25-.14,1.7-.6,1.7-.99,0-.44-.45-.82-1.17-1-.54-.12-5.07-1.08-5.87-1.08-.4,0-.42.26-.44.54,0,.06-.01.14-.02.24-.22,3.39-.76,6.6-1.29,9.71-.67,3.96-1.3,7.71-1.3,11.72,0,4.58.94,9.8,1.76,9.8.13,0,.25-.05.37-.11h.06c.54,0,2.07-.78,4.8-2.46.14-.08.23-.14.24-.15l.16-.08-.07-.17c-.86-2.11-1.07-2.79-1.07-4.68,0-6.51,3.93-16.48,8.76-16.48,3.85,0,5.58,6.46,5.58,12.87,0,11.53-5.62,17.58-19.39,20.85Z"/><path class="cls-1" d="m147.92,51.4l5.98,1.79.05.02s.09.05.17.05l.19.02v-.19s0-.03.04-.1c.56-1.31.96-2.25,1.25-2.98,3.53-9.19,8.54-12.29,10.29-12.29s1.96,1.94,2.07,3.76c.4,5.15.9,11.56,8.61,11.56,12.89,0,17.51-17.23,17.51-17.41,0-.16-.07-.31-.23-.48-1.37-1.1-4.52-5.53-4.55-5.57l-.26-.37-.09.44c-1.21,6.33-5.04,17.06-11.73,17.06-2.82,0-3.03-2.09-3.27-4.5l-.05-.45c-.57-6.1-1.77-9.4-6.5-9.4-2.25,0-4.16.9-6.28,3,.86-1.72,3.55-6.62,11.66-19.33.04,0,.07.01.11.02.09.02.18.03.27.03.87,0,1.54-.39,1.54-.89,0-1.36-7.29-3.67-7.37-3.69l-.18-.06-.06.18c-.66,2.05-1.47,3.79-2.63,6.12-.88,1.72-1.85,3.51-2.86,5.42-2.77,5.19-5.92,11.08-8.96,17.9-.11.25-.28.58-.51,1.03-.74,1.43-2.11,4.09-4.13,9.13l-.08.2Z"/><path class="cls-1" d="m221.65,53.31c4.66,0,9.27-.66,13.69-1.95.34-.07.46-.19.53-.56.11-1.9,1.22-6.13,1.24-6.17l.09-.34-.34.11c-5.94,1.97-11.51,2.96-16.56,2.96-7.09,0-12.43-2.01-12.43-4.66,0-.93.25-1.79,3.44-4.49l.29-.24-5.92-1.5-.1-.02-.08.06c-2.27,1.99-3.79,4.76-3.79,6.89,0,4.92,6.85,9.91,19.94,9.91Z"/><path class="cls-1" d="m241.04,16.47l4.02-2.01-.09-.17c-1.17-2.33-3.89-5.48-5.17-6.54l-.09-.08-3.72,1.68.21.2c1.45,1.4,3.68,4.37,4.76,6.74l.08.19Z"/><path class="cls-1" d="m233.61,9.61l-3.78,1.56.21.2c1.69,1.69,3.8,4.9,4.7,7.16l.08.19,4.08-1.89-.08-.17c-1.04-2.4-3.77-5.79-5.12-6.97l-.09-.08Z"/><path class="cls-1" d="m205.74,15.43l-.24-.09-.35,5.75.14.05c2.97,1.05,8.43,1.41,12.21,1.41h1.42s-.09.1-.14.14c-.65.51-1.58,1.21-2.57,1.95-.96.72-1.96,1.46-2.71,2.05l-.31.24,5.72,1.45.09.02.08-.06c.72-.59,7.23-5.81,14.16-7.03.56-.1.97-.17.97-.67,0-.73-1.9-5.1-2.57-5.1-.18,0-.33.07-.48.13-.12.06-.26.11-.42.14-4.37.76-9.13,1.18-13.4,1.18-4.74,0-8.74-.54-11.59-1.55Z"/><polygon class="cls-1" points="251.9 34.91 268.25 34.91 268.25 51.63 272.52 51.63 272.52 34.91 288.87 34.91 288.87 30.85 272.52 30.85 272.52 14.12 268.25 14.12 268.25 30.85 251.9 30.85 251.9 34.91"/><path class="cls-1" d="m305.4,56.33v-4.26h29.99v4.1h5.84V23.76s.05-1.9.1-3.25c.93-.22,1.52-.66,1.52-1.13,0-.43-.34-.71-1.03-.84-1.18-.16-6.12-.32-6.33-.33h-.22s.02.21.02.21c.16,1.97.16,4.92.16,4.95l-.05,23.28h-12.24V14.7s0-2.01.09-3.29c.93-.23,1.52-.66,1.52-1.13,0-.29-.18-.67-1.02-.84-1.19-.22-6.39-.32-6.61-.33h-.21s.01.2.01.2c.1,1.65.16,5.09.16,5.12v32.23h-11.7v-22.9s.05-1.9.1-3.25c.97-.23,1.52-.64,1.52-1.13,0-.4-.41-.72-1.08-.84-1.13-.16-6.02-.32-6.23-.33h-.22s.02.21.02.21c.16,2.12.16,4.81.16,4.84v33.06h5.73Z"/><path class="cls-1" d="m353.6,48.02c.09.17.27.27.39.27.41,0,3.92-2.62,7.96-6.63v5.11h9.17v10.47h5.68v-10.47h9.5v-5.29h-9.5c-.01-1.93-.2-6.9-.36-10.91l-.04-1.11c6.08,9.69,16.8,17.81,17.53,17.81.13,0,.23-.09.31-.17,1.34-1.47,4.25-3.17,5.34-3.8.38-.22.44-.26.48-.3l.2-.2-.27-.11c-9.14-3.85-18.62-12.93-21.93-19.16l18.89.16h.19s0-5.62,0-5.62h-20.4v-6.01s0-1,.09-1.72c.93-.17,1.48-.55,1.48-1.03,0-.41-.43-.73-1.03-.79-2.2-.32-6.03-.38-6.07-.38h-.21s.02.21.02.21c.1,1.38.16,3,.16,3.01v6.71h-19.69v5.63l18.07-.11c-2.92,5.77-12.23,16.16-21.25,20.51l-.35.17.34.18s4.19,2.21,5.31,3.59Zm17.92-18.3c-.15,4.2-.34,9.82-.4,11.76h-8.99c3.26-3.26,6.84-7.39,9.39-11.76Z"/><path class="cls-1" d="m407.42,13.58v5.13h12.93l-.02.08c-.27.87-1.03,2.38-2.35,4.02-1.96-1-3.68-1.78-5.11-2.42l-.14-.06-2.51,3.23.23.1c1.44.63,2.88,1.35,4.26,2.16-2.09,1.5-4.68,2.76-7.53,3.63l-.48.15.46.21s3.43,1.62,4.32,2.62c.07.06.16.16.29.16.04,0,.14-.02.27-.07l-2.36,2.97.93.43c1.15.52,2.44,1.11,3.79,1.86-2.44,2.14-5.22,3.77-8.47,4.96l-.46.17.45.19s3.53,1.5,4.47,2.55c.11.11.23.11.35.11.07,0,.21,0,.33-.08,2.64-1.42,5.09-3.26,7.25-5.47,1.02.67,2.06,1.45,3.09,2.32l.15.13,2.89-3.72-.16-.12c-.92-.66-1.9-1.31-3.07-2.05.75-1.03,1.37-1.98,1.73-2.67h.1c.9,0,1.49-.33,1.49-.84,0-.38-.34-.7-1.04-.99-.44-.19-1.39-.55-2.31-.89-.66-.25-1.29-.48-1.63-.62l-.2-.08-.06.21c-.21.8-.84,2.18-1.97,3.69-1.95-1-3.67-1.69-4.95-2.18,1.19-.48,3.86-1.87,6.38-4.07,1.36.89,2.68,1.95,3.8,2.87l.15.13,2.88-3.71-.15-.12c-1.21-.95-2.45-1.76-3.56-2.48,1.03-1.31,1.66-2.34,1.97-2.92.17.03.31.03.44.03.9,0,1.22-.38,1.22-.73,0-.39-.36-.76-1.08-1.09-.34-.16-1.03-.45-1.77-.75-.75-.31-1.52-.63-1.96-.83h6.37v11.36c0,5.58-2.2,18.96-22.56,22.63l-.52.09.46.27s4.46,2.59,5.48,3.91c.08.17.25.27.44.27.13,0,14.02-3.12,19.97-16.81,5.7,12.35,18.54,16.27,19.58,16.27.12,0,.28,0,.37-.18,1.26-1.62,5.72-4.19,5.77-4.21l.48-.28-.55-.08c-6.93-1.03-12.62-3.7-16.92-7.91,1.87-1.06,3.49-2.26,4.83-3.57,1.98,1.28,3.62,2.52,5.02,3.78l.15.14,3-3.77-.16-.12c-1.56-1.19-3.29-2.35-5.01-3.36.89-1.22,1.52-2.2,1.92-2.85.17.03.31.03.44.03,1.08,0,1.17-.56,1.17-.73,0-.33,0-.95-5.09-2.67l-.2-.06-.05.2c-.22.8-.9,2.3-2.13,3.9-1.53-.8-3.15-1.58-4.83-2.31l-.14-.06-2.57,3.22.23.11c1.03.47,2.58,1.2,4.33,2.18-1.04.86-2.32,1.69-3.81,2.47-2.06-3.06-3.4-6.63-3.59-9.55.04-.32.05-.61.05-.89,1.03.54,2.91,1.61,3.41,2.2.11.21.32.21.44.21.07,0,.21,0,.32-.08,2.42-1.07,4.69-2.5,6.76-4.24,1.37.9,2.77,1.95,4.07,3.04l.16.13,2.89-3.71-.16-.12c-1.12-.84-2.34-1.67-3.71-2.53.99-1.16,1.64-2.18,2.02-2.87.19.03.37.03.55.03.82,0,1.11-.38,1.11-.73,0-.37-.33-.75-.92-1.04-.51-.25-1.49-.67-2.37-1.05-.58-.25-1.13-.48-1.48-.64h7.08v-5.13h-20.18v-.18s0-1.29.1-2.98c1.29-.32,1.57-.78,1.57-1.12,0-.42-.5-.73-.98-.79-.91-.11-6-.26-6.22-.27h-.21s.01.2.01.2c.16,2.77.16,4.93.16,4.95v.18h-19.64Zm37.94,5.21c-.27.86-1.06,2.36-2.5,4.02-1.62-.85-3.11-1.51-4.42-2.09l-.77-.34-2.39,3.29.22.09c1.47.64,2.8,1.28,4.03,1.95-1.96,1.4-4.27,2.54-6.89,3.38v-10.39h12.76l-.02.08Z"/><path class="cls-1" d="m498.51,22.39c.07.14.2.21.39.21.08,0,.24,0,.32-.08,3.98-2.61,7.83-5.96,8.46-6.52.5.19.91.29,1.2.29.58,0,.79-.35.79-.68s-.25-.81-.59-1.16c-.86-.91-3.88-3.57-4-3.68l-.16-.14-.13.16c-.27.35-4.77,5.26-9.15,8.28v-5.87h-8.15c.51-1.15,1.03-2.51,1.18-2.91,1.51-.11,1.68-.73,1.68-1,0-.34-.37-.67-.8-.73-1.77-.37-5.59-.75-5.63-.76l-.16-.02-.04.16s-.84,3.08-1.72,5.25h-5.24v21.75h4.87v-1.89h9.11v1.56h4.92v-7.14l.2.11c.07.04,7.3,4.02,11.02,7.74l.16.16,3.37-4.49.11-.15-.15-.12c-4.28-3.43-11.13-7-11.2-7.04l-.13-.07-3.38,3.84v-7.35c.75.49,2.4,1.62,2.87,2.27Zm-16.9-1.36v-3.66h9.11v3.66h-9.11Zm9.11,4.06v3.82h-9.11v-3.82h9.11Z"/><path class="cls-1" d="m461.85,30.23l.14.22s2.22,3.42,2.97,4.53c.35.53.67.79.97.79.44,0,.73-.53.73-1.33,0-.09-.01-.18-.03-.27,0-.03-.01-.06-.02-.09,2.81-1.4,7.91-4.66,8.89-5.38.12-.12.22-.22.22-.41v-.15c-.27-1.15-.32-4.94-.33-4.98v-.38s-.31.23-.31.23c-.69.51-8.42,5.71-13,7.14l-.24.08Z"/><path class="cls-1" d="m466.28,11.32l-3.68,3.73.2.13c.05.03,5.57,3.6,8.91,7.67l.14.18,3.89-4.41-.13-.13c-4.02-3.85-9.16-7.06-9.21-7.09l-.13-.08Z"/><path class="cls-1" d="m490.55,42.25l18.32.2h.19s0-4.86,0-4.86h-20.32c.01-.17.02-.35.03-.53,0-.2.02-.39.03-.56,1.17-.15,1.59-.6,1.59-.98,0-.52-.59-.89-1.63-1-1.82-.22-5.32-.43-5.35-.43l-.23-.02.02.23c.1,1.09.15,2.53.16,3.29h-20.29v4.81l18-.16c-4.09,3.42-10.87,7.79-20.5,9.92l-.47.1.41.25s3.81,2.37,4.71,3.64c.07.07.22.17.35.17.52,0,9.59-2.73,17.92-10.16-.02.9-.05,1.85-.08,2.71-.04,1.21-.07,2.26-.07,2.73v5.75h5.35v-5.75c0-.98-.1-3.42-.19-5.44,8.02,6.91,17.2,9.89,18.13,9.89.19,0,.29-.1.37-.19,1.05-1.47,4.77-4.03,4.81-4.06l.39-.27-.47-.08c-10.54-1.82-17.68-6.41-21.22-9.21Z"/></svg>
