<?xml version="1.0" encoding="UTF-8"?><svg id="_レイヤー_1" xmlns="http://www.w3.org/2000/svg" viewBox="0 0 660 68.1"><defs><style>.cls-1{fill:#ffc6c6;}</style></defs><polygon class="cls-1" points="111 34.83 127.35 34.83 127.35 51.56 131.62 51.56 131.62 34.83 147.97 34.83 147.97 30.77 131.62 30.77 131.62 14.05 127.35 14.05 127.35 30.77 111 30.77 111 34.83"/><path class="cls-1" d="m156.85,54.81l.36.03s3.93.38,5.51,1.01h.18c.23.01.4-.08.54-.3,4.52-7.39,5.1-17.83,5.1-26.11,0-2.07-.14-10.74-.16-12.17h38.25v-4.97h-19.7v-.24s0-.94.09-1.89c1.34-.28,1.63-.77,1.63-1.14,0-.44-.55-.83-1.36-.95-2.09-.22-5.8-.33-5.84-.33h-.22s.02.21.02.21c.16,1.7.16,3.68.16,3.7v.62h-18.51v.2c0,.14.27,14.06.27,16.51,0,4.48,0,18.1-6.11,25.5l-.23.28Z"/><path class="cls-1" d="m165.13,53.88l-.44.2.46.16s3.43,1.19,4.57,2.18l.04.03s.07.04.09.05c.06.04.12.08.21.08.49,0,3.88-1.9,6.99-5.9,5.66,5.09,13.44,5.09,19.13,5.09,3.82,0,7.27-.16,8.69-.32.13,0,.52,0,.62-.4.58-1.68,3.13-5.04,3.15-5.07l.31-.4-.5.09c-2.66.51-9.41,1.08-14.86,1.08-2.41,0-9.7,0-14.05-3.84,2-3.67,3.49-8.13,4.18-12.6v-.06s.08-.03.11-.04c.04-.02.09-.04.13-.06v1.29h8.04v7.06h-7.34v4.54h20.13v-4.54h-7.88v-7.06h9.23v-4.54h-9.23v-5.96c3.19-.66,5.29-1.31,5.76-1.45.46.34.9.51,1.28.51.45,0,.73-.27.73-.68,0-.2-.11-.44-.3-.76-.81-1.12-2.68-3.27-2.76-3.36l-.09-.1-.12.05c-.08.03-7.51,2.73-18.09,3.06-.51-.51-2.83-2.26-3.15-2.26-.18,0-.32.09-.46.17-.13.08-.26.16-.41.16h-9.31v4.11h6.7c-3.05,5.1-5.72,8.62-7.42,10.69l-.23.28,5,.58h.09s.07-.06.07-.06c.11-.1.34-.45.72-1.02h3.94c-.38,2.91-1.16,5.58-2.32,7.94-.83-1.75-1.5-3.8-2.02-6.24l-.05-.22-4.31,1.72.05.17c.97,3.51,2.21,6.39,3.78,8.79-2.25,2.91-5.23,5.24-8.85,6.9Zm21.08-27.36c2.18-.17,4.31-.45,5.78-.67v5.03h-8.04v1.44c-.68-.58-2.21-1.82-2.77-1.82-.26,0-.46.16-.6.28-.04.04-.1.09-.1.09h-2.93c.3-.44.63-.93.97-1.44,1.24-1.83,2.78-4.09,3.92-6.03.29-.09.53-.2.71-.33l.1.12c.75.85,1.99,2.28,2.27,3.01.1.3.27.31.68.3Z"/><path class="cls-1" d="m238.03,43.14v-4.81h-9.12v-5.6h3.93v2h4.65V9.89h-21.81v25.31h4.65v-2.48h3.71v5.6h-8.79v4.81h8.79v5.15c-4.02.6-7.78,1-10.33,1.11h-.24s.06.25.06.25c.01.03,1.04,3.7,1.85,5.65.26.52.59.81.93.81.39,0,.8-.39.84-1.48,6.9-1.11,17.45-3.22,21.4-4.41.22-.08.35-.24.35-.48-.07-.45-.11-1.04-.11-1.59,0-1.22.11-2.61.11-2.63l.02-.28-.27.08c-2.14.66-5.68,1.45-9.73,2.17v-4.32h9.12Zm-13.88-19.8v4.96h-3.82v-4.96h3.82Zm0-9.01v4.58h-3.82v-4.58h3.82Zm8.69,9.01v4.96h-3.98v-4.96h3.98Zm-3.98-4.43v-4.58h3.98v4.58h-3.98Z"/><path class="cls-1" d="m239.43,15.13h13.73c-.63.85-2.22,2.87-4.11,4.79-1.36-1.01-2.9-2.08-4.57-3.2l-.12-.08-3.64,3.17.69.49c1.86,1.33,5.25,3.74,8,6.37h-10.83v4.7h7.72v17.07c0,2.07-.93,2.88-3.32,2.88-1.25,0-2.86-.23-4.9-.53l-.91-.13.31.38s2.95,3.66,3.54,5.52c.05.1.18.27.5.27h1.29c4.24,0,9.1-.87,9.1-7.69v-.22s-.11-4.87-.11-5.88v-11.67h4.96c-.4.93-1.85,4.12-4.23,7.13l-.21.27.34.05s3.49.48,4.69,1.11l.2.02c.12,0,.27-.08.38-.19,2.29-3.44,4.24-9.05,4.52-9.87.35-.1,1.01-.4,1.01-.92,0-.67-2.71-2.34-3.22-2.59-.11-.08-.25-.08-.32-.08-.21,0-.38.11-.55.2-.14.09-.28.17-.42.17h-5.34l1.56-1.47-.12-.14c-.56-.67-1.32-1.34-2.13-2.04,3.1-3.23,6.42-7.58,7.44-8.94.63-.16,1.32-.35,1.32-.87,0-.75-3.43-3.21-3.86-3.21-.26,0-.47.14-.64.24-.1.07-.21.14-.27.14h-17.46v4.76Z"/><path class="cls-1" d="m267.67,40.28l.27.09s3.14,1.08,4.02,2.11c.11.12.24.12.3.12.82,0,2.78-4.73,4.39-9.7-.19,5.06-.37,11.4-.37,14.69v9.74h5.3v-3.76l.2.11s3.63,2.1,4.34,3.21c.11.22.27.22.39.22.06,0,.21,0,.33-.06,5.37-1.8,10.56-5.74,11.25-6.29.34.09.7.14.98.14.74,0,1-.36,1-.68,0-.24-.15-.51-.39-.69-1.29-1.02-3.99-2.69-4.01-2.71l-.13-.08-.11.11s-4.77,4.67-13.6,6.47l-.26.05v-5.48c0-3.26-.19-9.23-.37-14.51-.05-1.44-.09-2.82-.13-4.06.88,2.54,1.78,4.79,2.67,6.68.06.11.16.27.39.27h.05s.06-.05.06-.05h.07l.05-.04c.99-.78,3.7-1.74,3.72-1.75l.26-.09-.17-.21c-3.44-4.34-5.48-8.86-6.29-10.86h4.82v-5.08h-5.23v-6.07s0-1.05.09-1.78c.91-.23,1.47-.68,1.47-1.18,0-.34-.32-.72-1.2-.79-1.87-.21-5.43-.38-5.46-.38h-.23s.02.21.02.21c.16,1.54.16,3.36.16,3.38v6.6h-6.1v5.08h5.61c-.78,2.86-3.37,11.39-7.99,16.79l-.19.22Z"/><path class="cls-1" d="m285.88,16.75h12.68v2.64h-8.91v21.75h4.98v-1.35h13.53v1.08h4.98v-21.48h-9.44v-2.64h13.65v-4.32h-13.65v-.51s0-.93.09-1.88c1.09-.2,1.58-.68,1.58-1.09,0-.37-.37-.65-1.02-.78-1.19-.22-5.56-.33-5.75-.33h-.23s.03.22.03.22c.16,1.23.16,2.41.16,3.05v1.32h-12.68v4.32Zm8.75,8.25v-2.1h13.53v2.1h-13.53Zm0,5.61v-2.26h13.53v2.26h-13.53Zm13.53,3.41v2.26h-13.53v-2.26h13.53Z"/><path class="cls-1" d="m318.53,42.37h-34.32v4.32h22.42l-3.88,2.82.2.16c.06.05,6.08,4.69,11.9,6.77.14.07.22.07.3.07.19,0,.28-.09.43-.24.94-1.3,4.28-3.38,4.31-3.4l.4-.25-.46-.11c-8-1.86-13.04-5.7-13.09-5.74l-.11-.08h11.89v-4.32Z"/><path class="cls-1" d="m331.74,9.33l-.12-.08-4.14,3.44.2.15c.05.04,5.34,3.86,8.31,8.42l.13.2,4.4-4.23-.12-.14c-3.65-4.34-8.62-7.72-8.67-7.75Z"/><path class="cls-1" d="m324.37,51.35l-.23.1.16.2c.12.16,3.04,3.79,4.06,4.87.41.41.72.6,1,.6.21,0,.57-.1.57-.79,0-.3-.06-.64-.17-.96,2.79-2.07,5.66-4.88,6.33-5.55,5.19,6.05,12.39,6.54,20.57,6.54,6.58,0,13.4-.54,15.32-.7.26,0,.43-.12.51-.35.47-1.57,3.03-5.52,3.05-5.56l.23-.36-.42.06c-4.84.68-13.26,1.4-20.31,1.4-2.9,0-5.29-.13-7.1-.38-4.07-.55-7.7-2.67-9.28-5.42v-16.71h-12.53v5.3h7.12v11.7c-.58.5-4.88,4.22-8.9,6.01Z"/><path class="cls-1" d="m340.28,19.55v4.27h7.19c.48,1.09.98,2.37,1.36,3.5h-7.53v4.33h12.52v2.47h-10.73v4.17h10.73v2.64h-12.84v4.43h12.84v4.37h5.3v-4.37h13.92v-4.43h-13.92v-2.64h11.33v-4.17h-11.33v-2.47h13.81v-4.33h-8.51c.59-1.21,1.18-2.54,1.54-3.36l.06-.14h7.57v-4.27h-14.46v-2.64h12.09v-4.38h-12.09v-.45s.05-1.13.09-1.84c1.09-.2,1.58-.68,1.58-1.08s-.43-.73-1.03-.79c-1.13-.16-5.71-.32-5.9-.33h-.23s.02.22.02.22c.16,1.38.16,3.79.16,3.81v.45h-11.39v4.38h11.39v2.64h-13.54Zm20.43,4.27c-.37,1.11-.86,2.37-1.37,3.5h-5.45c-.41-1.29-.94-2.57-1.35-3.5h8.18Z"/><path class="cls-1" d="m4.56,53.13l6.73,1.09.06-.13c1.8-3.6,3.51-7.02,5.13-10.36l.06.37s.81,5.02.81,6.99c0,.94,2.98,2.24,5.91,2.24,3.82,0,8.64-2.15,10.71-8.17,1.1-3.31,1.79-7.89,1.79-11.93,0-7.82-2.42-11.31-7.85-11.31-.65,0-1.3.05-2.03.16h-.07c.89-2.74,1.79-6.06,2.2-7.71,1.1-.09,1.82-.5,1.82-1.05,0-.3-.19-.71-1.11-.94-1.29-.37-6.23-1.21-6.44-1.24l-.21-.04-.02.21c-.26,3.4-1.13,7.25-2.65,11.77-3.39.64-5.99,1-9.19,1-1.37,0-2.61-.06-3.73-.16h-.22c-.14,0-.46,0-.46.36,0,.07.03.17.11.43l1.62,5.24.04.14h.14c2.17,0,4.55-.28,7.28-.87.68-.17,1.45-.37,2.22-.52-3.29,7.88-7.96,16.28-12.53,24.19l-.14.25Zm19.23-25.65c.7-.11,2.28-.31,2.77-.31,2.82,0,3.32,1.78,3.32,5.52,0,3.43-.66,7.8-1.56,10.4-.94,2.59-2.78,4.02-5.16,4.02-2.19,0-4.59-1.22-6.27-3.17l-.32-.37c2.63-5.42,5.03-10.64,7.22-16.1Z"/><path class="cls-1" d="m46.2,21.91l.14.19,3.09-3.15-.11-.13c-1.63-2.01-5.25-4.27-7.3-5.23l-.12-.06-2.94,2.7.25.13c2.26,1.15,5.58,3.61,7,5.55Z"/><path class="cls-1" d="m53.85,37.93v-.13c-.43-5.44-4.75-11.07-12.18-15.85l-.09-.06-4.73,2.14c-.19.08-.55.22-.55.56,0,.19.25.41.48.55,6.58,3.71,10.39,8.93,11.02,15.15.04.16.12.47.41.47.1,0,.2-.05.36-.13l5.18-2.64.11-.06Z"/><path class="cls-1" d="m54.23,14.62l-.11-.13c-1.42-1.64-5.18-3.93-7.13-4.8l-.12-.05-2.89,2.89.27.11c2.17.9,5.45,3.31,6.88,5.07l.14.17,2.85-3.13.12-.12Z"/><path class="cls-1" d="m85.87,41.14l-5.57-.92-.12-.02-.07.11c-1,1.5-1.49,2.88-1.49,4.21,0,2.24,1.5,4.44,4.13,6.04,2.94,1.79,7.03,2.74,11.82,2.74,2.05,0,4.18-.18,6.37-.55.26-.08.4-.27.4-.5.05-.83,1.49-5.95,1.51-6l.09-.33-.33.09c-3.29.93-6.25,1.4-8.8,1.4-4.55,0-9.25-1.36-9.25-3.64,0-.71.36-1.48,1.09-2.36l.22-.26Z"/><path class="cls-1" d="m59.81,53.26l6.68.62.16.02.05-.15c1.39-4.58,3.48-10.62,5.5-16.45,2.08-6.01,4.04-11.69,4.99-15.06,2.55-.48,5.39-1.07,7.9-1.59v-.2h-.01l.04.19.15-.03.11-5.99-.26.08c-2.02.66-4.25,1.29-6.65,1.87.32-1.48.59-2.89.78-3.99.98-.14,1.65-.6,1.65-1.14,0-.69-1.09-.89-1.46-.95-1.66-.27-6.12-.64-6.17-.64l-.2-.02v.2c-.11,2.73-.36,5.01-.9,7.82l-.21.03c-1.37.22-3.07.48-4.7.48-1.87,0-3.69-.31-6.06-1.01-.15-.07-.29-.07-.35-.07-.24,0-.36.14-.36.41v.25s.76,5.02.76,5.02l.02.12.11.04c1.34.45,2.85.66,4.76.66,1.27,0,2.79-.04,4.45-.33l.34-.06c-1.98,6.67-7.22,20.47-11.02,29.63l-.1.25Z"/><path class="cls-1" d="m84.53,23.83l-.82,5.48.25-.03c2.15-.29,4.27-.43,6.29-.43,4.42,0,8.06.66,10.27,1.86l.06.02.06.06h.09c.27,0,.36-.27.4-.4l1.33-5.28-.12-.07c-1.79-1.05-5.6-1.65-10.46-1.65-2.32,0-4.81.15-7.2.43l-.15.02Z"/></svg>