<?xml version="1.0" encoding="UTF-8"?><svg id="_レイヤー_1" xmlns="http://www.w3.org/2000/svg" viewBox="0 0 660 68.1"><defs><style>.cls-1{fill:#ffc6c6;}</style></defs><path class="cls-1" d="m4.63,22.82v5.73h12.79v12.14h5.89v-12.14h10.35c-.1,12.71-5.02,18.58-18.08,21.63l-.47.11.41.25s4.31,2.59,5.63,4.13c.15.14.3.22.46.22.06,0,.12-.02.17-.04.02,0,.04-.02.05-.02h.07c12.58-4.72,17.71-12.3,17.71-26.2v-.08h12.14v-5.73h-12.25c0-1.46,0-3.39.05-5.2,0-1.04.05-2.61.15-3.6.88-.15,1.58-.64,1.58-1.14,0-.59-.53-1.17-6.83-1.17h-.9v.2c.11,2.75.11,7.91.11,9.6v1.32h-10.35v-5.2s0-2,.09-3.28c.87-.15,1.52-.63,1.52-1.14,0-.65-.48-1.11-6.67-1.11h-1.02l.02.21c.16,1.64.16,4.59.16,4.62v5.9H4.63Z"/><path class="cls-1" d="m59.31,14.19v18.62h6.32v-13l22.31-.05c-1.64,16.14-9.8,25.21-25.67,28.54l-.46.09.39.26s4.8,3.13,6.08,4.67c.05.1.18.27.5.27.06,0,.12-.02.17-.04.02,0,.04-.02.05-.02h.06c15.48-5.36,23.49-16.21,25.96-35.18.56-.23,1.09-.53,1.09-1.05,0-.89-4.35-3.59-5.05-3.59-.24,0-.42.12-.58.23-.16.11-.3.2-.5.2l-30.48.05h-.19Z"/><path class="cls-1" d="m129.26,13.6c.85,0,1.7-.29,1.7-.84,0-.71-.11-.74-6.11-2.53l-.99-.3-.07.16c-3.64,8.36-11.39,16.59-20.2,21.49l-.33.19.34.16s3.93,1.84,5.29,3.05l.05.05h.24c.27,0,.43-.02.49-.09,5.23-3.49,9.91-7.89,13.91-13.08h13.19c-2,4.26-4.12,7.87-6.47,11.02-3.02-2.42-6.61-4.3-9.11-5.46l-.12-.06-4.11,4.06.24.12c3.63,1.87,6.46,3.86,8.88,6.24-5.93,5.94-13.36,9.92-22.11,11.84l-.45.1.39.25s4.2,2.75,5.37,4.13c.15.15.31.21.51.21.06,0,.11-.02.17-.03.02,0,.04-.02.05-.02h.05c8.33-2.45,15.36-6.89,21.47-13.6,4.7-5.15,8.7-11.44,12.6-19.77,1.03-.26,1.25-.67,1.25-.98,0-.47-1.12-1.51-2.28-2.38l3.33-2.32.15-.1-.09-.16c-1.24-2.08-4.54-5-6.04-6.1l-.11-.08-3.03,1.91-.24.15.23.17c1.96,1.47,4.77,4.62,5.66,6.35l.06.12c-.99-.73-1.99-1.32-2.37-1.32-.21,0-.36.1-.48.19-.12.08-.24.17-.47.19-.32.05-6.9.1-12.5.11.62-.98,1.25-2.03,1.81-3.07h.26Z"/><path class="cls-1" d="m146.15,6.33l-3.31,2.11.23.17c2.03,1.47,4.41,4.2,5.45,5.88l.11.17,3.35-2.38.15-.11-.09-.15c-1.17-1.97-4.11-4.53-5.78-5.62l-.1-.07Z"/><polygon class="cls-1" points="200.92 43.11 189.72 43.11 191.86 19.47 191.88 19.26 162.12 19.26 162.12 25.2 184.82 25.2 183.23 43.11 157.42 43.11 157.42 49.43 200.92 49.43 200.92 43.11"/><path class="cls-1" d="m246.99,14.17c-2.2-1.56-6.09-3.35-6.13-3.37l-.15-.07-.09.14c-5.75,8.99-19.02,20.47-33.24,25.01l-.41.13.36.22s4.25,2.59,5.61,4.1c.22.34.47.36,1.04.18,4.87-1.92,10.38-5.25,15.98-9.66l-.16,24.1v.19s6.54,0,6.54,0v-29.79c3.38-3.12,6.48-6.37,9.21-9.68.34.09.69.14,1.01.14.69,0,1.11-.25,1.11-.68,0-.34-.26-.71-.68-.97Z"/><polygon class="cls-1" points="257.15 34.75 273.5 34.75 273.5 51.48 277.77 51.48 277.77 34.75 294.12 34.75 294.12 30.7 277.77 30.7 277.77 13.97 273.5 13.97 273.5 30.7 257.15 30.7 257.15 34.75"/><path class="cls-1" d="m303.14,36.83l.39.26s4.02,2.75,4.83,3.97c.06.06.17.17.35.17.23,0,2.69-.69,6.77-2.29l-.05,17.79v.19s5.24,0,5.24,0v-2.59h16.88v2.21h5.35l-.06-17.89c2.27.76,4.29,1.34,6.39,1.81h.11c.17,0,.32-.08.43-.19,1-1.53,4.83-4.73,4.87-4.76l.35-.3-.46-.05c-8.32-.84-15.48-3.29-21.29-7.27,3.85-3.44,7.18-7.37,9.9-11.69.62-.2,1.31-.49,1.31-1.03,0-.89-3.77-3.16-4.02-3.16-.22,0-.4.12-.56.22-.13.08-.25.16-.36.16h-12.65c.39-.62.74-1.19,1.05-1.72h.27c1.39,0,1.59-.46,1.59-.73,0-.35-.32-.66-1.09-1.04-1.13-.49-4.78-1.48-4.94-1.52l-.15-.04-.07.14c-2.92,5.91-9.95,14.27-18.48,18.7l-.41.21.43.15s4.29,1.45,5.32,2.32c.11.12.23.12.3.12.57,0,4.71-2.93,8.88-7.38,1.07,1.58,2.83,3.88,5.39,6.31-6.06,4.34-13.25,7.32-21.37,8.84l-.46.09Zm25.97-12.19c-3.23-2.89-5.11-5.65-5.97-7.12l.45-.58,12.48-.05c-2.03,2.82-4.37,5.43-6.96,7.74Zm11.49,13.18h-22.46c3.95-1.83,7.62-4,10.92-6.47,3.37,2.57,7.25,4.75,11.54,6.47Zm-3.05,4.86v6.74h-16.88v-6.74h16.88Z"/><path class="cls-1" d="m406.24,33.4h.11c.19,0,.36-.1.43-.25.89-1.47,4.14-4.24,4.17-4.27l.34-.29-.45-.05c-4.5-.48-8.2-1.43-11.3-2.89,3-3.38,4.31-6.73,4.84-8.53h4.47v-4.54h-16.35c.21-.46.4-.89.56-1.28.1-.24.2-.46.29-.66,1.16-.02,1.74-.28,1.74-.79,0-.33-.26-.61-.77-.83-1.03-.38-4.98-1.22-5.15-1.25l-.18-.04-.05.18c-.02.09-2.29,8.54-9.7,14.57l-.3.25.38.09s3.53.86,4.68,1.69l.05.04h.17c.55,0,2.07-1.86,3.32-3.51,1.1,1.89,2.43,3.57,3.97,5.02-1.98,1.3-4.31,2.37-6.96,3.18.06-.14.1-.26.13-.33.29-.05.97-.22.97-.71,0-.46-.8-1.13-3.4-2.83-.11-.12-.23-.12-.3-.12-.17,0-.33.07-.48.14-.13.06-.26.12-.38.12h-5.12l1.61-1.52-.12-.14c-.56-.66-1.26-1.33-1.96-1.97,3.69-3.29,6.8-7.37,7.21-7.92.56-.1,1.11-.27,1.11-.77,0-.69-3.28-3.54-3.81-3.54-.2,0-.37.12-.5.21-.07.05-.16.11-.2.11h-16.33v4.81l12.98-.05c-.51.69-1.89,2.45-3.79,4.24-1.61-1.28-3.1-2.39-3.82-2.93l-.33-.25-3.43,3.07.2.14c.75.53,4.55,3.26,7.65,6.5h-11.29v4.6h7.94c-1.91,4.31-5.18,10.26-10.03,14.72l-.26.23.34.09s3.42.97,4.62,2.01l.02.04h.07l.06.06h.09c.13,0,.23-.09.31-.18,3.21-3.99,5.28-8.23,6.53-11.38-.09,3.04-.18,6.6-.18,8.56v5.29c0,1.25-.96,1.86-2.93,1.86-1.19,0-2.53-.23-3.51-.41l-.92-.16.29.38s2.57,3.5,3,5.32c.06.12.2.27.5.27.21,0,.41.02.61.03.21.02.41.03.63.03,4.93,0,7.43-2.21,7.43-6.56,0-.1,0-.33-.02-.67-.03-.87-.09-2.48-.09-4.4v-8.66h.05s3.16.44,4.3,1.11l.05.03h.16c.12,0,.27-.08.37-.19,1.05-1.47,2.25-3.99,3.06-5.96.95.7,2.01,1.54,2.4,2.12l.04.05c.06.06.16.15.34.15.07,0,.13-.03.16-.06h.06c1.63-.55,3.19-1.19,4.66-1.92v.11c0,1.37,0,2.79-.05,4.28h-9.07v4.65h8.48c-.94,4.14-3.56,9.77-14.8,12.03l-.46.09.39.26s3.43,2.31,4.23,3.59c.11.11.23.11.35.11h.16c4.39-1.28,7.88-3.3,10.39-6.03.65,1,2.08,3.39,2.38,4.66.07.22.27.35.54.35h0c.94.11,1.87.16,2.78.16,9.72,0,10.17-6.75,10.17-19.67v-.19h-10.51c.05-.79.09-1.56.14-2.23,1.12-.2,1.52-.62,1.52-.97,0-.44-.46-.78-1.14-.84-1.34-.16-5.26-.43-5.3-.43h-.04c1.49-.76,2.89-1.61,4.19-2.54,3.1,1.87,6.66,3.25,10.62,4.12Zm-4.78,7.55c-.02,7.94-1.14,10.25-4.93,10.25-1.64,0-3.56-.47-5.09-.84,2.13-2.53,3.51-5.61,4.23-9.41h5.8Zm-2.55-23.85c-.75,2.2-1.99,4.18-3.69,5.91-2.04-1.64-3.57-3.63-4.55-5.91h8.24Zm-23.28,19.08v-6.07h3.61c-.4.92-1.81,4.01-3.61,6.07Z"/><path class="cls-1" d="m430.59,49.56c0,1.72-.99,2.45-3.31,2.45-1.19,0-2.62-.19-4.14-.38l-.8-.11.25.36s2.57,3.65,2.89,5.02c.08.26.37.35.59.35h0c.49.05.92.05,1.42.05,5.57,0,8.39-2.32,8.39-6.88v-.28c-.05-1-.11-4.24-.11-6.68v-12.76h3.13v-2.73c.45.25.8.45.97.62.11.11.23.11.3.11.13,0,.21-.08.32-.19l.34-.41c-.02,1.15-.05,2.35-.08,3.42-.04,1.48-.07,2.75-.07,3.4v22.21h5.13v-3.13h20.23v-4.92h-9.17v-6.36h7.61v-4.65h-7.61v-5.55h7.61v-4.59h-7.61v-5.34h8.74v-4.81h-8.26c1.11-2.62,2.21-5.58,2.43-6.21,1.11-.07,1.68-.37,1.68-.89,0-.36-.36-.69-.95-.89-.6-.18-2.53-.52-3.93-.77-.65-.12-1.26-.23-1.32-.24l-.21-.11-.06.23s-.02.07-.03.14c-.67,2.96-1.67,6.05-2.82,8.72h-5.34c1.03-2.27,2.01-4.73,2.64-6.68,1.55-.03,1.72-.63,1.72-.89,0-.41-.35-.75-1-.94-2.04-.59-5.22-1.13-5.25-1.14l-.18-.03-.04.18c-.9,4.22-3.88,13.28-8.68,17.49h-.22v-10.95h2.53v-4.7h-19.75v4.7h3.13v10.95h-4.32v4.92h10.85c-1.64,3.59-5.97,11.84-13.09,17.19l-.3.23.36.11s3.85,1.19,4.78,2.06c.08.08.13.11.25.11.72,0,6.32-5.9,10.57-14.86-.1,4.2-.19,10.14-.19,10.94v3.07Zm0-34.72v10.95h-3.93v-10.95h3.93Zm21.21,27.89v6.36h-5.98v-6.36h5.98Zm0-10.2v5.55h-5.98v-5.55h5.98Zm-5.98-4.59v-5.34h5.98v5.34h-5.98Z"/><path class="cls-1" d="m504.14,40.11c.96-4.04,1.08-7.47,1.09-10.88,1.81,4.29,5.25,8.55,5.74,8.55.06,0,.18,0,.28-.1.54-.35,5.09-3.73,5.28-3.88l.23-.17-.25-.15c-5.94-3.5-10.8-11.59-10.86-18.02,0-.23.1-.47.2-.7.09-.21.17-.41.17-.59,0-.45-.46-.59-.87-.68-.77-.1-3.88-.49-5.15-.54h-.16c-.41,0-.47.29-.47.47,0,.05.01.09.03.14.01.04.03.09.03.16.55,2.78.59,5.57.59,8.92,0,6.34-.64,12.36-1.66,15.7-2.06,6.64-7.63,10.12-12.06,10.12-1.8,0-7.69-.66-7.69-9.2s6.08-15.82,7.29-17.25c1.97-2.36,4.93-3.46,7.05-3.71.08,0,.17-.02.26-.02.48-.03,1.15-.07,1.15-.66,0-.54-3.34-4.73-4.08-4.73-.2,0-.37.11-.54.24-.13.09-.27.19-.46.26-2.3.97-5.68,1.55-9.04,1.55-2.49,0-4.7-.32-6.25-.91-.19-.06-.33-.06-.39-.06-.37,0-.41.25-.41.36,0,.08.02.15.04.19.01.03.02.05.02.08l.89,5.67.13.02c.8.15,1.74.22,2.89.22,1.32,0,2.6-.11,3.48-.29-2.27,2.86-7.93,10.86-7.93,19.47,0,4.57,1.43,8.41,4.13,11.12,2.42,2.42,5.7,3.75,9.23,3.75,7.05,0,15.95-5.52,18.05-14.45Z"/><path class="cls-1" d="m518.78,12.6l-.09-.16c-1.25-2.06-4.45-4.85-5.88-5.89l-.11-.08-3.14,2.07-.24.16.23.16c1.73,1.2,4.43,4,5.55,6.08l.1.2,3.42-2.45.15-.11Z"/><path class="cls-1" d="m509.5,18.02l.1.2,3.48-2.39.15-.1-.09-.16c-1.29-2.3-4.57-5.37-6.04-6.43l-.11-.08-3.38,2.11.23.17c2.41,1.73,4.71,4.73,5.66,6.67Z"/></svg>