<?xml version="1.0" encoding="UTF-8"?><svg id="_レイヤー_1" xmlns="http://www.w3.org/2000/svg" viewBox="0 0 660 68.1"><defs><style>.cls-1{fill:#ffc6c6;}</style></defs><path class="cls-1" d="m53.23,50.75h-21.58v-4.96h17.97v-5.08h-17.97v-5.49h10.73v2.43h5.35V10.55H10.7v27.42h5.24v-2.75h10.14v5.49H8.82v5.08h17.27v4.96H5.04v5.02h48.19v-5.02Zm-21.58-30.38v-4.96h10.73v4.96h-10.73Zm0,10.03v-5.12h10.73v5.12h-10.73Zm-5.57-5.12v5.12h-10.14v-5.12h10.14Zm0-9.87v4.96h-10.14v-4.96h10.14Z"/><path class="cls-1" d="m58.82,32.2l20.94-.16v16.26c0,2.23-1.31,3.1-4.66,3.1-1.83,0-4.22-.22-7.09-.64l-.51-.07.33.39s3.11,3.72,3.8,5.71c.07.22.28.35.55.35h0c.81.06,1.68.06,2.6.06,7.5,0,11.14-2.52,11.14-7.69v-.44c-.05-.8-.11-3.17-.11-5.76v-11.25l12.47-.11c-.83,1.09-3.93,4.85-9.16,8l-.38.23.43.12s4.52,1.3,5.93,2.34l.05.04h.17c.12,0,.27-.08.34-.15,5.34-4.42,9.87-10.97,10.35-11.68.61-.14,1.32-.33,1.32-.87,0-.72-3.48-3.48-4.08-3.48-.27,0-.46.14-.62.25-.09.06-.18.13-.24.13h-12.62l-.16-.12c-.85-.65-1.8-1.3-2.73-1.94,4.62-2.85,10.04-7.14,12.75-10.08.08-.02.16-.04.24-.06.54-.12,1.04-.24,1.04-.71,0-.77-3.63-3.65-3.92-3.65-.22,0-.41.1-.59.19-.12.06-.25.13-.33.13h-31.7v5.19l26.55-.11c-1.62,1.4-4.93,3.94-8.81,6.05-4.61-2.75-8.73-4.79-8.77-4.8l-.12-.06-3.81,3.63.26.12c.06.03,6.04,2.85,11.2,6.22h-22.05v5.35Z"/><path class="cls-1" d="m154.56,56.07l.04.04c.07.06.16.15.28.15.14,0,.23-.08.29-.13.02-.02.05-.04.07-.05l4.45-4.38-.15-.14c-4.75-4.5-8.92-6.69-12.76-6.69s-6.79,2.04-9.57,4.25c-.79.64-1.38,1.04-1.87,1.04-.57,0-1.09-.53-1.96-1.45-1.16-1.28-2.92-1.74-4.08-1.74-.25,0-.51.05-.76.09.68-.49,2.25-1.57,5.34-3.69.63.05,1.21.05,1.73.05,3.92,0,7.94-1.15,11.03-3.15,3.45-2.23,5.35-5.32,5.35-8.7,0-5.31-4.89-8.88-12.17-8.88-.84,0-3.37,0-6.06.9,1.65-1.56,9.59-7.73,11.59-9.22.59-.14,1.24-.37,1.24-.88,0-.8-3.81-3.43-4.29-3.43-.19,0-.32.09-.44.17-.12.08-.24.16-.46.21-5.49,1.2-9.95,1.99-13.82,1.99-1.51,0-2.63-.08-3.67-.27-.03,0-.08-.02-.12-.03-.05-.02-.1-.03-.15-.03-.34,0-.46.22-.46.41,0,.11.04.2.07.31.01.04.03.08.05.13l2.33,4.77h.88c3.02,0,6.95-1.01,9.45-1.76-2.47,2.3-5.68,5.11-8.3,7.41l-1.23,1.08c-.43.39-1.48,1.17-2.81,2.15-1.59,1.19-3.57,2.65-5.29,4.05-.4.34-.66.66-.66,1.06,0,.13,0,.44.47.71l4.29,2.56.11-.12c4.41-5.11,9.91-7.7,16.36-7.7,4.54,0,7.04,1.66,7.04,4.66,0,2.04-2.24,5.29-7.21,6.28.08-.32.15-.68.15-.99,0-3.58-4.04-5.21-7.8-5.21-4.77,0-6.94,2.62-6.94,5.05,0,1.95,1.28,3.73,3.52,4.87l.48.2c-2.4,1.72-5.41,3.81-7.26,5.02-.44.28-1.27.77-2.31,1.39-1.76,1.05-3.95,2.35-5.69,3.47-.22.17-.4.32-.4.53,0,.19.15.4.4.59l4.88,3.6.12-.11c5.09-4.68,7.13-5.62,8.77-5.62,1.14,0,2.12.58,3.09,1.81,1.48,1.96,3.27,2.99,5.17,2.99,1.79,0,3.55-.83,5.37-2.54,2.52-2.35,4.44-3.4,6.23-3.4,2.4,0,4.81,1.88,8.04,6.29Zm-25.55-19.22c0-1.73,2.7-1.75,2.72-1.75.62,0,2.34.36,2.34,1.53,0,.67-.54,1.4-1.41,1.9-1.68-.25-3.65-.74-3.65-1.69Z"/><polygon class="cls-1" points="183.64 51.89 187.91 51.89 187.91 35.16 204.26 35.16 204.26 31.1 187.91 31.1 187.91 14.38 183.64 14.38 183.64 31.1 167.29 31.1 167.29 35.16 183.64 35.16 183.64 51.89"/><path class="cls-1" d="m220.1,12.99h-5.34c-.28,0-.5.22-.5.5v38.96c0,.28.22.5.5.5h5.34c.28,0,.5-.22.5-.5v-19.33l17.09,19.66c.09.11.23.17.38.17h7.55c.2,0,.38-.12.46-.3.08-.18.05-.39-.09-.54l-19-21.18,17.09-17.1c.14-.14.18-.35.11-.54h0s0,0,0,0c-.08-.19-.26-.31-.46-.31h-7.39c-.13,0-.26.05-.36.16l-15.38,16.15v-15.8c0-.28-.22-.5-.5-.5Z"/><path class="cls-1" d="m263.55,35.12c-4.71,0-8.59,1.03-10.63,2.82-2.44,2.09-3.57,4.45-3.57,7.39,0,5.08,4.02,8.49,10,8.49,3.55,0,6.1-1.2,7.97-3.76.07.94.21,1.71.46,2.54.06.22.25.36.48.36h4.59c.14,0,.28-.06.38-.17.09-.11.14-.25.12-.39-.27-2.15-.43-5.31-.43-6.68l.22-13.23c0-3.16-1.16-5.3-3.65-6.74-1.85-1.06-4.6-1.68-7.37-1.68-3.29,0-7.66.69-9.81,4-.77,1.18-1.21,2.7-1.32,4.51,0,.14.04.27.13.36.09.1.23.16.37.16h5.07c.27,0,.49-.21.5-.48.09-2.61,1.82-4.1,4.74-4.1,2.41,0,3.99.66,4.81,2.03.48.76.57,1.87.57,3.4v1.29c-1.55-.12-2.98-.12-3.6-.12Zm-2.97,13.7c-3.15,0-5.11-1.63-5.11-4.25,0-4.09,5.04-4.95,9.27-4.95.57,0,1.72.04,2.4.1l-.09,2.35c-.15,4.23-2.57,6.75-6.46,6.75Z"/><rect class="cls-1" x="281.97" y="24.87" width="6.07" height="28.08" rx=".5" ry=".5"/><rect class="cls-1" x="281.43" y="13.1" width="7.1" height="6.56" rx=".5" ry=".5"/><rect class="cls-1" x="292.8" y="56" width="26.08" height="3.7" rx=".5" ry=".5"/><path class="cls-1" d="m351.09,23.26c0-2.41-.92-10.27-12.75-10.27h-14.94c-.28,0-.5.22-.5.5v38.96c0,.28.22.5.5.5h5.34c.28,0,.5-.22.5-.5v-17.09h6.03c1.89,0,4.01.09,5.45.76,1.51.7,2.32,2.19,2.68,4.96l.29,2.11c.55,4.07,1.06,7.91,1.68,9.44.07.19.26.32.46.32h5.77c.16,0,.31-.08.41-.21.09-.13.12-.31.06-.45-1.53-4.45-1.96-8.24-2.41-12.25-.45-4.12-1.76-6.17-4.8-7.34,3.9-1.59,6.21-5.07,6.21-9.44Zm-21.96-4.73h8.24c4.75,0,7.05,1.9,7.05,5.81,0,1.06-.37,3.14-1.75,4.19-1.06.81-2.23,1.25-5.36,1.25h-8.19v-11.25Z"/><path class="cls-1" d="m382.81,39.82v-2.16c0-8.83-4.22-13.5-12.21-13.5-11.56,0-13.29,9.41-13.29,15.02,0,9.54,4.52,14.58,13.07,14.58,6.98,0,11.75-3.82,12.15-9.75,0-.14-.04-.27-.13-.36-.09-.1-.23-.16-.37-.16h-5.07c-.26,0-.47.19-.5.45-.34,3.28-2.48,5.16-5.87,5.16-4.6,0-7.25-3.2-7.27-8.77h18.98c.28,0,.5-.22.5-.5Zm-19.25-4.06c.2-4.19,2.94-6.99,6.88-6.99,5.05,0,6.16,3.77,6.19,6.99h-13.07Z"/><rect class="cls-1" x="389.46" y="45.59" width="6.99" height="7.36" rx=".5" ry=".5"/><rect class="cls-1" x="389.46" y="24.59" width="6.99" height="7.37" rx=".5" ry=".5"/></svg>