<?xml version="1.0" encoding="UTF-8"?><svg id="_レイヤー_1" xmlns="http://www.w3.org/2000/svg" viewBox="0 0 660 68.1"><defs><style>.cls-1{fill:#ffc6c6;}</style></defs><path class="cls-1" d="m11.11,39.3h12.03v17.48h5.89v-17.48h12.62v3.35h5.78v-25.26h-18.4v-4.71s0-1.52.05-2.53c.83-.16,1.68-.69,1.68-1.25,0-.4,0-1.22-7.58-1.22h-.22l.02.21c.16,1.5.16,2.88.16,3.7v5.8H5.44v25.64h5.67v-3.72Zm30.53-16.57v11.11h-12.62v-11.11h12.62Zm-18.5,0v11.11h-12.03v-11.11h12.03Z"/><path class="cls-1" d="m61.92,53.33h31.23v3.24h5.68V22.3h-14.24v-5.77h16.72v-5.46h-47.54v5.46h15.43c.02.84.04,1.8.05,2.78.01,1.02.02,2.05.05,2.99h-12.94v34.65h5.57v-3.62Zm12.69-31.03c.03-1.11.1-3.96.1-5.77h4.47v5.77h-4.57Zm14.56,7.68v.5c-.12,5.35-.57,6.29-3,6.29-1.64,0-1.64-.46-1.64-1.1v-8.33h8.62v6.57c-1.37-.98-3.63-3.52-3.65-3.54l-.33-.37Zm-27.25,8.93v-11.58h7.31c-.25,3.87-1.36,8.61-7.31,11.58Zm0,2.24c1.22.59,2.76,1.34,3.45,1.93.08.08.23.16.35.16.1,0,.2-.05.37-.14,5.42-3.44,8.12-8.46,8.5-15.78h4.53v9.47c0,2.3.73,4.94,6.45,4.94,3.05,0,6.2,0,7.58-3.99v10.34h-31.23v-6.94Z"/><path class="cls-1" d="m155.9,10.1h-16.57v1.42s-.02-.03-.02-.04c-.7-1.08-3.1-3.84-3.2-3.96l-.13-.15-.15.14c-.73.68-5.47,3.25-9.38,4.47-.88-.16-2.59-.36-2.67-.37l-.23-.03,1.19,15.08c-.9.3-1.83.6-2.63.76l-.15.03v-1.81h-3.62v-9.81h4.48v-4.97h-15.12v4.97h5.34v9.81h-4.85v4.98h4.85v13.26c-2.43.7-4.62,1.24-6.7,1.62l-.24.05.1.23s1.74,3.74,2.54,5.35c.25.49.63.81.98.81s.73-.35.73-1.33c0-.09-.01-.17-.02-.26,0-.04-.02-.09-.02-.14,4.88-1.53,10.75-3.78,13.64-5.09.16-.08.32-.25.32-.44v-.13c-.03-.27-.11-.96-.11-1.7,0-1.33.11-2.78.11-2.79l.02-.33-.3.14c-1,.48-3.03,1.34-5.77,2.33v-11.56h3.62v-2.93l.02.03c.08.13,1.9,3.26,2.76,4.45.27.34.53.5.8.5.34,0,.73-.2.73-1.16,0-.08-.01-.17-.02-.26,0-.05-.02-.1-.02-.16,3.49-1.48,7.51-3.65,9.29-4.64l.02.05c.13.43.26.83.34,1.27l.05.25,3.21-1.63c-1.23,1.57-2.66,2.77-4.35,3.65l-.38.2.41.15s3.27,1.24,4.41,2.28c.11.11.23.11.3.11.12,0,.28-.09.33-.14,1.7-1.23,3.11-2.86,4.31-4.99.49.92,1.33,2.61,1.48,3.64.1.36.35.41.54.41h0c.49.05,1,.05,1.48.05,8.23,0,8.23-8.08,8.23-21.45v-.19Zm-13.08,4.6c-.2,4.12-1.11,7.55-2.72,10.2-1.67-4.66-4.33-8.84-4.36-8.88l-.09-.13-3.86,1.48.11.2s1.1,2,2.24,4.88c-.33.17-.69.35-1.07.54-1.11.56-2.36,1.2-3.64,1.8l-.72-8.9c2.32-.74,6.38-2.37,8.77-3.63.46.43.94.66,1.38.66.18,0,.33-.04.45-.11v1.89h3.5Zm8.21,0c0,9.2-.55,12.08-3.85,12.08-.7,0-1.46-.13-2.37-.32,1.5-3.17,2.41-7.12,2.71-11.76h3.51Z"/><path class="cls-1" d="m153.26,33.79h-27.1v22.99h4.87v-2.54h17.26v2.48h4.97v-22.94Zm-11.49,7.99v-3.77h6.46v3.77h-6.46Zm6.52,8.2h-6.52v-4.15h6.47l.05,4.15Zm-11.22-4.15v4.15h-6.04v-4.15h6.04Zm0-7.82v3.77h-6.04v-3.77h6.04Z"/><path class="cls-1" d="m213.1,31.07l-.43-.14c-10.2-3.27-15.36-9.09-17.27-11.76l13.92.1h.19s0-5.08,0-5.08h-23.27c.56-1.47.95-2.68,1.22-3.77,1.07-.01,1.88-.41,1.88-.95,0-.3,0-1.11-6.74-1.89-.12-.01-.19-.02-.23-.03l-.19-.03-.03.19c-.36,2.13-1.02,4.31-1.99,6.47h-16.42v5.08l13.64-.11c-4.04,5.92-10.03,10.76-16.49,13.32l-.42.17.42.19s4.13,1.89,5.23,3.2c.12.12.22.22.41.22.14,0,1.21-.62,1.75-.93v4.12h16.03v9.9c0,1.39-1.12,2.07-3.42,2.07-1.61,0-3.6-.34-5.35-.64l-.84-.14.32.4s2.79,3.49,3.2,4.98c.09.54.56.54.73.54.29,0,.6.02.91.03.31.02.63.03.92.03,4.44,0,8.99-.78,9.04-6.61,0-.1-.01-.37-.03-.77-.05-1.02-.13-2.92-.13-4.84v-4.93h15.97v-4.83c.31.16.62.33.94.48.11.08.25.08.32.08.15,0,.26-.01.41-.17,1.42-1.52,5.37-3.71,5.41-3.74l.39-.22Zm-23.59-11.9c1.19,2.13,2.74,4.28,4.48,6.25h-14.49c1.6-1.98,3.08-4.13,4.29-6.25h5.71Zm-20.05,15.42c3.07-1.99,6-4.56,8.74-7.66v3.24h17.17v-3.22c2.93,3.03,6.35,5.59,10.19,7.63h-36.1Z"/><path class="cls-1" d="m179,44.75c.74,0,1.22-.27,1.22-.68,0-.61-.2-.73-5.28-3.67l-.17-.1-.1.17c-.03.06-3.7,6.42-12.26,10.11l-.4.17.4.18s3.95,1.82,4.71,2.93c.09.18.26.27.39.27.15,0,.24-.06.35-.14l.07-.05c4.39-2.45,7.54-6.07,10.32-9.28.26.08.51.08.75.08Z"/><path class="cls-1" d="m196.91,40.72l-.11-.15-4.04,2.8-.18.12.14.16c6.73,7.73,11.6,10.05,11.91,10.05.14,0,.26-.01.42-.18,1.05-1.25,4.71-3.39,4.75-3.41l.35-.2-.38-.15c-6.29-2.43-11.92-7.82-12.87-9.05Z"/><polygon class="cls-1" points="256.72 30.39 240.37 30.39 240.37 13.66 236.1 13.66 236.1 30.39 219.75 30.39 219.75 34.45 236.1 34.45 236.1 51.17 240.37 51.17 240.37 34.45 256.72 34.45 256.72 30.39"/><path class="cls-1" d="m306.8,49.61c5.95,0,9.37-3.9,9.37-10.72,0-5.6-3-9.2-6.27-12.24,1.19-2.59,3.87-8.45,5.37-13.12.97-.23,1.12-.64,1.12-.86,0-.81-3.33-3.16-3.7-3.16-.21,0-.38.1-.53.19-.12.07-.23.14-.34.14h-15.35v47h5.57v-12.99c.29.47,2.3,3.81,2.64,5.16.09.52.36.59,2.13.59Zm-4.77-34.91h7.07c-.55,2.27-3.02,9.01-5.05,12.71l-.08.15.13.1c4.34,3.36,6.46,7.02,6.46,11.18,0,3.59-1.47,5.26-4.61,5.26-1,0-2.18-.19-3.73-.59l-.18-.05V14.7Z"/><path class="cls-1" d="m276.66,50.49c.82,1.3,2.22,3.67,2.55,4.89.09.52.44.59,2.89.59,9.17,0,10.17-6.18,10.17-30.51,0-3.59-.04-6.97-.07-9.94-.02-2.12-.04-3.94-.04-5.33v-.19h-22.94v4.76h7.5v7h-7.07v4.81h6.95c-.12,2.78-.3,4.96-.56,7h-6.55v4.76h5.78c-1.58,7.51-4.64,12.71-9.37,15.89l-.37.24.43.11s3.97.97,5.3,1.93c.03.01.05.03.07.04.07.04.16.09.28.09.34,0,2.82-2.23,5.03-6.13Zm10.09-12.16c-.48,10.5-1.46,11.91-5.03,11.91-1.11,0-2.5-.19-4.62-.64,1.64-3.2,2.85-6.99,3.6-11.27h6.05Zm.28-11.76c0,2.32,0,4.7-.1,7h-5.54c.22-2.08.39-4.32.51-7h5.12Zm.05-4.81h-5.06v-7h5.01c0,1.85,0,4.32.05,7Z"/><path class="cls-1" d="m360.77,45.5l-4.21,2.86.17.17c.05.05,5.53,5.27,11.2,7.91.11.08.25.08.32.08.19,0,.32-.07.37-.19.94-1.31,4.34-3.6,4.37-3.62l.34-.22-.38-.12c-7.21-2.28-12.02-6.71-12.07-6.75l-.11-.11Z"/><path class="cls-1" d="m341.62,11.69c-.14-.23-.4-.5-.82-.84-1.07-.81-3.97-2.69-4-2.71l-.16-.11-.13.21c-4.22,6.55-10.1,9.98-14.29,11.7l-.38.16.37.19s3.96,2.1,4.79,3.18l.04.04c.07.06.15.14.28.14.13,0,.22-.05.29-.09.02-.01.04-.03.07-.04h0c6.16-3.3,10.31-8.48,11.87-10.42.12-.15.22-.28.31-.38.23.05.48.09.73.09.49,0,.87-.14,1.05-.37v2h10.48c-.22,1.19-.45,2.43-.73,3.6h-7.44l.06,28.14v.19h5.08v-1.67h13.48v1.29h5.08v-27.96h-10.89c.33-1.17.66-2.51.92-3.6h12.99v-4.81h-29.04v2.07Zm7.46,13.79v-3.07h13.48v3.07h-13.48Zm0,7.39v-3.23h13.48v3.23h-13.48Zm13.48,4.17v3.28h-13.48v-3.28h13.48Z"/><path class="cls-1" d="m354.5,50.42c.74,0,1-.37,1-.68,0-.29-.15-.56-.45-.8-1.34-1.13-4.37-3.01-4.5-3.09l-.15-.09-.11.15c-.3.42-7.24,5.85-16.43,7.21l-.56.08.49.28s4.24,2.42,4.99,3.54c.09.17.26.27.39.27,1.7,0,10.85-4.34,14.06-7.14.43.19.84.29,1.26.29Z"/><path class="cls-1" d="m320.86,50.79l.36.19s4.23,2.26,5.14,3.43c.06.06.16.16.29.16s.22-.05.29-.09c.02-.01.04-.02.07-.04h0c5.57-3.03,10.3-7.64,14.45-14.09.19.03.38.03.56.03,1.1,0,1.27-.46,1.27-.73s-.15-.7-.88-1.23c-1.29-.97-4.46-2.91-4.5-2.93l-.18-.11-.14.29c-3.23,6.69-8.88,11.87-16.36,14.97l-.38.16Z"/><path class="cls-1" d="m327.06,37.68c.07.07.16.16.3.16.13,0,.21-.05.28-.09.02-.01.04-.03.07-.04h0c4.56-2.32,8.91-6.3,12.95-11.83h0c.28.05.52.09.77.09.73,0,1.16-.27,1.16-.73,0-.35-.3-.77-.94-1.29-1.08-.86-4-2.64-4.12-2.71l-.17-.1-.1.17c-.22.37-5.55,9.22-15.01,12.7l-.4.15.37.2s4.07,2.26,4.82,3.31Z"/><path class="cls-1" d="m403.49,49.47v-.16c-.16-.57-.16-1.46-.16-2.32,0-1.11.06-2.19.06-2.2v-.02c3.53,5.4,9.48,10.19,19.5,11.69.02,0,.04,0,.07.02.04.02.09.03.14.03.23,0,.4-.09.55-.31,1.05-1.83,4.98-4.82,5.02-4.85l.43-.33-.54-.02c-7.07-.29-12.64-1.86-16.56-4.68,3.14-1.41,7.24-3.58,10.02-5.16.61.37,1.17.56,1.57.56.42,0,.68-.24.68-.62,0-.24-.1-.53-.3-.86-1.08-1.73-3.75-4.4-3.86-4.51l-.14-.14-.14.14c-1.79,1.79-7.21,4.82-11.56,6.91-1.4-1.89-2.44-4.1-3.16-6.74h7.43v1.24h5.4V13.12h-12.62v-1.21s0-1.08.09-2.09c1-.15,1.74-.6,1.74-1.09,0-.56-.75-.76-1.57-.89-1.71-.25-3.8-.31-5.05-.34-.42-.01-.76-.02-.96-.03l-.22-.02v.22c.12,1.86.17,3.65.18,3.66v1.8h-12.73v35.81c-2.57.57-5.54,1.14-9.07,1.75l-.23.04.08.22s1.2,3.34,2.44,5.53c.38.7.75,1.07,1.09,1.07.45,0,.73-.58.73-1.49v-.17c1.1-.26,6.19-1.53,11.12-2.85,10.52-2.83,10.52-3.29,10.52-3.56Zm-11.17-27.39v-4.09h20.22v4.09h-20.22Zm20.22,4.76v4.31h-20.22v-4.31h20.22Zm-9.43,17.76c-.94.39-5,1.63-10.79,3.06v-11.76h7.21c.73,2.78,1.89,5.79,3.71,8.64l-.12.05Z"/><rect class="cls-1" x="435.58" y="23.43" width="12.85" height="4.43"/><rect class="cls-1" x="435.63" y="30.39" width="12.8" height="4.43"/><path class="cls-1" d="m448.86,55.33v-17.76h-13.55v18.62h4.97v-2.97h3.88v2.11h4.7Zm-4.7-13.17v6.3h-3.93v-6.3h3.93Z"/><rect class="cls-1" x="435.52" y="9.08" width="13.07" height="4.59"/><rect class="cls-1" x="433.15" y="16.09" width="17.17" height="4.81"/><path class="cls-1" d="m450.63,12.21v4.49h17v-4.49h-5.66v-.56s0-1.12.09-2c1.01-.21,1.37-.66,1.37-1.03,0-.31-.24-.66-.93-.73-2.04-.27-5.6-.27-5.64-.27h-.22l.02.22c.16,1.38.16,3.2.16,3.21v1.15h-6.21Z"/><path class="cls-1" d="m473.48,12.97l.07.09s2.96,3.96,4.23,8.73l.07.25,4.05-2.45.13-.08-.05-.15c-1.4-3.98-4.59-8.05-4.62-8.1l-.09-.12-3.78,1.68c.05-.95.11-1.9.18-2.85.95-.18,1.58-.63,1.58-1.14,0-.2-.14-.57-1.08-.73-1.61-.21-5.57-.32-5.74-.32h-.21s.02.2.02.2c.11,1.65.16,3.1.16,4.57v3.24c0,2.78.05,5.41.1,7.85h-3.96c.37-1.09.65-2.16.88-3.03.07-.25.13-.49.19-.7,1.06-.16,1.6-.49,1.6-.98,0-.32-.34-.65-.78-.78-1.94-.59-4.92-.92-4.95-.92l-.2-.02v.21s-.18,3.3-1.04,6.23h-2.08v-.05c-.49-3.01-1.85-6.11-1.86-6.15l-.06-.14-3.93.79-.26.05.12.23s1.27,2.37,1.68,5.27h-4.18v4.54l19-.05c.31,5.71.84,10.4,1.59,14.33-1.14,1.62-2.37,3.07-3.75,4.4v-16.63h-14.9v21.26h4.49v-3.51h5.98v.7h2.35c-2.76,2.2-5.85,3.8-9.44,4.91l-.48.15.45.21s4.18,1.99,5.07,2.99c.16.15.26.16.4.16.33,0,5.83-2.21,11.25-8.69,1.66,5.34,3.62,7.94,5.96,7.94,2.64,0,4.89-3.08,6.16-8.42.07-.14.07-.22.07-.3,0-.12,0-.28-.17-.37-.99-.83-3.5-4.98-3.52-5.02l-.3-.5-.06.58c-.28,2.87-1.13,7.11-2.07,7.11-.3,0-1.12-.53-2.33-5.44,3.09-4.67,4.68-8.66,4.99-9.48.22.03.4.03.58.03.85,0,1.38-.3,1.38-.79,0-.3-.26-.62-.79-.97-1.66-1.08-5-2.75-5.04-2.76l-.24-.12-.04.26s-.46,2.79-2.13,6.47c-.33-2.5-.57-5.36-.71-8.52h9.43v-4.49h-9.61v-1.8c0-3.04.08-5.97.23-8.88Zm-17.45,24.06v-2.8h6.04v2.8h-6.04Zm6.04,3.9v3.01h-5.98l-.05-3.01h6.03Z"/></svg>