<?xml version="1.0" encoding="UTF-8"?><svg id="_レイヤー_1" xmlns="http://www.w3.org/2000/svg" viewBox="0 0 660 68.1"><defs><style>.cls-1{fill:#ffc6c6;}</style></defs><rect class="cls-1" x="8.85" y="24.48" width="6.07" height="28.08" rx=".5" ry=".5"/><rect class="cls-1" x="8.31" y="12.72" width="7.1" height="6.56" rx=".5" ry=".5"/><path class="cls-1" d="m24.39,52.57h5.07c.28,0,.5-.22.5-.5v-15.76c0-4.38,2.7-7.43,6.57-7.43.96,0,5.76.26,5.76,5.44v17.75c0,.28.22.5.5.5h5.18c.28,0,.5-.22.5-.5v-18.45c0-7.14-5.56-9.67-10.32-9.67-3.62,0-6.37,1.23-8.2,3.67,0-.85-.02-1.72-.05-2.64,0-.28-.23-.49-.5-.49h-5.07c-.14,0-.27.06-.36.16-.09.1-.14.23-.14.36.05,1.55.05,2.64.05,3.11v23.96c0,.28.22.5.5.5Z"/><path class="cls-1" d="m82.62,38.52c0-9.23-5.15-14.74-13.77-14.74s-14.26,5.63-14.26,15.07,5.3,14.63,13.83,14.63,14.2-5.87,14.2-14.96Zm-21.74-.11c0-6.02,3.13-9.91,7.97-9.91s7.38,3.67,7.38,9.8-2.97,10.4-7.76,10.4-7.59-3.95-7.59-10.29Z"/><path class="cls-1" d="m95.36,52.07v-14.62c0-5.18,2.14-7.49,6.94-7.49.93,0,1.66.04,2.21.25.16.05.33.03.45-.06.14-.09.22-.25.22-.41v-4.97c0-.25-.19-.47-.45-.5-.57-.05-1.02-.05-1.51-.05-3.72,0-6.56,1.29-8.07,3.67v-.36c-.03-.73-.05-1.58-.07-2.55,0-.28-.23-.49-.5-.49h-5.13c-.13,0-.27.05-.37.16-.09.11-.14.24-.13.38.16,1.87.27,4.6.27,5.08v21.96c0,.28.22.5.5.5h5.13c.28,0,.5-.22.5-.5Z"/><rect class="cls-1" x="110.72" y="24.48" width="6.07" height="28.08" rx=".5" ry=".5"/><rect class="cls-1" x="110.18" y="12.72" width="7.1" height="6.56" rx=".5" ry=".5"/><polygon class="cls-1" points="144.06 14 144.06 30.72 127.71 30.72 127.71 34.78 144.06 34.78 144.06 51.5 148.33 51.5 148.33 34.78 164.67 34.78 164.67 30.72 148.33 30.72 148.33 14 144.06 14"/><path class="cls-1" d="m222.26,35.32v-4.22h-15.65v-2.69h13.17v-4.38h-13.17v-2.69h9.33v1.13h4.65v-12.74h-32.12v12.8h4.6v-1.19h8.52v2.69h-12.14v4.38h12.14v2.69h-14.84v4.22h7.41c.48.98,1.05,2.39,1.52,3.77h-9.04v4.22h14.94v3.01h-13.22v4.43h13.22v6.58h5.08v-6.58h13.7v-4.43h-13.7v-3.01h15.22v-4.22h-9.02c.62-1.4,1.17-2.81,1.47-3.77h7.92Zm-13.18,0c-.34,1.25-.8,2.61-1.28,3.77h-6.91c-.37-1.08-.86-2.32-1.51-3.77h9.7Zm-11.49-21.69v4.04h-4.58v-4.04h4.58Zm9.33,0v4.04h-4.96v-4.04h4.96Zm4.38,4.04v-4.04h4.63v4.04h-4.63Z"/><path class="cls-1" d="m185.61,39.15c.07-.14.07-.22.07-.3,0-.19-.1-.36-.26-.44-1.41-.83-3.59-3.75-3.61-3.78l-.23-.3-.11.36c-.41,1.33-4.15,13.12-8.43,18l-.16.18.21.12s3.32,1.85,5.46,2.81l.06.02c.16.06.32.11.45.11.41,0,.68-.29.68-.73,0-.34-.14-.76-.4-1.19,2.6-5.16,4.68-10.67,6.06-14.32l.2-.54Z"/><path class="cls-1" d="m187.47,15.97l-.11-.13c-2.95-3.45-8.04-6.59-8.09-6.62l-.13-.08-3.79,3.56.3.19c1.6,1.03,5.56,3.77,7.84,7.01l.14.2,3.73-4.01.12-.13Z"/><path class="cls-1" d="m185.61,27.21c-2.42-2.16-6.58-4.4-8.36-5.36-.38-.21-.71-.39-.76-.42l-.15-.12-3.25,4.04-.14.18.2.11s.13.07.27.14c5.16,2.64,7.66,4.82,8.85,6.19l.16.19,3.31-4.82-.13-.11Z"/><path class="cls-1" d="m269.84,56.09V13.13h-41.18v43.12h5.62v-3.56h29.88v3.4h5.68Zm-23.97-21.2v12.46h-11.59v-12.46h11.59Zm0-16.51v11.32h-11.59v-11.32h11.59Zm18.29,28.97h-12.5v-12.46h12.45l.05,12.46Zm-12.5-17.64v-11.32h12.45v11.32h-12.45Z"/><path class="cls-1" d="m282.18,56.46c.14.14.24.17.35.17s13.06-6.02,19.05-22.77c6.31,16.62,18.56,22.12,18.66,22.12.12,0,.21-.03.35-.16,1.58-1.53,6.27-3.83,6.32-3.85l.39-.19-.4-.16c-11.16-4.62-18.95-13.52-21.94-25.1h19.37v-5.62h-20.12c0-.13.01-.26.02-.39.01-.2.03-.41.03-.59.11-2.54.21-7.11.22-8.7,1.07-.23,1.78-.74,1.78-1.29,0-1.02-1.9-1.09-7.55-1.31l-.78-.03.02.22c.16,1.88.27,6.11.27,10.78,0,.42,0,.85-.04,1.32h-19.6v5.62h19.01c-1.58,8.48-6.65,19.83-21.69,26.29l-.42.18.43.17s4.84,2,6.3,3.3Z"/><path class="cls-1" d="m347.77,55.27c.31.79.72.87.88.87.44,0,.75-.51.83-1.38,2.84-.57,7.27-1.61,11.08-2.61,2.06-.54,3.52-.95,4.56-1.27l.11.15s2.79,4.04,3.27,5.46c.08.23.31.4.54.4h0c.55.05,1.1.05,1.64.05,3.81,0,8.88-.76,8.88-7.32,0-.1,0-.36-.02-.74-.03-.98-.09-2.79-.09-4.71v-20.69h3.35v-5.19h-3.35v-5.53s0-1.42.09-2.37c.86-.18,1.36-.58,1.36-1.08,0-.36-.42-.77-1.19-.84-1.29-.16-5.37-.43-5.41-.43l-.22-.02.02.22c.11,1.48.11,4.27.11,4.3v5.74h-7.82v5.19h7.82v25.38c0,1.69-1.07,2.45-3.48,2.45-1.28,0-2.78-.22-4.35-.45-.28-.04-.56-.08-.83-.12,2.09-.67,2.09-.87,2.09-1.01v-.14c-.05-.3-.11-.89-.11-1.42,0-1.16.11-2.45.11-2.46l.03-.33-.3.14c-.57.26-2.28.76-4.42,1.31.31-.9.56-1.72.72-2.29,1.19-.09,1.44-.5,1.44-.83s-.3-.65-.78-.83c-.7-.22-4.44-1-4.6-1.03l-.2-.04-.03.2s-.58,3.43-1.37,6.02c-4.44,1.02-8.83,1.79-12.06,2.13l-.24.03.08.23s1.1,3.1,1.89,4.87Z"/><path class="cls-1" d="m354.81,42.29l-4.36.84.15.24s1.18,1.9,1.81,5.38l.04.21,4.2-1.24-.03-.17c-.37-2.16-1.69-5-1.74-5.12l-.06-.14Z"/><path class="cls-1" d="m365.31,28.25c.52,1.09,2.8,7.14,3.81,13.06l.04.23,4.64-1.7.16-.06-.04-.17c-1.16-5.35-3.84-11.84-4.34-12.73l-.08-.14-4.31,1.3.1.2Z"/><path class="cls-1" d="m367.03,17.78v-4.49h-7.28v-1.31s.05-1.18.1-1.74c.94-.23,1.47-.64,1.47-1.12,0-.41-.42-.72-1.13-.84-.92-.16-5-.38-5.38-.38h-.21l.02.21c.11,1.16.16,3.58.16,3.6v1.59h-6.58v4.49h6.58v3.34h-5.88v4.43h16.9v-4.43h-6.04v-3.34h7.28Z"/><path class="cls-1" d="m345.96,34.94c.06,0,.18,0,.29-.1.82-.72,3.4-1.46,3.43-1.47h.02s0,8.59,0,8.59h4.43v-1.08h6.25v.65h4.43v-13.07h-15.12v4.51c-2.75-3.43-4.44-7.53-5.25-9.84h3.81v-5.08h-4.1v-5.9s.05-1.14.1-1.85c1-.27,1.36-.78,1.36-1.18,0-.36-.3-.77-1.14-.84-1.77-.21-5.27-.32-5.31-.32h-.22s.02.21.02.21c.11,1.22.16,3.68.16,3.7v6.18h-5.4v5.08h4.86c-.58,2.32-3.03,11.35-7.4,16.68l-.16.19.23.11s3.11,1.4,3.88,2.17c.07.08.17.17.3.17.47,0,2.22-3.31,3.95-9.41-.19,5.01-.37,11.34-.37,14.61v9.58h5.19v-9.42c0-3.6-.21-10.55-.38-16.13l-.05-1.84c.67,2.31,1.7,5.1,2.18,5.1Zm14.43-2.37v4.2h-6.25v-4.2h6.25Z"/></svg>