<?xml version="1.0" encoding="UTF-8"?><svg id="_レイヤー_1" xmlns="http://www.w3.org/2000/svg" viewBox="0 0 660 68.1"><defs><style>.cls-1{fill:#ffc6c6;}</style></defs><path class="cls-1" d="m38.79,12.46h-5.4c-.28,0-.5.22-.5.5v16.23H15.39V12.96c0-.28-.22-.5-.5-.5h-5.4c-.28,0-.5.22-.5.5v38.96c0,.28.22.5.5.5h5.4c.28,0,.5-.22.5-.5v-17.09h17.51v17.09c0,.28.22.5.5.5h5.4c.28,0,.5-.22.5-.5V12.96c0-.28-.22-.5-.5-.5Z"/><rect class="cls-1" x="51.54" y="12.46" width="6.4" height="39.96" rx=".5" ry=".5"/><path class="cls-1" d="m92.19,31.52c3.76-1.7,5.59-4.56,5.59-8.75s-1.9-7.33-5.34-9.08c-1.62-.84-4.02-1.25-7.35-1.25h-14.3c-.28,0-.5.22-.5.5v38.96c0,.28.22.5.5.5h15.38c5.49,0,8.72-1.5,11.16-5.19,1.11-1.72,1.64-3.66,1.64-5.94,0-4.91-2.22-8.11-6.78-9.76Zm-1.02-8.26c0,3.75-2.48,5.65-7.38,5.65h-7.27v-11.03h7.92c4.65,0,6.73,1.66,6.73,5.38Zm-14.65,23.78v-12.49h9c4.12,0,6.89,2.51,6.89,6.25s-2.75,6.24-7,6.24h-8.89Z"/><path class="cls-1" d="m124.49,11.43c-11.63,0-18.57,7.97-18.57,21.32s6.42,20.57,18.09,20.57,18.52-7.75,18.52-21.27-6.58-20.62-18.04-20.62Zm11.32,20.3c0,3.38-.47,8.15-2.73,11.71-1.8,2.81-4.9,4.3-8.97,4.3-3.67,0-6.44-1.15-8.24-3.43-2.86-3.59-3.29-9.02-3.29-11.94,0-10.08,4.1-15.41,11.86-15.41s11.37,4.97,11.37,14.77Z"/><polygon class="cls-1" points="170.43 13.84 166.16 13.84 166.16 30.57 149.81 30.57 149.81 34.63 166.16 34.63 166.16 51.35 170.43 51.35 170.43 34.63 186.78 34.63 186.78 30.57 170.43 30.57 170.43 13.84"/><path class="cls-1" d="m221.76,49.51c-.03-.23-.11-.85-.11-1.59,0-1.22.11-2.61.11-2.63l.02-.28-.27.08c-2.14.66-5.68,1.45-9.73,2.17v-4.32h9.12v-4.81h-9.12v-5.6h3.93v2h4.65V9.69h-21.81v25.31h4.65v-2.48h3.71v5.6h-8.8v4.81h8.8v5.15c-4.02.6-7.78,1-10.34,1.11h-.24s.06.25.06.25c.01.04,1.04,3.7,1.85,5.65.26.52.59.81.93.81.39,0,.8-.39.84-1.48,6.91-1.11,17.46-3.22,21.4-4.41.22-.08.34-.24.34-.48Zm-14.74-26.38v4.96h-3.82v-4.96h3.82Zm0-9.01v4.58h-3.82v-4.58h3.82Zm8.69,9.01v4.96h-3.99v-4.96h3.99Zm-3.99-4.43v-4.58h3.99v4.58h-3.99Z"/><path class="cls-1" d="m243.1,26.17c-.11-.08-.25-.08-.32-.08-.21,0-.38.11-.55.2-.14.09-.28.17-.42.17h-5.34l1.56-1.47-.12-.14c-.57-.67-1.33-1.34-2.13-2.04,2.96-3.09,6.15-7.22,7.44-8.94.63-.16,1.32-.35,1.32-.87,0-.75-3.43-3.21-3.86-3.21-.26,0-.47.14-.64.24-.1.07-.21.14-.28.14h-17.46v4.76h13.74c-.63.85-2.22,2.87-4.12,4.79-1.86-1.37-3.65-2.59-4.57-3.2l-.12-.08-3.64,3.17.67.48c1.86,1.33,5.25,3.74,8.01,6.38h-10.83v4.7h7.72v17.07c0,2.07-.93,2.88-3.31,2.88-1.26,0-2.87-.23-4.91-.53l-.89-.13.31.39s2.95,3.66,3.54,5.53c.06.12.2.27.5.27h1.29c4.24,0,9.09-.87,9.09-7.69v-.22s-.11-4.87-.11-5.88v-11.67h4.96c-.4.93-1.85,4.12-4.23,7.13l-.21.27.34.05s3.49.48,4.69,1.11l.19.02c.12,0,.27-.08.38-.19,2.3-3.44,4.24-9.05,4.52-9.87.35-.1,1.02-.4,1.02-.92,0-.67-2.71-2.34-3.22-2.59Z"/><path class="cls-1" d="m252.3,56.1h5.62v-3.56h29.88v3.4h5.68V12.98h-41.18v43.12Zm22.99-26.55v-11.32h12.45v11.32h-12.45Zm12.5,17.64h-12.5v-12.46h12.45l.05,12.46Zm-18.29-12.46v12.46h-11.59v-12.46h11.59Zm0-16.51v11.32h-11.59v-11.32h11.59Z"/><path class="cls-1" d="m308.44,17.58l-4.41,1.34-.24.08.14.22s2.31,3.64,3.38,7.98l.05.22,4.69-1.82-.05-.17c-1.18-4.03-3.45-7.68-3.47-7.71l-.08-.12Z"/><path class="cls-1" d="m350.88,40.16c-1.34-1.02-4.58-2.85-4.72-2.93l-.17-.1-.09.18c-.06.12-6.38,11.78-23.33,15.01l-.5.09.44.26s4.4,2.64,5.37,3.92c.08.16.25.27.44.27.98,0,12.68-3.42,21.39-14.81.35.09.65.13.95.13.71,0,1.16-.29,1.16-.73,0-.39-.32-.82-.94-1.29Z"/><path class="cls-1" d="m328.54,14.34c.37,0,.62-.25.62-.62,0-1-3.59-4.85-3.62-4.89l-.1-.09-.12.06c-2.62,1.34-11.95,2.84-20.52,2.84-1.02,0-1.99,0-3.01-.06l-.46-.03.3.35s2.62,3.01,3.04,4.36c.1.29.39.29.56.29h0c8.77-.33,17.02-1.68,21.85-2.85.43.3,1,.64,1.45.64Z"/><path class="cls-1" d="m325.19,48.22c.06,0,.19,0,.29-.1,1.26-1.15,4.82-2.7,4.86-2.71l.37-.16-.35-.19c-5.51-2.96-8.83-7.18-10.41-9.61.87.02,1.83.04,2.78.06,1.56.03,3.07.06,4.1.09.59.28,4.26,2.36,5.04,3.4.08.08.23.16.35.16.06,0,8.9-3.13,16.43-12.61h0c.27.05.53.09.83.09.73,0,1.16-.27,1.16-.73,0-.37-.32-.79-.99-1.29-1.13-.86-4.15-2.64-4.28-2.71l-.16-.09-.1.16c-.24.37-5.95,9.11-16.85,12.73v-4.19h-9.06v-.34s0-1.03.09-1.9c.94-.28,1.47-.69,1.47-1.12,0-.19-.09-.39-.3-.55.9.12,2.65.39,3.46.76.1.08.21.08.27.08.54,0,2.31-3.81,3.59-6.79l.05.02s4.24,2.21,5.24,3.42c.11.11.23.11.35.11.07,0,.21,0,.32-.08,6.59-3.09,11.67-8.32,14.16-11.23h.04c.27.05.51.09.75.09,1.1,0,1.22-.51,1.22-.73,0-.35-.29-.7-1-1.24-1.13-.81-4.2-2.58-4.33-2.65l-.15-.09-.1.15c-.24.34-6.04,8.49-16.39,11.88.44-1.03.81-1.94,1.03-2.51h.14c1.39,0,1.54-.55,1.54-.79,0-.37-.33-.7-.88-.88-1.34-.49-5.05-1.33-5.2-1.36l-.19-.04-.05.19c-1.17,4.84-3.19,9.13-4.56,11.33l-.06.09c-.06,0-.12-.02-.19-.02-1.82-.16-5.27-.27-5.3-.27h-.22s.02.21.02.21c.16,1.91.16,3.37.16,3.38v.89h-11.17v5.09h.2s5.62-.1,9.7-.16c-1.61,3-5.75,9.7-12.46,13.72l-.35.21.38.14s4.02,1.46,5.13,2.51c.07.06.15.14.28.14.44,0,5.06-4.07,8.44-10.8-.14,2.93-.27,6.61-.27,8.99v6.56h5.24v-6.35c0-1.56-.17-5.9-.34-9.73,2.49,4.21,5.83,7.38,6.25,7.38Z"/><path class="cls-1" d="m317.03,16.46l-4.77.94.14.23s1.93,3.31,2.57,7.81l.03.22,4.74-1.24.18-.05-.03-.18c-.81-4.19-2.76-7.58-2.78-7.61l-.07-.12Z"/><path class="cls-1" d="m401.32,51.13c-5.19,0-9.99-.59-14.25-1.76,3.39-2.15,5.83-4.35,7.77-6.23.74-.16,1.34-.34,1.34-.83,0-.73-3.16-3.16-3.38-3.16s-.39.1-.55.19c-.13.07-.25.14-.37.14l-11.93.05c.9-.75,1.7-1.47,2.42-2.11l.35-.31h9.45v1.19h5.13v-22.24h-15.85c.49-.73.93-1.48,1.31-2.15h21.93v-4.81h-47.87v4.81h20.16c-.36.69-.78,1.42-1.25,2.15h-10.88v22.56h5.13v-1.51h5.66c-3.71,2.86-10.81,7.54-19.38,9.28l-.46.09.39.26s3.65,2.42,4.44,3.58c.06.06.16.17.36.17.4,0,5.51-1.86,10.8-5.17.69.85,2.07,2.36,4.27,4-6.1,2.13-12.89,3.21-20.2,3.21h-.95l.4.34s3.49,3.01,4.17,4.27c.16.24.4.25.63.25h.02c8-.48,15.16-2.16,21.3-5,5.54,2.53,12.33,3.88,20.18,4.02.23,0,.48,0,.66-.27.84-1.62,4.03-4.83,4.06-4.86l.36-.36-.51.03c-1.72.11-3.32.16-4.9.16Zm-31.32-23.58v-1.98h22.17v1.98h-22.17Zm0-5.61v-1.93h22.17v1.93h-22.17Zm22.17,9.18v2.1h-22.17v-2.1h22.17Zm-4.96,12.25c-1.09.93-3.09,2.3-5.86,3.74-2.51-1.34-4.11-2.7-5.06-3.69l10.92-.05Z"/></svg>