<?xml version="1.0" encoding="UTF-8"?><svg id="_レイヤー_1" xmlns="http://www.w3.org/2000/svg" viewBox="0 0 660 582.91"><defs><style>.cls-1{fill:#ffc6c6;}</style></defs><path class="cls-1" d="m4.82,275.48c-.09.09-.14.21-.14.33v5.89c0,.26.21.46.47.46h28.48c.26,0,.47-.21.47-.46v-5.11c0-.26-.21-.46-.47-.46H13.49c6.84-6.55,8.45-8.16,11.21-10.99,7.75-7.94,9.26-11.88,9.26-15.99,0-8.35-5.48-13.54-14.32-13.54s-14.32,5.31-14.32,13.54c0,.26.21.46.47.46h6.8c.26,0,.47-.21.47-.46,0-4.89,2.3-7.37,6.85-7.37,4.21,0,6.72,2.56,6.72,6.85,0,3.95-2.73,8.1-10.09,15.33l-11.71,11.52Z"/><path class="cls-1" d="m69.77,278.14c3.33-4.05,5.02-10.41,5.02-18.9,0-15.5-5.35-23.7-15.48-23.7s-15.48,8.42-15.48,24.34c0,20.17,9.58,23.18,15.29,23.18,3.01,0,7.31-.86,10.66-4.93Zm-2.19-18.83c0,11.59-2.8,17.46-8.33,17.46s-8.27-5.65-8.27-17.27c0-4.41,0-17.85,8.34-17.85,5.8,0,8.27,5.28,8.27,17.66Z"/><path class="cls-1" d="m2.92,317.27v6.47c0,.16.08.31.21.39.12.09.3.11.46.03,3.71-1.77,7.24-3.91,9.75-5.91v36.75c0,.26.21.46.47.46h6.21c.26,0,.47-.21.47-.46v-44.79c0-.26-.21-.46-.47-.46h-5.76c-.1,0-.21.03-.29.1-3.38,2.69-7.01,5.05-10.79,7-.16.08-.25.24-.25.41Z"/><path class="cls-1" d="m49.52,355.01v-44.79c0-.26-.21-.46-.47-.46h-5.76c-.1,0-.21.03-.29.1-3.38,2.69-7.01,5.05-10.79,7-.16.08-.25.24-.25.41v6.47c0,.16.08.31.21.39.13.09.3.1.45.03,3.72-1.77,7.25-3.91,9.75-5.9v36.75c0,.26.21.46.47.46h6.21c.26,0,.47-.21.47-.46Z"/><path class="cls-1" d="m62.28,346.36h7.31c.26,0,.47.21.47.47v7.18c0,.26-.21.46-.46.46h-7.31c-.26,0-.47-.21-.47-.47v-7.18c0-.26.21-.46.46-.46Z"/><path class="cls-1" d="m62.28,320.54h7.32c.26,0,.46.21.46.46v7.19c0,.26-.21.46-.46.46h-7.31c-.26,0-.47-.21-.47-.47v-7.18c0-.26.21-.46.46-.46Z"/><path class="cls-1" d="m95.32,357.68c10.54,0,16.58-9.11,16.58-25s-6.04-25.12-16.58-25.12-16.71,9.16-16.71,25.12c0,21.75,10.47,25,16.71,25Zm9.38-25c0,11.69-3.59,18.95-9.38,18.95s-9.5-6.91-9.5-18.95,3.46-19.41,9.5-19.41,9.38,7.44,9.38,19.41Z"/><path class="cls-1" d="m135.92,357.68c10.54,0,16.58-9.11,16.58-25s-6.04-25.12-16.58-25.12-16.71,9.16-16.71,25.12c0,21.75,10.47,25,16.71,25Zm9.38-25c0,11.69-3.59,18.95-9.38,18.95s-9.5-6.91-9.5-18.95,3.46-19.41,9.5-19.41,9.38,7.44,9.38,19.41Z"/><path class="cls-1" d="m162.67,334.62h59.41c.26,0,.46.21.46.46v4.29c0,.26-.21.47-.47.47h-59.41c-.26,0-.46-.21-.46-.46v-4.29c0-.26.21-.47.47-.47Z"/><path class="cls-1" d="m4.53,432.63c.43,0,1.16-.25,1.16-1.92v-.08c7.17-1.33,12.94-2.87,16.61-3.96v7.19c0,.26.21.46.47.46h3.91c.26,0,.47-.21.47-.46v-2.32l3.82,2.59c.12.08.28.1.43.04,3.56-1.45,6.8-3.48,9.63-6.05,2.78,2.33,6.01,4.19,9.62,5.53.15.05.32.02.45-.08l4.66-3.78c.14-.11.2-.29.16-.48-.05-.17-.19-.31-.36-.34-4.45-.9-8.21-2.4-11.19-4.47,3.73-4.68,5.17-9.24,5.65-11.13,1.23-.16,1.49-.67,1.49-1.07,0-1.03-3.55-3.2-3.96-3.2-.32,0-.52.19-.66.32-.03.03-.09.09-.09.09h-17.6c-.26,0-.47.21-.47.46v3.49c0,.26.21.46.47.46h2.62c1.23,4.11,3.18,7.76,5.8,10.84-2.74,2.22-6.26,4.06-10.47,5.49v-23.5h26.4c.26,0,.47-.21.47-.47v-3.67c0-.26-.21-.46-.47-.46H2.14c-.26,0-.47.21-.47.46v3.67c0,.26.21.47.47.47h6.24v18.55c-2,.36-4.23.69-6.64.97-.15.02-.27.1-.34.21-.08.12-.09.27-.04.41.01.03,1.22,3.39,2.06,4.95.24.47.68.78,1.12.78Zm40.03-18.7c-.66,2-1.56,4.69-3.69,7.44-1.84-2.1-3.23-4.6-4.13-7.44h7.82Zm-31.41,2.34v-2.75h9.15v2.75h-9.15Zm0-6.76v-2.74h9.15v2.74h-9.15Zm9.15,10.78v1.88c-2.05.66-5.44,1.5-9.15,2.27v-4.15h9.15Z"/><path class="cls-1" d="m40.72,401.16h4.08c.26,0,.47-.21.47-.46v-16.9c0-.26-.21-.46-.47-.46H10.83c-.26,0-.47.21-.47.46v17.08c0,.26.21.47.47.47h4.08c.26,0,.47-.21.47-.47v-1.05h24.88v.88c0,.26.21.46.47.46Zm-.52-7.52v2.04H15.37v-2.04h24.83Zm-24.83-4.07v-2.1h24.83v2.1H15.37Z"/><path class="cls-1" d="m104.88,422.55c.14,0,.27-.06.35-.17l3.03-3.79c.16-.2.13-.49-.07-.66-3-2.42-8.07-5.32-11.55-6.6-.19-.07-.38-.02-.5.12l-2.75,2.97c-.1.11-.14.27-.11.4.03.15.13.27.27.34,4.73,2.1,8.42,4.53,10.98,7.24.09.09.2.13.35.15Z"/><path class="cls-1" d="m91.28,421.78l-2.85,3.26c-.11.12-.14.28-.1.43.04.15.15.27.3.32,8.74,2.91,14.72,5.72,18.81,8.85.08.06.18.09.28.09h.06c.12-.02.24-.09.3-.18l3.15-4.14c.08-.11.11-.24.08-.36-.02-.13-.1-.25-.22-.32-3.5-2.09-12.07-6.11-19.34-8.09-.16-.06-.36,0-.48.14Zm16.43,12.76h0Z"/><path class="cls-1" d="m82.46,413.72c-.08-.24-.31-.36-.57-.3l-3.49.99c-.12.04-.23.12-.29.24-.06.12-.06.25,0,.41.44,1.19,2.66,7.47,3.81,13.75.03.13.12.26.23.32.07.04.14.06.23.06.05,0,.11,0,.18-.03l3.67-1.51c.21-.09.33-.31.28-.53-.53-2.36-1.64-6.54-3.92-13.06l-.12-.33Z"/><path class="cls-1" d="m112.55,389.51c0-.59-2.75-3.14-3.38-3.14-.34,0-.59.17-.76.28-.03.02-.07.05-.1.07h-9.82c.2-.41.39-.79.56-1.15.16-.33.31-.64.45-.93,1.67-.23,1.85-.94,1.85-1.25,0-.58-.51-1.07-1.46-1.39-.96-.24-3.85-.88-3.87-.88-.22-.04-.45.08-.53.31-.46,1.22-4.68,12.11-11.69,18.03-.13.11-.19.29-.16.45.03.17.16.3.32.35l4.37,1.34c.18.05.37,0,.48-.13,1.62-1.8,3.17-3.81,4.73-6.13.69,1.68,1.95,4.15,4.1,7.01-4.97,5.13-10.51,8.54-15.62,9.6-.17.03-.31.17-.35.35h-.03s.03.03.03.03c-.03.18.03.36.18.46l4.37,3.09c.08.06.17.09.27.09.05,0,.1,0,.16-.02,4.79-1.67,9.56-5.02,14.19-9.97,3.26,3.25,7.11,5.91,11.45,7.91.16.07.33.05.48-.06l4.6-3.67c.14-.11.2-.29.16-.47-.04-.17-.18-.31-.35-.35-5.04-1.17-9.49-3.55-13.23-7.05,2.93-3.72,5.58-7.96,7.29-11.65.78-.29,1.29-.6,1.29-1.13Zm-7.07,1.57c-1.11,2.42-2.75,5.08-4.76,7.7-1.82-2.33-3.31-4.91-4.46-7.7h9.22Z"/><path class="cls-1" d="m66.43,432.04h.09c.19.01.36-.11.44-.29,1.66-4.38,3.04-9.41,3.99-14.57,1.19-.26,1.52-.8,1.61-1.16l-.09,18.13c0,.12.05.24.14.33.09.09.21.13.33.13h4.14c.12,0,.24-.05.33-.14.09-.09.13-.2.13-.33l-.05-24.61c.59-.1,1.15-.19,1.69-.28l1.18-.2c.55-.09,1.05-.18,1.51-.26.24.8.48,1.62.63,2.42.03.14.12.26.24.32.12.06.26.07.41.01l3.49-1.57c.21-.09.32-.31.27-.53-.61-2.66-2.1-6.41-4.42-11.13l-.13-.28c-.04-.08-.06-.13-.08-.16-.05-.12-.15-.21-.27-.26-.11-.04-.23-.03-.32,0l-3.26,1.22c-.13.05-.23.15-.27.27-.05.12-.04.27.03.39.74,1.33,1.59,3.16,2.33,5.06-2.15.35-4.75.69-7.24.96,3.76-4.87,7.91-10.9,9.49-13.2l.52-.76c.17.02.33.02.48.02,1.16,0,1.58-.59,1.58-1.1s-.36-.99-.91-1.27c-.76-.49-3.8-2.34-4.18-2.53-.12-.05-.25-.06-.37-.02-.12.05-.22.14-.27.26-.66,1.64-3.03,5.88-6.15,10.56-.71-.76-1.49-1.58-2.35-2.44,2.22-2.92,5.24-8.11,6.02-9.55.26.06.52.09.76.09,1.39,0,1.46-.82,1.46-.99,0-.44-.31-.76-.91-1.21-.22-.14-1.47-.85-3.06-1.74-.65-.36-1.17-.66-1.26-.71-.11-.07-.23-.08-.38-.05-.13.04-.23.13-.28.25l-.1.23c-2.05,4.73-4.03,8.48-5.6,10.59-.55-.47-1.14-.91-1.7-1.33-.11-.08-.26-.1-.35-.08-.12.02-.23.08-.31.19l-2.1,2.97c-.14.21-.1.49.1.64,3.56,2.66,6.25,5.78,7.33,7.1-1.14,1.61-2.36,3.19-3.54,4.59l-1.32.05c-.97.04-1.95.07-2.9.12-.14,0-.28.07-.36.19-.09.11-.11.26-.08.39,1.39,5.53,1.96,5.94,2.67,5.94.64,0,1.1-.63,1.29-1.73,1.26-.16,2.5-.33,3.73-.49l.52-.07c.63-.09,1.25-.17,1.86-.25l-.03,5.33c-.14-.63-1-1.01-5.4-1.89-.12-.03-.26,0-.38.09-.1.08-.17.2-.19.34-.14,1.53-1.05,9.53-4.78,16.52-.07.13-.08.29,0,.43.07.13.19.22.34.25l4.3.76Z"/><path class="cls-1" d="m127.53,385.31v48.55c0,.26.21.46.47.46h4.66c.26,0,.47-.21.47-.46v-4.31h23.2v3.91c0,.26.21.46.47.46h4.72c.26,0,.47-.21.47-.46v-48.14c0-.26-.21-.46-.47-.46h-33.51c-.26,0-.47.21-.47.46Zm5.59,18.3v-13.35h23.2v13.35h-23.2Zm0,20.46v-14.98h23.2v14.98h-23.2Z"/><path class="cls-1" d="m187.98,421.97c0,4.17,5.02,7.69,10.95,7.69,4.83,0,9.93-2.55,10.6-8.23,2.5,1.36,5.59,3.28,7.92,6.19.08.1.2.16.33.17.15.03.26-.03.35-.12l3.85-3.61c.09-.09.15-.21.15-.34s-.05-.25-.15-.34c-3.5-3.25-9.02-5.91-12.75-7.22l-.05-.93c-.23-4.13-.51-9.27-.57-15.23,2.63-.41,5.61-.94,9.12-1.63.22-.04.38-.24.37-.48l-.17-4.38c0-.12-.08-.24-.21-.34-.11-.08-.29-.11-.41-.08-2.88.64-5.85,1.3-8.69,1.81,0-.31.02-.63.02-.95l.02-.6c.02-.72.03-1.46.06-2.21,0-.65.1-2.2.2-3.42,1.18-.35,1.78-.84,1.78-1.47,0-.73-.82-1.21-2.19-1.28l-4.63-.29c-.14-.03-.27.01-.38.12-.1.09-.15.22-.14.35.12,2.91.12,5.45.12,8.14v2.46c-3.39.52-5.61.58-6.41.58-2.36,0-4.95-.42-8.14-1.32-.05-.02-.1-.02-.13-.02h-.12c-.43,0-.7.27-.7.7,0,.11,0,.23.08.37l1.1,4.22c.04.17.17.3.34.34,2.02.52,4,.77,6.06.77,1.83,0,4.52-.23,8-.69.12,5.97.4,11.42.54,14.2-1.56-.19-2.89-.28-4.05-.28-8.29,0-12.06,3.81-12.06,7.34Zm10.9,2.63c-2.98,0-5.6-1.25-5.6-2.68,0-1.54,2.84-2.74,6.47-2.74,1.49,0,3.13.23,4.64.64-.29,2.96-2.39,4.79-5.51,4.79Z"/><path class="cls-1" d="m179.84,412.06c.04-.57.08-1.11.1-1.59.55-6.9,2.14-13.85,3.18-18.45.25-1.1.47-2.07.64-2.87,1.31-.08,2.12-.58,2.12-1.33,0-.37-.22-.89-1.26-1.26-1.94-.59-5.09-1.23-5.2-1.24h-.12c-.44,0-.75.27-.87.77-.2,2.34-.69,5.1-1.25,8.3l-.02.09c-.87,4.94-1.96,11.08-2.35,18.01-.06.72-.06,1.5-.06,2.25,0,5.22.98,11.95,3.17,15.24.09.13.23.2.39.2.03,0,.06,0,.1-.01l3.73-.81c.23-.05.4-.28.36-.52-.11-.78-.17-1.58-.17-2.38,0-2.39.42-6.59,4.04-15.49.05-.12.05-.25,0-.36-.59-1.41-1.44-3.27-1.9-4.26l-.04-.08c-.08-.16-.24-.27-.41-.27,0,0-.01,0-.02,0l-.02-.04-.02.06c-.17.01-.33.12-.39.29-1.89,5.18-3.17,8.59-3.83,10.16-.02-.35-.05-.82-.05-1.44,0-.99.07-1.97.13-2.91v-.06Z"/><path class="cls-1" d="m16.6,502.68h6.99c.2,0,.39-.14.45-.33l11.13-38.34,10.37,38.33c.05.2.24.35.45.35h7.18c.21,0,.39-.13.45-.33l13.85-46.74c.04-.14,0-.3-.08-.41-.09-.12-.23-.19-.37-.19h-6.34c-.21,0-.4.14-.45.34l-10.17,37.12-10.1-37.12c-.05-.2-.24-.34-.45-.34h-8.03c-.2,0-.39.14-.45.34l-10.66,36.83-9.67-36.81c-.05-.2-.23-.35-.45-.35H3.33c-.15,0-.29.07-.37.18-.09.12-.12.27-.08.41l13.27,46.73c.06.2.24.34.45.34Z"/><path class="cls-1" d="m81.43,455.55c0-.26-.21-.46-.47-.46h-6.15c-.26,0-.47.21-.47.46v46.67c0,.26.21.46.47.46h6.15c.26,0,.47-.21.47-.46v-18.19c0-4.43.74-5.63,1.96-7.08,1.36-1.65,3.76-2.68,6.25-2.68,4.51,0,6.52,2.55,6.52,8.27v19.68c0,.26.21.46.47.46h6.21c.26,0,.47-.21.47-.46v-21.42c0-4.37-.79-6.94-2.73-8.87-2.03-2.03-5.42-3.24-9.06-3.24-4.18,0-7.82,1.58-10.09,4.37v-17.49Z"/><path class="cls-1" d="m111.88,455.15h7.32c.26,0,.46.21.46.46v6.66c0,.26-.21.47-.47.47h-7.32c-.26,0-.46-.21-.46-.46v-6.66c0-.26.21-.47.47-.47Z"/><path class="cls-1" d="m112.54,469.26h6.08c.26,0,.46.21.46.46v32.49c0,.26-.21.47-.47.47h-6.08c-.26,0-.46-.21-.46-.46v-32.49c0-.26.21-.47.47-.47Z"/><path class="cls-1" d="m145.4,474.52c.26,0,.47-.21.47-.46v-4.46c0-.26-.21-.46-.47-.46h-6.78v-8.28c0-.15-.07-.29-.19-.37-.11-.09-.27-.12-.42-.07l-6.02,1.94c-.19.06-.32.24-.32.44v6.33h-5.3c-.26,0-.47.21-.47.46v4.46c0,.26.21.46.47.46h5.3v21.41c0,5.11,2.53,7.2,8.75,7.2,2.62,0,4.54-.3,5.06-.4.23-.04.39-.23.39-.46v-4.73c0-.15-.07-.28-.19-.37-.12-.09-.27-.12-.39-.08-.8.2-1.79.31-2.8.31-2.75,0-3.87-1.01-3.87-3.49v-19.41h6.78Z"/><path class="cls-1" d="m151.67,486.29c0,11.35,5.37,17.35,15.55,17.35,8.3,0,13.97-4.54,14.45-11.57,0-.13-.04-.26-.12-.34-.09-.1-.21-.15-.34-.15h-6.09c-.24,0-.44.18-.46.41-.42,4.02-3.03,6.32-7.17,6.32-5.63,0-8.86-3.91-8.86-10.73v-.05h22.9c.26,0,.47-.21.47-.46v-2.59c0-10.51-5.02-16.06-14.51-16.06-5.9,0-15.81,2.32-15.81,17.87Zm23.17-3.96h-15.96c.19-5.18,3.54-8.65,8.4-8.65s7.56,2.99,7.56,8.65Z"/><path class="cls-1" d="m124.84,37.88h5.63c.26,0,.47-.21.47-.46v-14.23l27.37-.06c-1.29,12.25-7.51,27.37-29.64,30.33-.18.03-.31.16-.36.32h-.07s.06.06.06.06c-.03.17.01.35.16.46.15.12,2.87,2.49,5.47,4.77.08.07.19.11.31.11.03,0,.07,0,.1,0,18.21-4.13,28.14-15.8,31.25-36.73.75-.25,1.47-.61,1.47-1.4,0-1.14-4.27-4.09-5.51-4.09-.36,0-.61.14-.82.26-.19.11-.34.19-.6.19h-12.35v-3.15c.02-.69.04-1.39.05-2.04v-.24c.02-.75.03-1.42.06-1.94,1.05-.25,1.83-.96,1.83-1.68,0-1.05-.57-1.69-8.49-1.69-.13,0-.25.05-.34.15s-.13.23-.12.36c.19,2.13.19,5.51.19,5.65v4.59h-16.1c-.26,0-.47.21-.47.46v19.55c0,.26.21.46.47.46Z"/><path class="cls-1" d="m193.19,29.44c.08.12.2.2.37.22h.03c.13,0,.25-.05.34-.15l4.4-4.79c.15-.16.16-.4.04-.58-2.89-4.06-9.2-8.97-14.7-11.42-.16-.06-.37-.03-.49.08l-3.82,3.43c-.11.1-.17.25-.15.4.01.15.1.29.24.36,4.52,2.47,10.51,7.04,13.74,12.45Z"/><path class="cls-1" d="m179.46,50.17c0,.24.11.48.22.59.41.61,4.89,6.22,6.14,6.22.85,0,1.22-.98,1.43-1.78,14.33-4.33,27.9-13.86,39.26-27.58.1-.12.13-.3.08-.45l-2.33-6.66c-.06-.16-.21-.28-.39-.31-.21-.01-.36.1-.43.19-8.58,12.3-24.41,26.37-43.14,29-.77.15-.83.63-.83.78Z"/><path class="cls-1" d="m271.83,17.09c.09.1.21.15.34.15.15,0,.27-.06.37-.18l2.85-3.75c.15-.19.12-.47-.06-.63-2.46-2.2-7.37-4.73-9.45-5.58-.18-.08-.41-.02-.54.13l-2.72,3.3c-.1.12-.13.27-.09.42s.15.27.29.32c2.89,1.03,7.65,4.37,9,5.83Z"/><path class="cls-1" d="m243.24,58.91c0,.26.21.46.47.46h5.57c.26,0,.47-.21.47-.46v-28.85c4.92,1.78,11.98,4.82,18.23,9.3.21.14.5.1.65-.1l4.08-5.57c.08-.1.1-.24.08-.37-.03-.13-.11-.25-.22-.31-5.59-3.24-15.89-7.28-22.81-9.45v-8.07c0-.09,0-2.1.11-4.07,1.54-.31,2.09-1.07,2.09-1.69,0-.67-.67-1.21-1.7-1.37-.67-.08-2.61-.18-4.32-.27l-.46-.02c-.86-.04-1.6-.08-1.86-.1-.14,0-.26.05-.35.14-.1.1-.15.23-.13.37.13,1.4.13,3.42.13,4.75v45.69Z"/><path class="cls-1" d="m266.26,22.9c.09.1.22.16.35.16h0c.13,0,.27-.06.36-.17l2.98-3.69c.15-.19.13-.46-.04-.62-2.72-2.64-7.86-5.27-9.45-5.98-.18-.09-.41-.04-.54.11l-2.79,3.17c-.1.11-.13.27-.1.41.03.15.14.27.28.33,2.9,1.19,7.16,4.18,8.95,6.28Z"/><path class="cls-1" d="m291.02,56.64c.08.05.17.08.27.08.06,0,.13-.01.19-.04,8.31-3.64,15.72-9.38,22.01-17.05,5.12,4.19,12.15,10.8,16.71,16.9.07.1.19.17.31.19h.06c.1,0,.2-.03.29-.09l5.11-3.95c.11-.08.17-.2.18-.33.01-.13-.03-.25-.11-.35-5.14-5.8-13.57-13.05-18.99-17.01,3.87-5.45,6.77-10.85,9.32-15.88.67-.2,1.69-.54,1.69-1.36,0-.75-.59-1.21-4.28-3.74-.24-.17-.45-.28-.72-.28-.29,0-.51.12-.72.23-.17.09-.31.16-.51.16l-27.89.19c-.26,0-.47.21-.47.46v4.92c0,.12.05.24.14.34.09.09.21.13.33.13l24.63-.12c-5.18,10.85-13.63,24.18-32.95,31.85-.16.06-.27.21-.3.38-.02.17.05.34.19.44l5.51,3.95Z"/><path class="cls-1" d="m345.47,35.6c.07.15.19.27.31.27h0c.18.04,2.44.87,5.76,2.11.15.06.33.03.47-.08,3.57-3.12,7.01-7.8,9.95-13.54h13.81c-1.98,15.93-9.64,25.35-23.4,28.79-.18.04-.32.19-.35.37h0s0,0,0,0c-.03.18.04.36.19.46l6.09,4.21c.08.05.17.08.27.08.05,0,.11,0,.15-.02,13.16-4.46,21.93-16.81,24.08-33.89h14.15c.26,0,.47-.21.47-.46v-4.92c0-.26-.21-.46-.47-.46h-32.32c1.06-2.68,1.84-4.96,2.45-7.12,1.49-.14,2.44-.74,2.44-1.54,0-.38-.23-1.08-1.78-1.49-.94-.23-2.88-.64-5.62-1.2l-.17-.03c-.25-.03-.48.13-.53.36-1.36,6.48-5.23,18.68-15.83,27.57-.14.12-.18.3-.14.45l-.12.09h.15Z"/><path class="cls-1" d="m407.87,29.64h49.39c.26,0,.46.21.46.46v5.44c0,.26-.21.46-.46.46h-49.39c-.26,0-.47-.21-.47-.47v-5.43c0-.26.21-.47.47-.47Z"/><path class="cls-1" d="m469.8,18.79l33.58-.19c-4.08,16.58-15.22,27.88-32.21,32.67-.17.05-.3.19-.33.36-.04.17.03.35.17.46l6.28,4.79c.08.06.18.09.28.09.06,0,.13-.01.19-.04,12.78-5.65,26.7-14.72,33.14-39.09.82.33,1.76.49,2.79.49,4.33,0,7.85-3.55,7.85-7.91s-3.52-7.85-7.85-7.85-7.91,3.52-7.91,7.85c0,.62.07,1.22.23,1.85-.07,0-.14.02-.22.02l-35.99.13c-.26,0-.47.21-.47.46v5.44c0,.12.05.24.14.33.09.09.21.13.33.13Zm40.72-8.36c0-1.71,1.42-3.09,3.16-3.09s3.1,1.42,3.1,3.09-1.39,3.16-3.1,3.16-3.16-1.42-3.16-3.16Z"/><path class="cls-1" d="m89.62,129.49h6.15c.26,0,.47-.21.47-.46v-17.54c0-6.3,2.61-9.12,8.47-9.12,1.33,0,2.11.09,2.69.3.15.05.3.03.42-.05.13-.09.2-.23.2-.38v-5.95c0-.24-.18-.44-.42-.46-.67-.07-1.19-.07-1.8-.07-4.64,0-8.08,1.67-9.8,4.73l-.02-.75c-.02-.9-.05-1.97-.07-3.2,0-.25-.21-.45-.47-.45h-6.15c-.13,0-.25.05-.35.15-.09.1-.13.23-.12.35.19,2.24.32,5.52.32,6.11v26.34c0,.26.21.46.47.46Z"/><path class="cls-1" d="m114.84,129.03c0,.26.21.46.47.46h6.15c.26,0,.47-.21.47-.46v-17.54c0-6.3,2.61-9.12,8.47-9.12,1.33,0,2.11.09,2.69.3.15.05.3.03.43-.05.13-.09.2-.23.2-.38v-5.95c0-.24-.18-.44-.42-.46-.67-.07-1.19-.07-1.8-.07-4.64,0-8.08,1.67-9.8,4.73l-.02-.75c-.02-.9-.05-1.97-.07-3.2,0-.25-.21-.45-.47-.45h-6.15c-.13,0-.25.05-.35.15-.09.1-.13.23-.12.35.19,2.24.32,5.52.32,6.11v26.34Z"/><path class="cls-1" d="m153.63,95.23c-10.63,0-16.97,6.71-16.97,17.94s6.3,17.42,16.45,17.42,16.91-6.99,16.91-17.81-6.13-17.55-16.39-17.55Zm8.99,17.29c0,7.78-3.62,12.61-9.44,12.61s-9.24-4.78-9.24-12.48,3.81-12.03,9.69-12.03,8.99,4.45,8.99,11.9Z"/><path class="cls-1" d="m189.54,129.81c4.7,0,7.79-1.44,9.92-4.66,0,.33.02.7.03,1.1l.02.91c.01.57.03,1.19.05,1.88,0,.25.21.45.47.45h6.34c.12,0,.24-.05.34-.14.09-.09.13-.22.13-.34-.13-2.88-.19-4.87-.19-5.94v-26.53c0-.26-.21-.46-.47-.46h-6.28c-.26,0-.47.21-.47.46v19.55c0,4.91-3.35,8.08-8.53,8.08-4.41,0-6.46-2.07-6.46-6.53v-21.1c0-.26-.21-.46-.47-.46h-6.21c-.26,0-.47.21-.47.46v21.68c0,7.37,4.46,11.6,12.25,11.6Z"/><path class="cls-1" d="m224.86,96.52c0-.25-.22-.45-.47-.45h-6.08c-.12,0-.25.05-.34.14-.08.09-.13.21-.13.34.06,1.87.06,3.18.06,3.74v28.74c0,.26.21.46.47.46h6.09c.26,0,.47-.21.47-.46v-18.9c0-5.33,3.29-9.05,8.01-9.05,3.25,0,7.05,1.74,7.05,6.65v21.29c0,.26.21.46.47.46h6.21c.26,0,.47-.21.47-.46v-22.14c0-8.46-6.59-11.47-12.24-11.47-4.46,0-7.81,1.57-9.96,4.67,0-1.1-.03-2.3-.06-3.58Z"/><path class="cls-1" d="m255.03,113.17c0,12.53,7.82,16.97,14.51,16.97,3.47,0,7.95-1.24,10.45-4.69l.02.62c.04,1.33.07,2.34.07,2.95,0,.26.21.47.47.47h6.08c.13,0,.25-.05.35-.15.08-.1.13-.22.12-.35-.19-2.57-.26-4.28-.26-5.01v-41.62c0-.26-.21-.46-.47-.46h-6.08c-.26,0-.47.21-.47.46v16.96c-2.11-2.89-5.34-4.34-9.63-4.34-9.21,0-15.16,7.14-15.16,18.2Zm7.4-.19c0-8.09,2.98-12.55,8.4-12.55,5.83,0,9.18,4.31,9.18,11.83,0,8.29-3.15,12.67-9.11,12.67-5.62,0-8.47-4.02-8.47-11.96Z"/><path class="cls-1" d="m309.28,124.81c-4.33,0-6.72-1.93-6.72-5.43,0-.26-.21-.46-.47-.46h-6.41c-.26,0-.47.21-.47.46,0,7.1,4.74,11.01,13.35,11.01,13.28,0,14.32-8.33,14.32-10.88,0-4.87-2.72-7.72-8.84-9.25l-7.5-1.87c-1.64-.41-3.6-1.35-3.6-3.5,0-2.71,2.18-4.2,6.13-4.2s5.81,1.5,5.81,4.45v.39c0,.26.21.46.47.46h6.22c.26,0,.47-.21.47-.46v-.9c0-3.85-1.83-6.47-5.6-8-2.13-.87-4.7-1.33-7.42-1.33-7.87,0-13.15,4.14-13.15,10.3s4.33,8.36,12.86,10.16c6.45,1.36,6.75,2.44,6.75,4.4,0,1.4-.6,4.65-6.2,4.65Z"/><path class="cls-1" d="m345.5,100.62c3.64,0,5.77,2.26,6.01,6.36.02.25.22.43.47.43h6.15c.12,0,.25-.05.34-.15.08-.09.12-.21.12-.34-.27-7.11-5.45-11.71-13.22-11.71-4.1,0-7.82,1.51-10.47,4.25-3.07,3.16-4.68,7.92-4.68,13.75,0,10.87,5.5,17.1,15.1,17.1,7.57,0,13.01-4.85,13.54-12.09,0-.12-.04-.25-.12-.35-.09-.09-.21-.14-.34-.14h-6.15c-.25,0-.45.19-.47.44-.24,4.15-2.7,6.62-6.59,6.62-5.13,0-7.63-4.04-7.63-12.35,0-7.74,2.75-11.83,7.95-11.83Z"/><path class="cls-1" d="m382.21,108.37c-5.54,0-10.27,1.25-12.66,3.34-2.89,2.49-4.24,5.27-4.24,8.77,0,6.01,4.77,10.04,11.86,10.04,4.34,0,7.43-1.51,9.67-4.76.07,1.31.24,2.31.57,3.4.06.19.24.33.44.33h5.5c.13,0,.26-.05.35-.16.09-.1.13-.24.11-.36-.33-2.58-.51-6.39-.51-8.03l.26-15.86c0-3.79-1.33-6.25-4.31-7.98-2.19-1.25-5.47-2-8.77-2-3.91,0-9.11.82-11.65,4.74-.9,1.39-1.43,3.19-1.56,5.34,0,.13.04.26.12.34.09.1.21.15.34.15h6.08c.25,0,.45-.19.47-.45.11-3.21,2.23-5.05,5.81-5.05,2.95,0,4.88.82,5.88,2.5.59.94.71,2.29.71,4.16v1.69c-1.91-.15-3.68-.15-4.46-.15Zm-3.56,16.44c-3.86,0-6.27-2.01-6.27-5.23,0-5.02,6.12-6.07,11.25-6.07.63,0,2.18.05,3.02.13l-.12,2.95c-.19,5.15-3.13,8.23-7.88,8.23Z"/><path class="cls-1" d="m403.14,141.52c0,.26.21.46.47.46h6.02c.26,0,.47-.21.47-.46v-14.71c2.16,2.53,5.54,3.91,9.57,3.91,9.25,0,15.22-7.02,15.22-17.87s-5.38-17.29-14.06-17.29c-4.41,0-8.27,1.77-10.69,4.89,0-.21-.01-.43-.02-.66l-.02-.52c-.02-.78-.05-1.7-.07-2.74,0-.25-.21-.45-.47-.45h-6.15c-.12,0-.24.05-.34.14-.09.09-.13.22-.13.34.12,2.53.19,4.38.19,4.96v40Zm15.42-16.19c-5.75,0-8.66-3.89-8.66-11.57,0-8.45,3.11-12.74,9.24-12.74,5.62,0,8.47,3.85,8.47,11.44,0,8.3-3.21,12.87-9.05,12.87Z"/><path class="cls-1" d="m440.61,113.11c0,11.35,5.37,17.35,15.54,17.35,8.3,0,13.97-4.54,14.45-11.57,0-.13-.04-.26-.12-.34-.09-.1-.21-.15-.34-.15h-6.08c-.24,0-.44.18-.46.41-.42,4.02-3.04,6.32-7.18,6.32-5.62,0-8.85-3.91-8.85-10.73v-.05h22.9c.26,0,.47-.21.47-.46v-2.59c0-10.51-5.02-16.06-14.51-16.06-5.9,0-15.8,2.32-15.8,17.87Zm23.17-3.96h-15.95c.19-5.18,3.54-8.65,8.4-8.65s7.55,2.99,7.56,8.65Z"/><path class="cls-1" d="m103.1,265.13c7.75-7.94,9.26-11.88,9.26-15.99,0-8.35-5.48-13.54-14.32-13.54s-14.32,5.31-14.32,13.54c0,.26.21.46.47.46h6.8c.26,0,.47-.21.47-.46,0-4.89,2.31-7.37,6.85-7.37,4.2,0,6.72,2.56,6.72,6.85,0,3.95-2.73,8.11-10.09,15.33l-11.71,11.52c-.09.09-.14.21-.14.33v5.89c0,.26.21.46.47.46h28.48c.26,0,.47-.21.47-.46v-5.11c0-.26-.21-.46-.47-.46h-20.13c7.05-6.76,8.55-8.27,11.21-10.99Z"/><path class="cls-1" d="m121.96,275.48c-.09.09-.14.21-.14.33v5.89c0,.26.21.46.47.46h28.48c.26,0,.47-.21.47-.46v-5.11c0-.26-.21-.46-.47-.46h-20.13c6.78-6.5,8.4-8.12,11.21-10.99,7.75-7.95,9.26-11.88,9.26-15.99,0-8.35-5.48-13.54-14.32-13.54s-14.32,5.31-14.32,13.54c0,.26.21.46.47.46h6.79c.26,0,.47-.21.47-.46,0-4.89,2.31-7.37,6.85-7.37,4.2,0,6.72,2.56,6.72,6.85,0,3.95-2.73,8.11-10.09,15.33l-11.71,11.52Z"/><path class="cls-1" d="m159.8,273.47h7.18c.26,0,.47.21.47.47v7.76c0,.26-.21.46-.46.46h-7.18c-.26,0-.47-.21-.47-.47v-7.76c0-.26.21-.46.46-.46Z"/><path class="cls-1" d="m177.19,282.17h28.48c.26,0,.47-.21.47-.46v-5.11c0-.26-.21-.46-.47-.46h-20.13c6.84-6.55,8.45-8.16,11.21-10.99,7.75-7.94,9.26-11.88,9.26-15.99,0-8.35-5.48-13.54-14.32-13.54s-14.32,5.31-14.32,13.54c0,.26.21.46.47.46h6.8c.26,0,.47-.21.47-.46,0-4.89,2.3-7.37,6.85-7.37,4.21,0,6.72,2.56,6.72,6.85,0,3.95-2.73,8.1-10.09,15.33l-11.71,11.52c-.09.09-.14.21-.14.33v5.89c0,.26.21.46.47.46Z"/><path class="cls-1" d="m217.3,273.47h7.19c.26,0,.46.21.46.46v7.77c0,.26-.21.46-.46.46h-7.18c-.26,0-.47-.21-.47-.47v-7.76c0-.26.21-.46.46-.46Z"/><path class="cls-1" d="m245.67,236.45h-5.76c-.1,0-.21.03-.29.1-3.37,2.69-7,5.05-10.79,7-.16.08-.25.24-.25.41v6.47c0,.16.08.31.22.39.13.08.29.1.45.03,3.72-1.77,7.25-3.91,9.75-5.91v36.75c0,.26.21.46.47.46h6.21c.26,0,.47-.21.47-.46v-44.79c0-.26-.21-.46-.47-.46Z"/><path class="cls-1" d="m274.02,241.33c3.94,0,6.4,2.38,6.4,6.2,0,.26.21.47.47.47h6.67c.26,0,.47-.21.47-.47,0-.69-.07-1.36-.14-1.93-.68-6.11-5.97-10.05-13.47-10.05-14.08,0-17.03,14.47-17.03,26.61,0,6.99,1.71,13.15,4.57,16.48,2.82,3.32,7.71,4.5,11.03,4.5,9.19,0,15.61-6.63,15.61-16.12,0-8.87-5.62-14.83-13.99-14.83-4.28,0-7.35,1.42-9.87,4.6.69-10.68,3.56-15.46,9.29-15.46Zm-8.92,26.33c0-5.63,3.46-9.57,8.4-9.57s7.95,3.4,7.95,9.57c0,5.67-3.38,9.63-8.21,9.63s-8.14-4.14-8.14-9.63Z"/><path class="cls-1" d="m320.88,237.31s.02-.8.05-1.32c1.01-.3,1.16-.83,1.16-1.13,0-.51-.44-.9-1.08-.97-1.08-.13-4.61-.3-4.9-.3-.13,0-.26.05-.35.16-.09.1-.13.24-.11.36.12,1.04.12,2.82.12,2.89v5.05h-14.85c-.26,0-.47.21-.47.46v4.12c0,.12.05.24.14.33.09.09.2.13.33.13l13.29-.08c-2.55,4.83-9.39,12.89-16.05,15.98-.16.07-.27.23-.27.42,0,.18.1.34.26.42.94.47,3.56,1.87,4.38,2.69.18.18.39.18.45.18.82,0,8.11-5.62,12.97-13.66-.11,3.35-.23,7.3-.23,7.6v11.4c0,.26.21.46.47.46h4.25c.26,0,.47-.21.47-.46v-11.4c0-.23-.06-1.86-.15-4.22-.04-1.09-.08-2.27-.12-3.4,4.65,7.41,11.89,13.34,12.81,13.34.11,0,.3,0,.5-.18.98-1.01,3.39-2.34,4.2-2.78.35-.2.39-.22.45-.28.11-.11.16-.26.13-.42-.03-.15-.13-.28-.27-.34-6.57-2.85-13.69-10.18-16.39-15.38l14.09.12h.05c.12,0,.24-.05.33-.14.09-.09.13-.21.13-.33v-4.12c0-.26-.21-.46-.47-.46h-15.35v-4.74Z"/><path class="cls-1" d="m348.9,261.31h59.41c.26,0,.46.21.46.46v4.29c0,.26-.21.47-.47.47h-59.41c-.26,0-.46-.21-.46-.46v-4.29c0-.26.21-.47.47-.47Z"/><path class="cls-1" d="m420.11,275.48c-.09.09-.14.21-.14.33v5.89c0,.26.21.46.47.46h28.48c.26,0,.47-.21.47-.46v-5.11c0-.26-.21-.46-.47-.46h-20.13c6.84-6.55,8.45-8.16,11.21-10.99,7.75-7.94,9.26-11.88,9.26-15.99,0-8.35-5.48-13.54-14.32-13.54s-14.32,5.31-14.32,13.54c0,.26.21.46.47.46h6.8c.26,0,.47-.21.47-.46,0-4.89,2.3-7.37,6.85-7.37,4.21,0,6.72,2.56,6.72,6.85,0,3.95-2.73,8.1-10.09,15.33l-11.71,11.52Z"/><path class="cls-1" d="m457.3,273.47h7.19c.26,0,.46.21.46.46v7.76c0,.26-.21.47-.47.47h-7.19c-.26,0-.46-.21-.46-.46v-7.76c0-.26.21-.47.47-.47Z"/><path class="cls-1" d="m473.08,275.48c-.09.09-.14.21-.14.33v5.89c0,.26.21.46.47.46h28.47c.26,0,.47-.21.47-.46v-5.11c0-.26-.21-.46-.47-.46h-20.13c6.79-6.51,8.41-8.13,11.21-10.99,7.75-7.94,9.26-11.87,9.26-15.99,0-8.35-5.48-13.54-14.32-13.54s-14.32,5.31-14.32,13.54c0,.26.21.46.47.46h6.8c.26,0,.47-.21.47-.46,0-4.89,2.31-7.37,6.85-7.37,4.2,0,6.72,2.56,6.72,6.85,0,3.95-2.73,8.11-10.08,15.33l-11.71,11.52Z"/><path class="cls-1" d="m510.56,243.97v6.47c0,.16.08.31.22.39.13.08.3.1.45.03,3.71-1.77,7.24-3.91,9.75-5.91v36.75c0,.26.21.46.47.46h6.21c.26,0,.47-.21.47-.46v-44.79c0-.26-.21-.46-.47-.46h-5.76c-.1,0-.21.03-.29.1-3.38,2.69-7.01,5.05-10.79,7-.16.08-.25.24-.25.41Z"/><path class="cls-1" d="m542.78,256.74s3.28.04,4.63.33h.12c.37,0,.52-.23.58-.34l-.37-.31.4.27s.02-.04.03-.06c1.77-3.66,2.03-8.02,2.2-10.9.03-.49.05-.94.09-1.34.91-.24,1.37-.61,1.37-1.1s-.48-.93-1.18-1.06c-.82-.17-4.69-.46-4.85-.47-.16,0-.28.04-.38.14-.1.1-.15.24-.14.38,0,0,.04.54.04,1.38,0,2.59-.28,8.97-2.92,12.29-.11.14-.14.34-.06.51.08.17.25.27.43.28Zm35.9,11.02c-4.3-1.4-13.13-5.38-16.54-15.03.92.46,2.38,1.24,2.95,1.78.18.18.4.18.47.18.9,0,7.55-6.02,10.06-8.67.25.06.49.1.74.1.98,0,1.03-.68,1.03-.82,0-.31-.18-.68-.47-.96-.86-.9-3.88-3.18-4.01-3.27-.11-.08-.24-.11-.36-.09-.13.02-.24.09-.32.19-.04.06-4.26,5.84-10.48,10.32-.63-2.17-.99-4.6-.99-7.32,0-2.15.08-5.32.11-6.78,0-.15,0-.29,0-.4,1.21-.33,1.35-.95,1.35-1.22,0-.43-.36-.96-1.35-1.03-.72-.09-4.51-.25-4.89-.25-.13,0-.26.06-.35.15-.09.1-.14.23-.13.36.04.6.21,8.4.21,10.05,0,11.61-6.11,19.92-17.22,23.38-.19.06-.32.22-.34.42-.02.19.08.38.25.47.94.5,3.54,1.99,4.34,2.89.11.11.27.26.55.26.1,0,10.89-3.95,15.33-15.81,5.1,11.69,15.08,15.27,15.17,15.27.25,0,.47-.12.6-.32,1.09-1.21,4.34-2.94,4.37-2.95.17-.09.27-.28.26-.47-.02-.19-.15-.36-.33-.42Z"/><path class="cls-1" d="m246.09,309.76h-5.76c-.1,0-.21.03-.29.1-3.38,2.69-7.01,5.05-10.79,7-.16.08-.25.24-.25.41v6.47c0,.16.08.31.21.39.13.09.3.1.45.03,3.72-1.77,7.25-3.91,9.75-5.9v36.75c0,.26.21.46.47.46h6.21c.26,0,.47-.21.47-.46v-44.79c0-.26-.21-.46-.47-.46Z"/><path class="cls-1" d="m286.16,314.93c-2.84-3.94-7.13-6.01-12.42-6.01-9.01,0-14.84,5.85-14.84,14.9s5.81,14.64,14.12,14.64c4.09,0,7.48-1.6,9.61-4.53.02,1.22.02,2.11.02,2.58,0,9.27-3.09,13.97-9.17,13.97-4.33,0-6.72-2.18-6.72-6.14,0-.26-.21-.46-.47-.46h-6.79c-.13,0-.25.05-.33.13-.09.09-.14.21-.14.34.19,7.73,5.27,12.17,13.93,12.17,16.97,0,16.97-17.5,16.97-24.09,0-8.59-1.13-13.82-3.78-17.49Zm-11.96,17.67c-4.87,0-8.02-3.42-8.02-8.72s3.01-9.18,7.5-9.18c4.83,0,8.21,3.8,8.21,9.24s-3.02,8.66-7.69,8.66Z"/><path class="cls-1" d="m299.03,320.54h7.32c.26,0,.47.21.47.47v7.18c0,.26-.21.46-.46.46h-7.32c-.26,0-.47-.21-.47-.47v-7.18c0-.26.21-.46.46-.46Z"/><path class="cls-1" d="m299.03,346.36h7.32c.26,0,.47.21.47.47v7.18c0,.26-.21.46-.46.46h-7.32c-.26,0-.47-.21-.47-.47v-7.18c0-.26.21-.46.46-.46Z"/><path class="cls-1" d="m332.07,307.56c-10.62,0-16.71,9.16-16.71,25.12,0,21.75,10.47,25,16.71,25,10.54,0,16.58-9.11,16.58-25s-6.04-25.12-16.58-25.12Zm9.37,25.12c0,11.69-3.59,18.95-9.37,18.95s-9.5-6.91-9.5-18.95,3.46-19.41,9.5-19.41,9.37,7.44,9.37,19.41Z"/><path class="cls-1" d="m371.37,307.56c-10.62,0-16.71,9.16-16.71,25.12,0,21.75,10.47,25,16.71,25,10.54,0,16.58-9.11,16.58-25s-6.04-25.12-16.58-25.12Zm9.38,25.12c0,11.69-3.59,18.95-9.38,18.95s-9.5-6.91-9.5-18.95,3.46-19.41,9.5-19.41,9.38,7.44,9.38,19.41Z"/><path class="cls-1" d="m205.35,466.15c-1.96,3.99-2.96,8.53-2.96,13.47,0,6.9,1.95,12.69,5.8,17.2,3.96,4.64,9.92,6.89,18.22,6.89,5.58,0,11.05-.94,16.72-2.87.19-.07.32-.24.32-.44v-23.04c0-.26-.21-.46-.47-.46h-17.15c-.26,0-.47.21-.47.46v5.37c0,.26.21.47.47.47h10.21v13.04c-3.17.94-6.15,1.37-9.63,1.37-7.8,0-12.46-2.82-14.65-8.88-1.11-3.03-1.65-6.29-1.65-9.94,0-7.49,2.81-14.02,7.15-16.62,2.05-1.24,4.72-1.87,7.92-1.87,5.69,0,9.37,2.52,10.09,6.92.04.23.23.39.46.39h7.05c.12,0,.24-.05.34-.14.09-.09.13-.22.13-.34-.24-5.18-3.12-9-8.57-11.35-2.43-1.01-5.39-1.52-8.79-1.52-9.99,0-16.52,3.78-20.55,11.91Z"/><path class="cls-1" d="m269.07,481.56c-5.54,0-10.27,1.25-12.67,3.34-2.89,2.49-4.24,5.27-4.24,8.77,0,6.01,4.77,10.04,11.86,10.04,4.34,0,7.43-1.51,9.66-4.76.07,1.31.24,2.31.57,3.4.06.19.24.33.44.33h5.5c.13,0,.26-.05.35-.16.09-.1.13-.24.11-.36-.33-2.59-.51-6.39-.51-8.03l.26-15.86c0-3.79-1.33-6.25-4.31-7.98-2.19-1.25-5.47-2-8.78-2-3.91,0-9.1.82-11.65,4.74-.91,1.39-1.43,3.19-1.56,5.34,0,.13.04.26.12.34.09.1.21.15.34.15h6.08c.25,0,.45-.19.47-.45.12-3.21,2.24-5.05,5.81-5.05,2.95,0,4.88.82,5.89,2.5.59.94.71,2.29.71,4.16v1.69c-1.9-.15-3.68-.15-4.45-.15Zm-3.56,16.44c-3.86,0-6.26-2.01-6.26-5.23,0-5.02,6.12-6.07,11.25-6.07.63,0,2.17.05,3.01.13l-.11,2.95c-.19,5.15-3.14,8.23-7.89,8.23Z"/><path class="cls-1" d="m290.48,455.08h6.09c.26,0,.46.21.46.46v46.67c0,.26-.21.47-.47.47h-6.09c-.26,0-.46-.21-.46-.46v-46.67c0-.26.21-.47.47-.47Z"/><path class="cls-1" d="m308.58,455.08h6.09c.26,0,.46.21.46.46v46.67c0,.26-.21.47-.47.47h-6.08c-.26,0-.47-.21-.47-.47v-46.67c0-.26.21-.46.46-.46Z"/><path class="cls-1" d="m353.79,487.53c.26,0,.47-.21.47-.46v-2.59c0-10.51-5.02-16.06-14.51-16.06-5.9,0-15.8,2.32-15.8,17.87,0,11.35,5.37,17.35,15.55,17.35,8.3,0,13.97-4.54,14.45-11.57,0-.13-.04-.26-.12-.34-.09-.1-.21-.15-.34-.15h-6.08c-.24,0-.44.18-.46.41-.42,4.02-3.03,6.32-7.18,6.32-5.63,0-8.86-3.91-8.86-10.73v-.05h22.9Zm-6.68-5.2h-15.95c.19-5.18,3.54-8.65,8.4-8.65s7.55,2.99,7.56,8.65Z"/><path class="cls-1" d="m363.64,502.68h6.15c.26,0,.47-.21.47-.46v-17.54c0-6.3,2.61-9.12,8.47-9.12,1.12,0,2.01.05,2.69.3.14.05.3.02.42-.06.13-.09.2-.23.2-.38v-5.95c0-.24-.18-.44-.42-.46-.67-.07-1.19-.07-1.8-.07-4.63,0-8.08,1.67-9.8,4.73l-.02-.91c-.02-.87-.05-1.88-.07-3.03,0-.25-.21-.45-.47-.45h-6.15c-.13,0-.25.05-.35.15-.09.1-.13.23-.12.35.19,2.24.32,5.52.32,6.11v26.34c0,.26.21.46.47.46Z"/><path class="cls-1" d="m418.43,469.26h-6.6c-.19,0-.36.12-.43.29l-9.92,24.55-9.73-24.55c-.07-.17-.24-.29-.43-.29h-6.86c-.15,0-.3.07-.39.21-.08.13-.1.29-.04.44l13.45,32.19-4.85,12.26c-.05.15-.03.31.05.43.09.13.23.2.38.2h6.28c.19,0,.36-.12.44-.3l4.52-11.82,14.56-32.95c.06-.14.04-.31-.04-.44-.08-.13-.23-.21-.39-.21Z"/><path class="cls-1" d="m2.98,27.85h15.07v13.84c0,.26.21.47.47.47h5.18c.26,0,.47-.21.47-.47v-13.84h12.27v1.47c-.19,13.61-6.32,20.93-20.48,24.47-.18.04-.31.19-.35.36,0,0,0,0,0,0h0s0,0,0,0c-.04.18.03.36.18.46l5.7,4.08c.08.05.17.08.27.08.05,0,.1,0,.17-.03,14.81-5.66,20.64-14.34,20.75-30.91h14.29c.26,0,.47-.21.47-.46v-4.98c0-.26-.21-.46-.47-.46h-14.49v-5.92l.02-.42c.05-1.34.11-2.61.16-3.54,1.09-.24,1.83-.9,1.83-1.63,0-.85-.84-1.63-6.94-1.63h-.71c-.13,0-.25.05-.34.15-.08.09-.13.21-.13.34.06,1.52.06,2.37.06,12.66h-12.27v-6.78c0-.78,0-1.93.09-2.84,1.05-.24,1.79-.91,1.79-1.63,0-1.15-1.58-1.5-6.74-1.5h-.9c-.13,0-.26.05-.34.14-.09.09-.14.22-.13.35.13,1.95.13,5.64.13,5.79v6.46H2.98c-.26,0-.47.21-.47.46v4.98c0,.26.21.46.47.46Z"/><path class="cls-1" d="m73.37,14.78h31.78c.26,0,.47-.21.47-.46v-5.05c0-.26-.21-.46-.47-.46h-31.91c-.13,0-.25.05-.33.14-.09.09-.14.21-.14.34l.13,5.05c0,.25.22.45.47.45Z"/><path class="cls-1" d="m68.52,27.85l33.67-.06c-4.32,13.11-14.95,21.07-31.6,23.67-.18.03-.31.16-.36.33h-.06s.05.05.05.05c-.03.17.02.35.17.46l6.41,4.66c.08.06.17.09.27.09.03,0,.06,0,.11,0,16.32-3.9,27.3-14.11,32.61-30.35.93-.23,1.4-.65,1.4-1.24,0-1.19-4.86-4.22-5.19-4.22s-.61.15-.83.27c-.18.1-.31.18-.46.18h-36.18c-.26,0-.47.21-.47.46v5.24c0,.12.05.24.14.34.09.08.21.13.33.13Z"/><path class="cls-1" d="m22.9,124.16c-7.41,0-10.74-2.71-10.8-8.8,0-.26-.21-.46-.47-.46h-6.73c-.26,0-.47.21-.47.46v.78c0,9.32,6.3,14.45,17.75,14.45s18.84-5.9,18.84-15.03c0-5.24-2.33-8.84-7.14-10.98-2.48-1.11-5.8-1.93-10-2.96-1.03-.25-2.12-.52-3.27-.81-5.24-1.33-7.74-2.62-7.74-6.41,0-4.45,3.72-7.11,9.95-7.11s9.06,2.25,9.31,6.68c.01.25.22.44.47.44h6.73c.13,0,.25-.05.33-.14.09-.09.14-.2.14-.34-.12-8.27-6.12-13.01-16.45-13.01-10.93,0-18.27,5.67-18.27,14.12,0,5.69,3.43,8.61,5.47,9.85,2.49,1.49,5.76,2.29,9.91,3.31,2.09.52,4.47,1.1,7.03,1.85,4.17,1.24,5.88,3.04,5.88,6.22,0,4.86-4.01,7.89-10.47,7.89Z"/><path class="cls-1" d="m56.13,96.54c0-.26-.21-.46-.47-.46h-6.21c-.26,0-.47.21-.47.46v21.68c0,7.37,4.46,11.6,12.25,11.6,4.7,0,7.79-1.44,9.92-4.66,0,.33.02.7.03,1.1l.02.91c.01.57.03,1.19.05,1.88,0,.25.21.45.47.45h6.34c.12,0,.24-.05.34-.14.09-.09.13-.22.13-.34-.13-2.88-.19-4.87-.19-5.94v-26.53c0-.26-.21-.46-.47-.46h-6.28c-.26,0-.47.21-.47.46v19.55c0,4.91-3.35,8.08-8.53,8.08-4.41,0-6.46-2.07-6.46-6.53v-21.1Z"/><path class="cls-1" d="m247.56,388.17h-5.19c-.1,0-.21.03-.29.1-3.04,2.43-6.31,4.54-9.71,6.3-.16.08-.25.24-.25.41v5.83c0,.16.08.31.21.39.13.09.3.11.45.03,3.31-1.58,6.46-3.48,8.72-5.26v32.99c0,.26.21.46.47.46h5.59c.26,0,.47-.21.47-.46v-40.32c0-.26-.21-.46-.47-.46Z"/><path class="cls-1" d="m264.15,429.21c.08.13.23.21.39.21h6.58c.19,0,.36-.11.43-.29l14.8-35.42c.03-.06.04-.12.04-.19v-4.89c0-.26-.21-.46-.47-.46h-26.63c-.26,0-.47.21-.47.46v4.84c0,.26.21.46.47.46h20.04l-15.22,34.84c-.06.14-.04.3.04.44Z"/><path class="cls-1" d="m293.17,399.83h6.59c.26,0,.47.21.47.47v6.46c0,.26-.21.47-.47.47h-6.59c-.26,0-.46-.21-.46-.46v-6.47c0-.26.21-.46.46-.46Z"/><path class="cls-1" d="m293.17,423.08h6.59c.26,0,.47.21.47.47v6.46c0,.26-.21.47-.47.47h-6.59c-.26,0-.46-.21-.46-.46v-6.47c0-.26.21-.47.47-.47Z"/><path class="cls-1" d="m306.65,408.86c0,19.62,9.46,22.55,15.09,22.55,9.52,0,14.98-8.22,14.98-22.55s-5.46-22.67-14.98-22.67-15.09,8.26-15.09,22.67Zm6.58,0c0-11.08,3.1-17.43,8.51-17.43s8.39,6.68,8.39,17.43-3.21,17.02-8.39,17.02-8.51-6.2-8.51-17.02Z"/><path class="cls-1" d="m342.03,408.86c0,19.62,9.46,22.55,15.09,22.55,9.52,0,14.98-8.22,14.98-22.55s-5.46-22.67-14.98-22.67-15.09,8.26-15.09,22.67Zm6.58,0c0-11.08,3.1-17.43,8.51-17.43s8.39,6.68,8.39,17.43-3.22,17.02-8.39,17.02-8.51-6.2-8.51-17.02Z"/><path class="cls-1" d="m409.96,389.67v-.1c.04-1.41.07-2.75.17-4.09,1.1-.39,1.66-.86,1.66-1.39,0-.93-1.4-1.1-1.86-1.16-1.8-.23-4.87-.35-4.96-.35-.14-.02-.28.02-.39.14-.09.09-.14.22-.13.36.17,2.14.17,4.98.17,7.48v1.56c-4.72.47-6.45.6-8.33.6-3.22,0-5.89-.51-8.93-1.72-.02-.01-.05-.02-.09-.03-.15-.05-.41-.06-.62.08-.15.09-.32.29-.32.68,0,.13,0,.31.07.46l.69,4.22c.03.15.12.28.26.35,1.71.8,4.06,1.21,7.01,1.21,1.12,0,5.51-.27,10.33-.82v.02c.05,2.22.1,4.74.2,7.14-2.57.25-4.97.31-5.34.31-2.22,0-2.97-.24-3.2-.36.14-.16.54-.55,1.61-1.41l.26-.21c.14-.12.2-.31.15-.48h0s0,0,0,0h0c-.05-.17-.19-.31-.37-.34l-3.96-.64c-.12-.03-.28.02-.38.1-.1.09-.27.21-.48.35l-.05.04c-.47.34-1.11.8-1.5,1.23-.86,1-1.28,1.9-1.28,2.75,0,2.41,3.42,3.84,9.15,3.84.51,0,3.24-.09,5.62-.35.06,1.36.13,2.7.2,4.03l.05.93c.04.85.09,1.69.12,2.54-1.39-.18-2.89-.27-4.35-.27-9.34,0-12.65,3.86-12.65,7.17,0,4.95,7.06,7.69,11.95,7.69,5.65,0,9.48-3.15,10.29-8.45,3.17,1.23,7.76,3.69,10.58,6.73.16.17.44.19.63.05l4.31-3.44c.11-.09.17-.22.17-.37s-.07-.28-.18-.37c-4.13-3.24-9.67-5.98-15.63-7.73-.04-.78-.09-1.66-.15-2.63v-.09c-.11-1.87-.24-3.98-.34-6.31,4.63-.6,8-1.26,10.6-2.06.19-.06.33-.24.33-.44v-4.66c0-.16-.08-.3-.21-.39-.13-.09-.3-.11-.44-.05-2.56,1.04-6.09,1.92-10.5,2.63-.05-2.24-.09-4.63-.1-7.14,4.8-.59,8.96-1.22,12.38-1.88.22-.04.37-.23.38-.44l.12-4.32c0-.14-.06-.28-.17-.37s-.24-.13-.39-.1c-4.17.83-8.39,1.53-12.21,2.03v-.22c.02-.53.03-1.04.03-1.54Zm-16.17,33.75c0-2.03,4.96-2.5,6.7-2.51,1.67,0,3.45.22,5.16.65-.35,2.92-2.49,4.66-5.74,4.66-2.5,0-6.11-1-6.11-2.8Z"/><path class="cls-1" d="m434.42,393.36c-.65,0-.99.41-.99.82,0,.14.04.27.08.38l-.04.02.12.17.06.12h0s2.51,4.5,2.51,4.5c.1.18.28.26.47.23,3.22-.45,6.91-1.38,10.83-2.37h.05c4.06-1.03,8.63-2.18,13.31-2.94-8.67,6.46-11.78,14.02-11.78,19.01,0,13.1,15.03,16.33,19.63,17.01h.07c.14,0,.27-.05.35-.16l4.31-5.01c.12-.14.15-.33.07-.5-.08-.16-.24-.27-.41-.27-16.68-.5-18.49-8.44-18.49-11.83,0-7.64,9.81-16.1,15.15-18.16,2.22-.87,3.98-1.24,6.5-1.36.37.16.71.29,1.02.29.6,0,.99-.39.99-.99,0-.66-1.68-5.24-2.74-5.24-.29,0-.55.11-.8.21l-.1.05c-.17.05-.39.11-.61.15-10.29,1.14-18.08,2.61-24.37,3.8-6.14,1.16-11,2.08-15.2,2.08Z"/><path class="cls-1" d="m472.61,396.5l-3.14,1.63c-.13.07-.22.19-.25.33-.02.14.02.29.12.4,1.82,2,4.21,5.34,5.15,7.94.05.13.15.23.27.28.05.02.11.03.16.03.08,0,.16-.02.23-.05l3.38-1.86c.2-.11.29-.36.21-.58-1.2-2.99-4.51-6.89-5.57-8.02-.14-.16-.37-.19-.55-.09Z"/><path class="cls-1" d="m480.84,404.41c.05.02.1.02.14.02.08,0,.17-.02.25-.07l3.27-2.04c.2-.12.27-.38.17-.59-1.33-2.83-4.2-5.94-5.52-7.19-.14-.15-.4-.18-.56-.07l-3.03,1.75c-.12.07-.21.2-.23.34-.02.15.03.29.14.4,1.75,1.69,3.94,4.79,5.09,7.21.06.12.16.21.28.24Z"/></svg>