<?xml version="1.0" encoding="UTF-8"?><svg id="_レイヤー_1" xmlns="http://www.w3.org/2000/svg" viewBox="0 0 660 68.1"><defs><style>.cls-1{fill:#ffc6c6;}</style></defs><path class="cls-1" d="m4.46,18.65c0,.12,0,.27.06.37l1.44,5.49h.16c3.36-.17,7.08-.7,10.27-1.2,3.89-.56,7.79-1,11.6-1.28.02.74.03,1.47.05,2.17.01.73.02,1.44.05,2.12-.87-.22-1.83-.31-2.98-.31-5.76,0-9.2,4.6-9.2,9.04v.11c0,3.96,3.29,8.23,8.61,8.23,1.66,0,3.19-.42,4.58-1.25h0c-1.28,2.57-7.29,7.13-16.11,8.75l-.52.09.46.27s4.74,2.7,6.09,4.15l.07.05c.12.08.22.15.41.15.16,0,15.84-4.77,15.84-18.11,0-2.83-.71-5.43-2-7.35,0-2.11,0-5.24.05-8.33,1.23-.05,2.51-.05,3.75-.05,4.45,0,8.13.22,11.6.7.36,0,.44-.06.51-.42l.11-5.63h-.37c-1.61-.06-3.28-.11-4.95-.11-3.14,0-6.6.09-10.59.26.05-1.64.14-3.35.25-4.75.87-.14,1.47-.56,1.47-1.03,0-.88-.14-.88-7.44-1.15l-.53-.02.02.22c.24,2.08.43,4.65.53,7.08-4.13.3-8.44.62-11.9,1.01-2.74.25-5.04.38-7.05.38-1.24,0-2.47-.05-3.62-.11h-.16c-.53,0-.57.35-.57.46Zm23.79,14.9c0,1.35-.36,4.5-3.64,4.5-2.18,0-3.31-1.75-3.31-3.48,0-.58.19-3.48,3.85-3.48,1.28,0,2.25.31,3.05.98.05.5.05,1.01.05,1.47Z"/><path class="cls-1" d="m100.02,14.71l3.81-1.93.16-.08-.07-.17c-1.02-2.47-3.46-5.16-4.75-6.27l-.09-.08-3.72,1.68.21.2c1.76,1.7,3.56,4.35,4.38,6.46l.08.2Z"/><path class="cls-1" d="m100.47,22.04l.11-5.63h-.37c-1.61-.06-3.28-.11-4.95-.11-3.14,0-6.6.09-10.59.26.05-1.64.14-3.35.25-4.75.87-.14,1.47-.56,1.47-1.03,0-.88-.14-.88-7.44-1.15l-.53-.02.02.22c.24,2.08.43,4.65.53,7.08-4.13.3-8.44.62-11.9,1.01-2.74.25-5.04.38-7.05.38-1.24,0-2.47-.05-3.62-.11h-.16c-.53,0-.57.35-.57.46,0,.12,0,.27.06.37l1.44,5.49h.16c3.36-.17,7.08-.7,10.27-1.2,3.89-.56,7.79-1,11.6-1.28.02.74.03,1.47.05,2.17.01.73.02,1.44.05,2.12-.87-.22-1.83-.31-2.98-.31-5.76,0-9.2,4.6-9.2,9.04v.11c0,3.96,3.29,8.23,8.61,8.23,1.66,0,3.19-.42,4.58-1.25h0c-1.28,2.57-7.29,7.13-16.11,8.75l-.52.09.46.27s4.74,2.7,6.09,4.15l.07.05c.12.08.22.15.41.15.16,0,15.84-4.77,15.84-18.11,0-2.83-.71-5.43-2-7.35,0-2.11,0-5.24.05-8.33,1.23-.05,2.51-.05,3.75-.05,4.45,0,8.13.22,11.6.7.36,0,.44-.06.51-.42Zm-21,11.51c0,1.35-.36,4.5-3.64,4.5-2.18,0-3.31-1.75-3.31-3.48,0-.58.19-3.48,3.85-3.48,1.28,0,2.25.31,3.05.98.05.5.05,1.01.05,1.47Z"/><path class="cls-1" d="m92.61,7.36l-3.57,1.45-.28.11.22.21c1.43,1.37,3.45,4.59,4.16,6.61l.07.2,4.08-1.89-.06-.17c-.95-2.46-3.29-5.21-4.52-6.44l-.09-.09Z"/><path class="cls-1" d="m147.49,25.99c0-.12-.08-.21-.14-.28l-2.67-4.73-.16.08c-2.34,1.15-5.07,2.36-9.16,3.51-.73-1.22-1.48-2.48-2.22-3.8,1.85-.46,8.32-2.18,8.32-2.77,0-.06-.02-.11-.03-.15-.01-.03-.02-.05-.02-.07l-2.23-4.51-.09-.17-.17.08c-2.24,1.04-4.31,1.84-8.23,2.81-.92-1.85-1.64-3.47-2.24-5.09.64-.41,1.04-.91,1.04-1.33,0-.16-.08-.68-1.11-.68-1.27,0-5.97.87-6.37.98l-.22.06.09.21c1.04,2.23,2.23,4.59,3.55,7-1.49.29-2.76.43-3.86.43-2.28,0-4.18-.58-6.89-1.66-.05-.02-.1-.04-.14-.06-.1-.04-.17-.06-.25-.06-.1,0-.41.03-.41.47l.59,5.2.02.12.12.04c2.41.8,4.33,1.14,6.43,1.14,1.82,0,3.88-.26,7.08-.9.64,1.12,1.28,2.17,1.89,3.19l.44.73c-4.27.96-7.45,1.39-10.27,1.39-2.97,0-5.57-.48-8.69-1.61l-.1-.03c-.17-.05-.33-.09-.48-.09-.31,0-.47.17-.47.51l.44,5.49.12.04c2.46.77,5.04,1.14,7.88,1.14,3.89,0,8.45-.66,14.37-2.07,1.4,2.35,2.32,4.09,2.82,5.32,0,.04.02.08.03.12,0,.02.01.05.02.05,0,.03,0,.06,0,.08-.79-.1-3.57-.43-6.97-.43-10.62,0-16.7,3.32-16.7,9.1s7.31,10.17,17.78,10.17c2.96,0,6.77-.56,9.05-1.08.41-.08.48-.27.48-.66.11-1.8,1.07-5.97,1.08-6.01l.08-.35-.34.12c-3.54,1.29-7.33,2.04-10.4,2.04-5.62,0-11.62-1.21-11.62-4.61,0-2.45,3.33-3.69,9.9-3.69,3.99,0,8.12.88,10.52,2.23.03.03.23.14.77.14h.02c.33-.06,4.58-1.14,4.76-1.19l.19-.05-.05-.19c-.94-3.5-3.23-7.34-6.36-12.35,2.46-.71,9.23-2.72,9.23-3.35Z"/><path class="cls-1" d="m172.25,46.76c0,3.71,4.57,7.69,11.36,7.69s9.68-3.93,10.35-7.69c1.63.7,6.13,2.81,9.2,6.01l.05.04s.07.04.09.05c.06.04.12.08.21.08.07,0,.13-.03.16-.05h.07l4.74-4.04.18-.15-.18-.15c-3.86-3.11-8.79-5.58-14.66-7.33-.05-1.1-.14-2.35-.22-3.66-.08-1.26-.17-2.61-.25-4.01,2.91-.39,6.93-1.03,9.95-1.87.23-.08.28-.28.31-.41,0-.03.02-.06.02-.09v-5.58s-.26.11-.26.11c-3.3,1.35-7.36,2.15-10.26,2.6-.05-1.99-.1-4.11-.15-6.24,4.31-.54,8.25-1.13,11.67-1.76.34,0,.4-.27.44-.44l.2-5.23-.24.05c-3.55.75-7.59,1.41-12.01,1.97.06-1.79.16-4.29.26-5.84,1-.33,1.46-.69,1.46-1.12s-.55-.73-1.36-.79c-1.71-.16-5.95-.38-6-.38h-.21s.03.76.03.76c.1,2.54.19,4.93.19,7.09v.9c-4.61.45-6.79.52-7.68.52-2.97,0-5.57-.47-8.66-1.55-.15-.07-.29-.07-.36-.07-.19,0-.41.09-.41.52v.34c.09.22.58,3.2.87,5.03l.02.11.1.04c1.77.7,4.1,1.04,7.14,1.04,1.43,0,3.76-.07,9.09-.62.05,2.35.11,4.34.2,6.35-.56.06-1.1.08-1.62.1-.31.01-.6.02-.87.04-.37,0-.74.02-1.07.03-.29.01-.57.02-.82.02-2.96,0-3.04-.45-3.04-.51,0-.09.23-.28,1.31-1.15l1-.81-5.03-.89-.11.08c-1.98,1.5-3.54,2.68-3.54,4.55,0,2.39,3.58,3.81,9.58,3.81.27,0,.55-.01.83-.03.29-.01.59-.03.9-.03.87,0,1.78-.05,2.78-.14l.3,6.04c-1.34-.16-2.61-.24-3.79-.24-7.35,0-12.28,2.76-12.28,6.88Zm5.67.05c0-2.03,4.6-2.13,5.53-2.13,1.66,0,3.41.23,5.07.66-.4,2.46-2.3,3.87-5.23,3.87-1.87,0-5.37-.7-5.37-2.4Z"/><path class="cls-1" d="m222.64,45.5c2.96-5.59,8.47-15.98,11.74-24.8,2.41-.55,5.19-1.26,7.84-2.03l.15-.04-.29-5.65-.25.09c-1.62.6-3.63,1.26-5.97,1.95.3-1.17.64-2.54.86-3.54.9-.14,1.54-.59,1.54-1.09,0-.17-.1-.73-1.35-.89-.58-.09-1.96-.23-3.31-.36-1.07-.11-2.09-.21-2.64-.28l-.21-.03v.21c-.12,3.43-.91,6.53-1.2,7.56-1.6.34-3.46.67-5.3.67-2.11,0-3.98-.47-6.3-1.23-.19-.06-.32-.06-.44-.06-.2,0-.41.12-.41.46,0,.05.01.09.03.14.01.04.03.09.03.16l.92,4.91.02.11.11.04c1.73.56,3.31.82,4.97.82,1.27,0,2.66-.14,4.24-.44l.63-.11c-3.57,9-10.38,19.88-11.73,21.99l-.15.23,6.41,1.33.07-.13Z"/><path class="cls-1" d="m237.58,54.18c5.13,0,9.38-2.89,10.43-7.06,1.45.89,4.56,2.92,6.75,5.17.08.08.23.16.35.16.09,0,.16-.04.22-.08.02-.01.05-.03.09-.05l4.41-3.95-.16-.14c-2.78-2.55-8.14-5.57-11.6-6.95-.03-.5-.07-1.03-.11-1.56-.1-1.46-.21-2.97-.21-4.51,0-1.89.14-3.41.45-4.74.92-.19,1.49-.59,1.49-1.08,0-.28-.21-.67-1.24-.89-1.29-.21-5.35-.53-5.52-.54l-.17-.02-.03.17c-.29,1.4-.33,3.27-.33,4.73,0,1.9.1,3.88.19,5.8.02.44.04.87.06,1.3-1.44-.29-3.04-.44-4.65-.44-6.18,0-10.66,2.98-10.66,7.1s4.78,7.58,10.23,7.58Zm-4.82-7.64c0-1.11,1.73-2.29,4.93-2.29,1.66,0,3.5.33,5.07.9-.46,2.65-3,3.84-5.34,3.84-2.67,0-4.66-1.29-4.66-2.45Z"/><path class="cls-1" d="m243.28,19.11l-.17.02v.17c-.02.19-.49,2.7-.81,4.37v.16c0,.41.3.43.74.41.8-.06,1.6-.06,2.36-.06,5.12,0,9.16,1.08,11.36,3.02.13.14.23.16.35.16.26,0,.35-.26.4-.4l1.62-4.75.04-.12-.09-.09c-2.87-2.63-9.19-3.02-12.7-3.02-1.11,0-2.18.06-3.09.11Z"/><path class="cls-1" d="m272.26,53.86c1.8-3.6,3.51-7.02,5.13-10.36l.06.37s.81,5.02.81,6.99c0,.94,2.98,2.24,5.91,2.24,3.82,0,8.64-2.15,10.71-8.17,1.11-3.32,1.79-7.89,1.79-11.93,0-7.82-2.42-11.31-7.86-11.31-.65,0-1.31.05-2.02.16h-.07c.91-2.81,1.8-6.12,2.2-7.71,1.09-.09,1.82-.5,1.82-1.05,0-.3-.19-.71-1.11-.94-1.29-.37-6.23-1.21-6.44-1.24l-.21-.04-.02.21c-.27,3.42-1.14,7.27-2.65,11.77-3.39.64-5.99,1-9.19,1-1.36,0-2.61-.06-3.72-.16h-.22c-.14,0-.47,0-.47.36,0,.07.03.16.09.34l1.69,5.46h.14c2.17,0,4.55-.28,7.28-.87.68-.17,1.45-.37,2.22-.52-3.29,7.88-7.96,16.28-12.53,24.19l-.14.25,6.73,1.09.06-.13Zm12.43-26.62c.7-.11,2.28-.31,2.78-.31,2.82,0,3.31,1.78,3.31,5.52,0,3.43-.65,7.81-1.55,10.4-.94,2.59-2.78,4.02-5.16,4.02-2.19,0-4.59-1.22-6.27-3.17l-.32-.37c2.63-5.42,5.03-10.64,7.22-16.1Z"/><path class="cls-1" d="m297.68,24.92c6.57,3.7,10.38,8.93,11.02,15.15.04.16.12.47.4.47.08,0,.18-.03.36-.13l5.18-2.64.11-.06v-.13c-.43-5.44-4.75-11.07-12.18-15.85l-.09-.06-4.73,2.14c-.19.08-.55.22-.55.56,0,.16.19.37.48.55Z"/><polygon class="cls-1" points="358.79 30.54 342.44 30.54 342.44 13.82 338.17 13.82 338.17 30.54 321.82 30.54 321.82 34.6 338.17 34.6 338.17 51.33 342.44 51.33 342.44 34.6 358.79 34.6 358.79 30.54"/><path class="cls-1" d="m410.79,56.72v-20.32c0-.8,0-2.31.04-2.85.91-.14,1.52-.58,1.52-1.09,0-.39-.42-.83-1.58-.89-.8-.05-5.14-.27-5.18-.27h-.23s.03.22.03.22c.03.2.04.66.05,1.19.01.37.02.79.04,1.19h-23.29v-.09c1.11-.29,1.35-.71,1.35-1.01,0-.41-.53-.72-1.3-.79-.91-.11-5.02-.26-5.19-.27h-.22s.02.21.02.21c0,.03.22,3.1.27,5.87v.76c0,5.99-1.09,12.12-8.96,16.34l-.44.23.48.12s3.82.98,5.25,1.84c.11.11.23.11.3.11h.05l.04-.02c2.42-1.26,7.21-5.78,8.12-13.95h8.8v13.16h4.81v-13.16h9.92v8.55c-2.85-3.42-4.85-7.44-4.87-7.49l-.07-.14-4.04,1.19.1.2c.03.06,2.79,5.88,5.34,9.28.09.17.27.27.39.27.07,0,.17,0,.28-.09.79-.44,2.02-.8,2.88-1.04v2.75h5.3Zm-5.3-19.26v2.15h-23.3v-2.15h23.3Z"/><path class="cls-1" d="m414.48,31.79c.12,0,.24,0,.34-.09,1.2-.99,4.34-2.12,4.37-2.13l.45-.16-.44-.2c-5.12-2.33-7.21-6.77-7.92-8.77.58-.2,1.14-.39,1.61-.56.34-.12.65-.23.9-.31.45.33.89.51,1.22.51.46,0,.62-.27.62-.51,0-.75-2.51-3.01-3.31-3.69h4.98v-4.38h-20.83c0-.39.05-.92.08-1.47l.02-.23c1.24-.27,1.84-.66,1.84-1.19,0-.5-.61-.89-1.47-.95-1.77-.21-6.02-.27-6.06-.27h-.21s.02.21.02.21c.15,1.68.16,3.07.16,3.89h-20.23v4.38h18.35l-2.43,1.4.23.18s.25.19.6.51h-16.11v3.57h5.05c-.55,3.73-3.17,6.5-7.78,8.26l-.48.18.48.18s3.26,1.24,4.09,2.06c.11.11.23.11.3.11.12,0,.21,0,.36-.08,1.95-1.07,3.54-2.44,4.85-4.19.46.79,1.2,2.09,1.4,2.9.08.23.25.34.48.34h0c.44.05.89.05,1.32.05,6.18,0,6.86-4.66,7.09-12.39.63.7,1.41,1.66,1.97,2.78l.1.2,3.59-2.45-.12-.16c-.67-.9-1.77-2.2-3.32-3.46h6.36c-.64,1.26-2.2,3.83-4.42,6.25h-1.4v10.31h4.87v-8.42c1.48-1.53,3.18-3.78,4.04-4.95v7.94c-1.18.16-2.16.24-2.99.24h-.26l.1.34c1.35,4.74,1.97,4.74,2.21,4.74.3,0,.68-.24.78-1.37.62-.1,2.67-.45,4.59-.82,4.81-.93,4.81-1.17,4.81-1.4v-.16c-.11-.41-.11-1.17-.11-1.79v-.95c2.11,3.78,4.66,5.94,5.26,5.94Zm-30.58-10.25c-.13,4.91-1.05,5.71-3.15,5.71-.61,0-1.25-.07-1.91-.21.96-1.65,1.58-3.5,1.86-5.5h3.19Zm17.14-3.13c.61,0,1-.22,1-.57,0-.2,0-.55-2.85-1.97h12.41c-1.12.67-4.88,2.33-8.46,3.17-.26-.03-.6-.08-.97-.13-.9-.12-1.54-.21-1.8-.23.09-.13.17-.23.22-.3.17.03.32.03.45.03Zm7.93,7.02c-.95.28-2.7.64-4.5.93v-3.82c.86-.2,1.86-.48,2.92-.83.45,1.36,1,2.61,1.59,3.72h-.02Z"/><path class="cls-1" d="m383.94,55.43c.12,0,.2-.09.26-.17.02-.03.05-.07.1-.11,2.64-3.03,4.11-7.47,4.37-8.3.93-.04,1.34-.44,1.34-.84,0-.33-.3-.66-.72-.78-.44-.16-4.23-1-4.39-1.03l-.21-.05-.03.21c0,.05-.75,5.32-5.5,9.59l-.3.27.41.06s3.13.48,4.4,1.05c.1.08.21.08.27.08Z"/><path class="cls-1" d="m453.6,44.92c-1.72.89-6.26,3.1-11.13,4.35l-.23.06.11.22s1.42,2.83,2.17,4.06c.3.48.56.69.87.69.39,0,.68-.47.68-1.11,0-.12,0-.27-.02-.41,3.5-1.23,6.14-2.5,7.74-3.35l.06-.04c.11-.11.21-.21.21-.4v-.17c-.16-.45-.16-1.59-.16-2.42v-1.61l-.28.15Z"/><path class="cls-1" d="m470.37,54.46c.68-1.2,3.24-3.71,3.26-3.73l.25-.24-.34-.09c-4.58-1.17-7.9-2.63-11.11-4.88l-.15-.11-2.61,3.38.16.12c4.13,3,9.44,5.81,10.09,5.81.19,0,.36-.1.44-.26Z"/><path class="cls-1" d="m459.22,18.41v-1.89h13.98v-4.81h-13.98v-.23s.04-.93.09-1.41c1.01-.23,1.64-.68,1.64-1.19,0-.22-.13-.6-1.03-.79-1.5-.21-5.67-.37-5.85-.37h-.22s.02.21.02.21c.1,1.01.16,3.25.16,3.27v.51h-9.22v-.23s.04-.93.09-1.41c.97-.22,1.58-.66,1.58-1.13,0-.43-.34-.72-1.03-.84-1.5-.21-5.67-.37-5.85-.37h-.22s.02.21.02.21c.1,1.01.16,3.25.16,3.27v.51h-13.76v4.81h13.76v2.48h5.24v-2.48h9.22v1.89h5.19Z"/><path class="cls-1" d="m428.71,56.53c.1.09.21.09.27.09.19,0,1.54-1.34,2.72-5.16l.25.34s2.36,3.22,2.67,4.46c.09.36.34.36.57.36,3.66,0,7.05-.66,7.05-5.43v-.11c0-.14,0-.44-.02-.85-.03-1.03-.09-2.75-.09-4.82v-2.16c.83.44,1.73.96,2.1,1.33.12.12.22.22.41.22.15,0,.41-.13,2.56-1.84.09-.07.16-.12.21-.17,1.19.68,2.55,1.5,3.8,2.51l.15.12,2.95-3.53-.16-.12c-.86-.69-2.05-1.39-3.53-2.07,1.01-1.17,1.91-2.42,2.71-3.73h8.31c.73,1.09,1.53,2.23,2.46,3.29-1.61,1.2-3.41,2.18-4.43,2.6l-.06.02v-1.09s0-1.22.05-1.93c1.04-.15,1.41-.61,1.41-.98,0-.34-.3-.72-.98-.79-1.07-.11-5.09-.37-5.13-.38l-.22-.02.02.22c.1,1.44.16,3.63.16,3.65v10.14c0,1.17-.72,1.7-2.34,1.7-.8,0-1.71-.14-2.51-.27-.43-.07-.83-.13-1.19-.17l-.44-.05.27.36s2.19,2.89,2.5,4.05c.09.25.32.4.62.4h.86c3.03,0,7.05-.55,7.05-5.27l-.11-2.97v-6.33h0s2.08,1.77,2.49,2.58c.04.08.13.27.39.27.1,0,.17-.03.22-.05l.08-.02c1.85-.82,3.31-1.79,4.39-2.58,1.92,1.64,2.67,1.92,2.7,1.93h.06c.1.01.2,0,.35-.15,1.1-1.09,4.13-2.59,4.16-2.61l.36-.18-.36-.17c-2.86-1.36-5.33-3.12-7.35-5.24h5.46v-4.06h-8.55c-.56-.97-1.05-1.94-1.39-2.8h8v-3.95h-4.99c.62-1.15,1.17-2.35,1.37-2.91h.3c1.34,0,1.54-.49,1.54-.78,0-.34-.29-.68-.77-.89-.86-.32-4.5-1.31-4.66-1.35l-.2-.06-.04.2s-.6,2.76-2.14,5.79h-3.2c.33-1.4.6-2.76.79-4.06.82-.1,1.53-.55,1.53-.99,0-.66-.67-.75-5.95-1.27l-.21-.02v.2c-.04,1.06-.21,3.25-.93,6.13h-1.07c-1.13-2.55-2.85-5.75-2.87-5.78l-.08-.15-3.94,1.47-.23.09.14.2s1.39,2.1,2.25,4.18h-2.77v3.95h7.31c-.32.87-.73,1.76-1.29,2.8h-7.63v4.06h4.98c-1.62,2.03-3.54,3.7-5.72,4.98v-20.9h-13.34v.2c0,.08.11,7.53.11,10.84,0,9.17,0,18.65-5.13,24.31l-.26.29.39.03s3.7.32,4.82.83Zm8.77-23.12v5.17h-3.92c.05-1.8.05-3.58.05-5.17h3.88Zm0-9.01v4.85h-3.88v-4.85h3.88Zm18.03,7.49c.39-.88.77-1.82,1.13-2.8h1.61c.27.78.66,1.74,1.13,2.8h-3.88Zm-23.79,19.53c.63-2.06,1.22-4.84,1.54-8.52h4.22v7.2c0,1.33-.44,1.75-1.81,1.75-.79,0-1.81-.14-3.21-.33l-.74-.1Z"/><path class="cls-1" d="m528.77,31.47v-4.71h-14.72c-.8-1.03-1.5-2.08-2.04-3.07h12.11v-4.27h-19.83c.32-.94.56-1.86.79-2.75h20.87v-4.54h-19.92c.1-.5.18-.97.26-1.42.05-.3.1-.58.15-.86,1.13-.22,1.7-.57,1.7-1.03s-.54-.84-1.25-.89c-.81-.1-2.57-.21-3.98-.3-.86-.05-1.68-.11-1.78-.12l-.22-.05v.23c-.05,1.23-.19,2.69-.42,4.45h-16.96v4.54h16.08c-.26.98-.49,1.84-.81,2.75h-13.59v4.27h11.85c-.57,1.11-1.15,2.12-1.78,3.07h-14.39v4.71l10.74-.16c-3.24,3.3-7.41,5.93-12.39,7.82l-.43.16.42.19s4.29,2,5.12,2.93c.07.07.16.16.3.16s.21-.05.29-.09c.02-.01.04-.03.07-.04.79-.41,1.56-.84,2.31-1.29v4.44l13.06-.11c-2.68,4.04-8.74,6.25-19.03,6.95l-.54.04.44.31s4.12,2.95,4.68,4.06c.07.22.24.35.45.35.06,0,.11-.02.17-.03.02,0,.04-.02.08-.02,8.65-1.27,15.13-4.68,18.28-9.62,2,2.63,7.46,8.26,17.9,9.13.18,0,.42,0,.59-.25,1-1.47,4.67-4.57,4.71-4.6l.41-.34h-1.23c-10.57,0-15.84-3.6-18.16-5.98l12.76.1h.19s0-4.59,0-4.59h-15.07c.02-.16.02-.31.02-.45,0-.8,0-1.51.04-2.29h8.97v-2.29c2.57,2.28,5.46,4.23,8.62,5.78l.04.03h.05s.12.05.22.05c.12,0,.28-.09.35-.17,1.26-1.26,5.25-3.23,5.29-3.25l.43-.21-.45-.15c-4.69-1.51-8.8-3.78-12.22-6.74l10.21.16h.2Zm-26.77,6.8c0,.31-.02.62-.03.94-.02.38-.03.76-.03,1.14,0,.2,0,.45-.03.67h-14.34c2.15-1.31,4.12-2.76,5.94-4.39v1.64h8.47Zm11.92-4.32h-17.72c.87-.98,1.59-1.86,2.2-2.69h13.13c.72.9,1.52,1.81,2.38,2.69Zm-7.21-10.24c.41.86.98,1.91,1.67,3.07h-7.15c.59-1.08,1.09-2.18,1.47-3.07h4.01Z"/><path class="cls-1" d="m586.27,51.6c-10.33-4.5-18.46-14.07-21.78-25.63h19.2v-5.57h-20.27c.08-1.12.3-5.71.3-9.42,1.13-.3,1.78-.76,1.78-1.28,0-.83-1.34-1.04-7.96-1.27h-.22s.02.21.02.21c.11,1.15.16,3.38.16,6.46v3.29c0,.64-.05,1.34-.09,2.02h-19.71v5.57h18.95c-1.79,8.61-6.99,20.15-21.53,26.71l-.42.19.43.17s4.78,1.84,6.25,3.19c.11.11.23.11.3.11.08,0,.16,0,.31-.08,8.43-4.91,15.31-13.74,18.95-24.29,6.25,17.11,17.92,23.72,18.61,23.72.15,0,.25-.01.4-.16,1.52-1.47,6.26-3.56,6.31-3.58l.41-.18-.41-.18Z"/><path class="cls-1" d="m558.23,42.6l-.12-.06-4.13,3.55.22.14c.07.04,6.59,4.24,9.77,8.31l.13.17,4.61-4.49-.14-.14c-3.54-3.65-10.28-7.44-10.35-7.48Z"/></svg>
