<?xml version="1.0" encoding="UTF-8"?><svg id="_レイヤー_1" xmlns="http://www.w3.org/2000/svg" viewBox="0 0 660 68.1"><defs><style>.cls-1{fill:#ffc6c6;}</style></defs><path class="cls-1" d="m5.46,44.71l6.41,1.33.07-.13c2.96-5.59,8.47-15.98,11.74-24.8,2.41-.55,5.19-1.26,7.84-2.03l.15-.04-.29-5.65-.25.09c-1.62.6-3.63,1.26-5.97,1.95.3-1.17.64-2.54.86-3.54.9-.14,1.54-.59,1.54-1.09,0-.17-.1-.73-1.35-.89-.58-.09-1.96-.23-3.31-.36-1.07-.11-2.09-.21-2.64-.28l-.21-.03v.21c-.12,3.43-.91,6.53-1.2,7.56-1.6.34-3.46.67-5.3.67-2.11,0-3.98-.47-6.3-1.23-.19-.06-.32-.06-.44-.06-.2,0-.41.12-.41.46,0,.05.01.09.03.14.01.04.03.09.03.16l.92,4.91.02.11.11.04c1.73.56,3.31.82,4.97.82,1.27,0,2.66-.14,4.24-.44l.63-.11c-3.57,9-10.38,19.88-11.73,21.99l-.15.23Z"/><path class="cls-1" d="m32.29,24.65h.04c.8-.06,1.6-.06,2.36-.06,5.12,0,9.16,1.08,11.36,3.02.13.14.23.16.35.16.26,0,.35-.26.4-.4l1.62-4.75.04-.12-.09-.09c-2.87-2.63-9.19-3.02-12.7-3.02-1.11,0-2.18.06-3.09.11l-.17.02v.17c-.02.19-.49,2.7-.81,4.37v.16c0,.4.29.41.7.41Z"/><path class="cls-1" d="m26.87,54.59c5.13,0,9.38-2.89,10.43-7.06,1.45.89,4.56,2.92,6.75,5.17.08.08.23.16.35.16.09,0,.16-.04.22-.08.02-.01.05-.03.09-.05l4.41-3.95-.16-.14c-2.78-2.55-8.14-5.57-11.6-6.95-.03-.5-.07-1.03-.11-1.56-.1-1.46-.21-2.97-.21-4.51,0-1.89.14-3.41.45-4.74.92-.19,1.49-.59,1.49-1.08,0-.28-.21-.67-1.24-.89-1.29-.21-5.35-.53-5.52-.54l-.17-.02-.03.17c-.29,1.4-.33,3.27-.33,4.73,0,1.9.1,3.88.19,5.8.02.44.04.87.06,1.3-1.44-.29-3.04-.44-4.65-.44-6.18,0-10.66,2.98-10.66,7.1s4.78,7.58,10.23,7.58Zm-4.82-7.64c0-1.11,1.73-2.29,4.93-2.29,1.66,0,3.5.33,5.07.9-.46,2.65-3,3.84-5.34,3.84-2.67,0-4.66-1.29-4.66-2.45Z"/><path class="cls-1" d="m73.69,38.89c1.35,0,8.26.14,12.19,2.93l.05.03h.06s.04,0,.07.02c.09.05.27.03.35,0,.03-.01.05-.02.11-.02.5-.11,4.91-1.83,5.1-1.9l.15-.06-.03-.16c-.69-3.91-5.44-9.92-10.04-15.74l-.26-.33h.02c3.49-1.09,6.98-2.54,8.88-3.68.11-.06.21-.11.21-.28,0-.08,0-.17-.07-.3l-3.48-4.24-.11-.14-.19.12c-1.85,1.22-3.95,2.6-8.15,3.61l-.8.19c-2.1-2.73-3.51-4.95-4.2-6.6.55-.32.92-.75.92-1.11,0-.31-.28-.62-.89-.62-.07,0-.13.01-.19.03-.06.01-.12.03-.21.03-1.66.22-6.18,1.23-6.22,1.25l-.24.05.11.22c1.17,2.39,3.44,5.41,5.55,8.1-3.14.66-5.24.8-6.46.8-2.99,0-5.26-.85-8.38-2.41l-.03-.03h-.05s-.1-.05-.17-.05c-.2,0-.36.17-.36.4l-.32,5.51v.12s.09.06.09.06c2.27,1.34,5.17,2.02,8.62,2.02s7.16-.8,10.88-1.59c2.61,3.17,6.39,8.06,6.61,9.19h-.17s-.18-.02-.41-.04c-1.11-.12-4.48-.5-7.48-.5-10.98,0-17.03,3.61-17.03,10.17,0,3.8,2.35,6.79,6.8,8.65,4.47,1.87,9.46,2.01,10.88,2.01,2.54,0,6.11-.34,9.09-.86.42-.07.52-.25.59-.6.21-1.85,1.44-6.13,1.45-6.17l.09-.32-.33.08c-4.93,1.23-8.55,1.83-11.07,1.83h-.33c-4.97,0-8.62-.91-10.31-2.58-.72-.72-1.09-1.58-1.09-2.57,0-2.82,3.8-4.5,10.17-4.5Z"/><path class="cls-1" d="m105.4,51.46l.14.03.07-.12c.98-1.71,2.05-3.58,3.2-5.61,1.18-2.08,2.45-4.32,3.8-6.68,0,0,.02-.02.02-.03-.42,5.2-.65,10.19-.69,15.24v.2s6.14-.28,6.14-.28h.2s-.02-.21-.02-.21c-.14-2.01-.22-4.34-.22-7.1,0-5.35.3-10.15.43-11.96l.05-.79.03-.03c4.67-4.17,9.01-6.29,12.89-6.29,5.45,0,8.33,2.42,8.33,6.99,0,6.32-7.59,11.34-19.8,13.08l-.49.07.41.28s4.09,2.81,5.29,4.59c.12.18.27.36.54.36,1.39,0,20.37-5.01,20.37-18,0-7.15-5.97-12.55-13.9-12.55-3.01,0-7.72.78-13.16,4.45.45-6.33.84-10.96,1.2-14.13.81-.19,1.36-.6,1.36-1.02s-.4-.67-1.2-.79c-1.98-.21-6.07-.38-6.11-.38h-.22s.02.21.02.21c.05.69.05,1.56.05,2.57,0,2.75-.11,6.15-.31,9.58-3.85,1.66-9.89,3.35-12.59,3.72-.2.05-.42.13-.42.46,0,.08,0,.24.1.34l3.99,4.64.09.1.12-.05c2.48-.87,6.61-2.97,8.2-3.88-.9,1.83-6.68,11.9-13.96,20.45-.18.18-.33.33-.33.51,0,.34,0,.42,6.35,2.03Z"/><polygon class="cls-1" points="170.38 51.73 174.65 51.73 174.65 35.01 191 35.01 191 30.95 174.65 30.95 174.65 14.23 170.38 14.23 170.38 30.95 154.03 30.95 154.03 35.01 170.38 35.01 170.38 51.73"/><path class="cls-1" d="m218.7,35.97c1.51.7,2.32,2.19,2.68,4.96l.29,2.11c.55,4.07,1.06,7.91,1.68,9.44.07.19.26.32.46.32h5.77c.16,0,.31-.08.41-.21.09-.13.12-.31.06-.45-1.53-4.45-1.96-8.24-2.41-12.25-.45-4.12-1.76-6.17-4.8-7.34,3.9-1.59,6.21-5.07,6.21-9.44,0-2.41-.92-10.27-12.75-10.27h-14.94c-.28,0-.5.22-.5.5v38.96c0,.28.22.5.5.5h5.34c.28,0,.5-.22.5-.5v-17.09h6.03c1.89,0,4.01.09,5.45.76Zm-11.59-17.59h8.24c4.75,0,7.05,1.9,7.05,5.81,0,1.06-.37,3.14-1.75,4.19-1.06.81-2.23,1.25-5.36,1.25h-8.19v-11.25Z"/><path class="cls-1" d="m268.69,13.1c-.09-.16-.26-.26-.44-.26h-6.04c-.17,0-.33.09-.43.24l-11.23,18.4-11.07-18.39c-.09-.15-.25-.24-.43-.24h-6.69c-.18,0-.35.1-.44.26-.09.16-.08.36.02.51l15.14,23.51v15.18c0,.28.22.5.5.5h5.45c.28,0,.5-.22.5-.5v-14.91l15.13-23.78c.1-.15.11-.35.02-.51Z"/><path class="cls-1" d="m288.24,53.71c11.77,0,18.52-7.75,18.52-21.27s-6.57-20.62-18.03-20.62-18.58,7.97-18.58,21.32,6.42,20.57,18.09,20.57Zm-11.42-20.95c0-10.08,4.1-15.41,11.86-15.41s11.37,4.97,11.37,14.77c0,3.37-.47,8.14-2.73,11.7-1.8,2.82-4.9,4.31-8.97,4.31-3.67,0-6.44-1.15-8.24-3.43-2.86-3.59-3.29-9.02-3.29-11.94Z"/><path class="cls-1" d="m338.37,31.82c-2.06-.92-4.81-1.6-8.33-2.47l-2.76-.69c-4.4-1.12-6.37-2.14-6.37-5.24,0-3.64,3.06-5.81,8.19-5.81s7.45,1.84,7.65,5.47c.02.26.24.47.5.47h5.61c.13,0,.25-.05.36-.15.09-.09.14-.22.14-.36-.1-6.97-5.14-10.96-13.83-10.96-9.17,0-15.34,4.77-15.34,11.89,0,4.8,2.89,7.27,4.62,8.3,2.09,1.25,4.83,1.92,8.31,2.78,1.74.43,3.71.92,5.83,1.54,3.47,1.03,4.82,2.45,4.82,5.08,0,3.98-3.3,6.46-8.62,6.46-6.1,0-8.84-2.23-8.89-7.22,0-.27-.23-.49-.5-.49h-5.61c-.28,0-.5.22-.5.5v.65c0,7.84,5.29,12.15,14.91,12.15s15.82-4.96,15.82-12.64c0-4.42-1.97-7.45-6.02-9.25Z"/><path class="cls-1" d="m379.66,52.3v-4.75c0-.28-.22-.5-.5-.5h-18.98v-11.95h17.63c.28,0,.5-.22.5-.5v-4.53c0-.28-.22-.5-.5-.5h-17.63v-11.14h18.55c.28,0,.5-.22.5-.5v-4.59c0-.28-.22-.5-.5-.5h-24.44c-.28,0-.5.22-.5.5v38.96c0,.28.22.5.5.5h24.87c.28,0,.5-.22.5-.5Z"/></svg>
