<?xml version="1.0" encoding="UTF-8"?><svg id="_レイヤー_1" xmlns="http://www.w3.org/2000/svg" viewBox="0 0 660 68.1"><defs><style>.cls-1{fill:#ffc6c6;}</style></defs><path class="cls-1" d="m42.04,43.11c.05-.05.22-.23.22-.41,0-.15-.06-.28-.13-.42-.84-1.53-2.13-6.65-2.14-6.7l-.1-.42-.24.36c-.7,1.01-3.27,4.57-7.14,7.74-4.08,3.34-8.1,5.02-11.96,5.02-6.45,0-6.98-4.32-6.98-9.14,0-3.56.38-8.13.79-12.98.32-3.84.65-7.81.82-11.58,1.06-.25,1.73-.77,1.73-1.34,0-.18-.09-.78-1.24-.94-1.45-.27-5.42-.6-7.04-.65h-.21s0,.2,0,.2c.06,1.53.11,2.91.11,4.26,0,4.11-.26,8.18-.51,12.12-.24,3.77-.46,7.32-.46,10.76,0,4.63,0,15.46,12.76,15.46,9.67,0,18.21-7.13,21.72-11.33Z"/><path class="cls-1" d="m59.98,38.44c.43-1.26.84-2.44,1.08-3.18l.02-.07-.03-.07c-.76-1.73-2.16-4.85-2.16-4.85l-.18-.41-.17.41c-.23.56-1.22,3.19-2.08,5.5-.55,1.47-1.05,2.81-1.27,3.36-.17.53-.3.78-.36.9-.03-.16-.07-.48-.07-1.17,0-1.56.19-3.23.34-4.57l.03-.26h0c.54-5.16,1.77-10.26,2.77-14.35.37-1.54.7-2.89.93-3.99.74-.08,1.43-.37,1.43-.88,0-1.04-4.78-2.35-6.22-2.72-.27-.11-.46-.17-.67-.17-.41,0-.41.39-.41.83-.12,2.65-.57,5.27-1.1,8.31-.69,3.96-1.54,8.9-1.97,15.85-.05.66-.05,1.26-.05,1.9,0,5.68,1.31,11.53,3.27,14.57l.07.11.13-.03s3.29-.76,3.82-.86c.33-.06.48-.23.48-.51,0-.08-.02-.14-.03-.2-.01-.05-.02-.09-.02-.14-.11-.8-.16-1.55-.16-2.29,0-2.84.76-5.54,1.5-7.82.34-1.02.73-2.14,1.08-3.18Z"/><path class="cls-1" d="m62.73,45.02c0,4.95,6.13,7.58,10.55,7.58,4.89,0,8.72-3,9.43-7.33,1.44.85,4.5,2.84,6.8,5.6.09.18.2.27.33.27s.24-.1.34-.21l4.26-3.78.15-.13-.14-.14c-2.31-2.42-7.55-5.91-12.04-7.4-.15-2.75-.31-5.91-.42-9.03,3.31-.57,5.96-1.09,8.31-1.65l.15-.03.12-5.63-.24.06c-2.53.58-5.46,1.24-8.45,1.79,0-1.9.05-3.77.09-5.75v-.38c.57-.08,1.14-.16,1.72-.25,1.69-.24,3.44-.5,5.36-.81l.16-.03v-5.25l-.22.03c-8.09,1.26-13.61,2-17.88,2-2.41,0-4.31-.23-5.8-.69-.15-.07-.29-.07-.36-.07-.1,0-.41.03-.41.46,0,.14.71,4.63.76,4.85l.03.11.1.03c1.34.41,2.96.6,5.24.6,1.84,0,3.84-.12,5.96-.36.02,1.05.04,2.1.05,3.16.01,1.06.02,2.13.05,3.2-2.07.28-3.88.41-5.52.41-3.06,0-5.45-.49-7.3-1.49-.11-.06-.25-.13-.41-.13-.23,0-.35.19-.35.57v.3s.82,4.73.82,4.73l.08.05c1.38.81,3.6,1.21,6.79,1.21,1.98,0,3.98-.12,5.96-.35.05,2.39.15,4.78.3,7.11-1.16-.19-2.38-.29-3.62-.29-6.34,0-10.76,2.9-10.76,7.05Zm5.46.05c0-1.34,2.14-2.34,4.99-2.34,1.42,0,2.91.25,4.22.7-.3,2.61-1.91,4.1-4.43,4.1-.95,0-4.77-.44-4.77-2.45Z"/><path class="cls-1" d="m115.5,45.53c5.18-5.83,10.68-16.44,10.68-24.63,0-.69-.04-1.36-.13-1.99,7.06.89,12.15,6.27,12.15,12.89,0,10.94-11.06,15.63-21.4,16.37l-.53.04.43.31s4.68,3.4,5.82,4.95c.08.17.25.27.44.27.77,0,6.15-1.13,11.29-4.34,4.68-2.92,10.27-8.31,10.27-17.38s-7.1-18.32-20.26-18.32c-6.39,0-12.47,2.53-17.13,7.14-4.36,4.3-6.86,9.8-6.86,15.07,0,6.59,4.55,12.82,9.37,12.82,1.98,0,3.95-1.07,5.86-3.19Zm4.45-26.22c.07.51.07,1.06.07,1.59,0,6.63-4.42,15.45-8.69,20.15-.64.69-1.3,1.07-1.85,1.07-1.08,0-3.53-2.39-3.53-6.33,0-6.78,6.52-14.43,14-16.48Z"/><polygon class="cls-1" points="173.79 51.1 173.79 34.37 190.14 34.37 190.14 30.31 173.79 30.31 173.79 13.59 169.52 13.59 169.52 30.31 153.17 30.31 153.17 34.37 169.52 34.37 169.52 51.1 173.79 51.1"/><path class="cls-1" d="m220.05,27.02v20.4h4.81v-1.73h17.42v1.19h4.87v-19.87h-11.39v-2.47h14.57v-4.49h-8.79v-3.18h7.44v-4.38h-7.44v-.67s0-1.03.09-2c1.23-.3,1.42-.83,1.42-1.12,0-.31-.25-.7-.97-.84-1.08-.16-5.34-.31-5.52-.32h-.22s.02.21.02.21c.1,1.49.16,3.64.16,3.65v1.1h-5.98v-.67s0-1.03.09-2c.89-.22,1.47-.67,1.47-1.12,0-.43-.32-.71-.97-.84-1.08-.16-5.34-.31-5.52-.32h-.22s.02.21.02.21c.1,1.48.11,3.63.11,3.65v1.1h-7.12v4.38h7.12v3.18h-8.04v4.49h13.38v2.47h-10.79Zm16.46-10.14v3.18h-5.98v-3.18h5.98Zm5.77,21.53v3.07h-6.52v-3.07h6.52Zm-6.52-4.16v-2.96h6.52v2.96h-6.52Zm-4.92,4.16v3.07h-5.98v-3.07h5.98Zm0-7.12v2.96h-5.98v-2.96h5.98Z"/><path class="cls-1" d="m247.48,56.21h.05s.04.02.06.03c.05.02.11.03.17.03.13,0,.3-.09.39-.27.73-1.46,3.7-4.01,3.73-4.04l.31-.27-.4-.07c-7.16-1.33-13.03-5.27-13.09-5.31l-.12-.08-3.87,3.28.21.14c.07.05,6.68,4.63,12.57,6.56Z"/><path class="cls-1" d="m231.41,51.26c.52,0,.84-.28.84-.73,0-.21-.08-.42-.26-.66-1.08-1.29-3.75-3.45-3.86-3.54l-.12-.1-.12.1c-.06.05-6.1,4.78-14.36,5.84l-.27.03v-4.86c0-1.47-.27-10.84-.46-17.05l-.04-1.4c.88,2.86,2.41,7.15,2.95,7.15.12,0,.27-.08.35-.16.93-.88,3.58-1.89,3.6-1.9l.25-.09-.16-.21c-2.98-3.81-5.35-8.94-6.17-10.8h3.62v-5.24h-3.99v-5.37s0-1.37.09-2.32c.91-.23,1.47-.67,1.47-1.18,0-.17-.09-.76-1.2-.84-1.93-.21-5.64-.33-5.68-.33h-.22s.02.21.02.21c.1,1.38.16,4.01.16,4.03v5.8h-6.64v5.24h5.87c-.93,3.42-3.44,11.33-7.82,16.52l-.17.2.23.11s3.11,1.4,4.04,2.33c.07.08.17.17.3.17.43,0,2.56-4.25,4.55-11.08-.19,4.96-.42,12.27-.42,15.9v9.74h5.46v-4.38l.17.13s3.49,2.74,4.16,3.88c.08.16.25.27.39.27.06,0,.12-.02.17-.04.02,0,.04-.02.04-.02h.05c6-1.68,10.99-5.27,11.82-5.88.49.37.93.55,1.35.55Z"/><path class="cls-1" d="m285.83,49.58V15.4s.05-2.04.1-2.81c1.22-.31,1.41-.83,1.41-1.13,0-.31-.25-.69-.97-.84-1.13-.22-6.24-.32-6.45-.33h-.23s.03.22.03.22c.16,1.22.16,4.84.16,4.88v34.19h5.94Z"/><path class="cls-1" d="m270.78,11.56c.95-.23,1.51-.62,1.51-1.07,0-.41-.42-.72-1.14-.84-1.61-.21-6.25-.37-6.44-.38h-.21s.02.2.02.2c.27,3.92.38,13.42.38,17.63-.05,9.94-.1,19.33-8.84,27.16l-.3.26.39.07s4.9.92,6.34,1.7c.1.09.22.09.28.09.31,0,.44-.17.47-.23,6.29-7.36,7.55-16.08,7.55-27.75v-.76c0-1.53-.01-3.7-.02-5.98-.02-2.56-.03-5.26-.03-7.4,0-.55.02-1.11.03-1.64,0-.39.02-.75.02-1.07Z"/><path class="cls-1" d="m301.75,56.17V14.16s.05-2.01.1-2.82c1.04-.27,1.41-.77,1.41-1.13s-.26-.76-.97-.84c-1.51-.22-6.29-.32-6.5-.33h-.22s.02.21.02.21c.1,1.17.16,4.86.16,4.89v42.01h6Z"/><path class="cls-1" d="m345.19,50.82c.35-.07.46-.18.53-.56.1-1.9,1.22-6.13,1.24-6.17l.09-.34-.34.11c-5.94,1.97-11.51,2.96-16.56,2.96-7.09,0-12.43-2.01-12.43-4.66,0-.93.25-1.79,3.44-4.49l.29-.24-5.92-1.5-.1-.02-.08.06c-2.27,1.98-3.79,4.76-3.79,6.89,0,4.92,6.85,9.91,19.94,9.91,4.66,0,9.27-.66,13.69-1.95Z"/><path class="cls-1" d="m326.05,24.1c-.96.72-1.96,1.46-2.71,2.05l-.31.24,5.72,1.45.09.02.08-.06c.72-.59,7.24-5.81,14.16-7.03.56-.1.97-.17.97-.67,0-.73-1.9-5.1-2.57-5.1-.18,0-.33.07-.48.13-.12.06-.26.11-.42.14-4.37.76-9.13,1.18-13.4,1.18-4.74,0-8.74-.54-11.59-1.55l-.24-.09-.34,5.6v.14s.13.05.13.05c2.97,1.05,8.43,1.41,12.2,1.41h1.42s-.09.1-.14.14c-.65.51-1.58,1.21-2.57,1.95Z"/><path class="cls-1" d="m376.54,10.62c-4.47,0-8.18-.47-12.03-1.5l-.17-.05-1.97,5.16.19.06c4.58,1.48,9.62,2.17,15.87,2.17.49,0,.96-.01,1.44-.03.47-.01.94-.03,1.42-.03.29,0,.43-.09.51-.35.43-1.45,1.92-4.91,2.2-5.47l.15-.31-.34.03c-2.7.22-5.08.32-7.27.32Z"/><path class="cls-1" d="m367.48,55.41c.06,0,.21,0,.33-.06,16.57-5,20.05-14.69,20.05-21.93,0-1.28-.16-4.57-1.65-7.59-1.92-3.9-5.26-5.88-9.93-5.88-3.56,0-7.34,1.13-11.23,2.39l-.52.16c-2.67.84-5.18,1.64-7.72,1.99-.2.04-.53.11-.53.4,0,.06,0,.23.16.4l4.09,5.27.08.11.13-.04c.92-.27,1.91-.66,2.94-1.14.53-.24,1.13-.53,1.79-.85,2.95-1.43,7-3.4,10.27-3.4,5.33,0,5.91,5.56,5.91,7.96,0,3.24-1.49,14.05-20.61,17.07l-.5.08.65.41c3.22,2.04,5.2,3.53,5.87,4.37.08.17.25.27.44.27Z"/><path class="cls-1" d="m427.25,28.38c4.42,0,8.06.66,10.27,1.86l.06.02.06.06h.09c.26,0,.35-.26.4-.4l1.34-5.29-.12-.07c-1.79-1.05-5.6-1.65-10.46-1.65-2.32,0-4.81.15-7.2.43l-.15.02-.82,5.48.25-.03c2.15-.29,4.26-.43,6.29-.43Z"/><path class="cls-1" d="m438.34,51.78c.05-.83,1.49-5.95,1.51-6l.09-.33-.33.09c-3.29.93-6.25,1.4-8.8,1.4-4.55,0-9.25-1.36-9.25-3.64,0-.7.36-1.48,1.09-2.36l.22-.26-5.57-.92-.12-.02-.07.11c-1,1.5-1.49,2.88-1.49,4.21,0,2.24,1.5,4.44,4.13,6.04,2.94,1.79,7.03,2.74,11.82,2.74,2.05,0,4.18-.18,6.37-.55.26-.09.41-.27.41-.5Z"/><path class="cls-1" d="m403.69,53.28c1.4-4.58,3.48-10.62,5.5-16.46,2.08-6.01,4.04-11.68,4.99-15.05,2.52-.47,5.31-1.05,7.78-1.56l.29-.06.12-5.99-.26.08c-2.03.66-4.26,1.29-6.65,1.87.32-1.5.59-2.9.78-3.99.97-.14,1.64-.6,1.64-1.14,0-.69-1.09-.89-1.46-.95-1.66-.27-6.12-.64-6.17-.64l-.2-.02v.2c-.1,2.71-.36,4.99-.89,7.82l-.19.03c-1.37.22-3.08.49-4.71.49-1.87,0-3.69-.31-6.07-1.01-.15-.07-.29-.07-.36-.07-.24,0-.36.14-.36.41v.25s.76,5.02.76,5.02l.02.12.11.04c1.34.45,2.85.66,4.76.66,1.27,0,2.79-.04,4.45-.33l.34-.06c-1.97,6.66-7.22,20.47-11.02,29.63l-.1.25,6.84.63.05-.15Z"/><path class="cls-1" d="m457.79,48.07c-1.11,0-2.26,0-3.39-.06l-.5-.03.35.36s3.7,3.77,4.33,5.44c.15.39.44.39.72.39,11.5-.09,19.72-2.56,24.44-7.32,3.68-3.73,4.08-7.8,4.08-9.38,0-6.18-5.76-10.66-13.68-10.66-3.63,0-7.4.99-10.27,2.68,2.92-2.77,6.06-5.9,9.1-8.92,1.86-1.85,3.71-3.69,5.48-5.42.52-.11,1.18-.33,1.18-.82,0-.78-4.58-3.97-5.32-3.97-.35,0-.55.19-.72.36-.13.12-.24.23-.42.29-5.89,1.84-11.56,2.85-15.97,2.85-1.29,0-2.36-.07-3.29-.22-.03,0-.07-.01-.12-.02-.06-.02-.13-.03-.21-.03-.34,0-.46.21-.46.41,0,.14.06.33.18.57l2.7,5.45.05.11h.12c3.46-.06,8.85-1.45,12.53-2.82-6.01,7.13-15.84,16.9-21.71,22.05-.16.11-.35.27-.35.48,0,.31.37.45.48.5l5.8,2.76.1-.11c3.72-4.52,7.23-8.8,16.72-10.67,1.22-.22,2.3-.32,3.31-.32,1.96,0,8.33.4,8.33,5.58,0,9.73-18.06,10.49-23.6,10.49Z"/><path class="cls-1" d="m504.88,9.12l-.17-.05-1.97,5.16.19.06c4.58,1.48,9.62,2.17,15.87,2.17.49,0,.96-.01,1.44-.03.47-.01.94-.03,1.42-.03.28,0,.42-.09.51-.35.43-1.45,1.92-4.91,2.2-5.47l.15-.31-.34.03c-2.7.22-5.08.32-7.27.32-4.47,0-8.18-.47-12.03-1.5Z"/><path class="cls-1" d="m500.98,30.68l.13-.04c.91-.27,1.9-.65,2.94-1.14.53-.24,1.13-.53,1.78-.85,2.95-1.43,7-3.4,10.28-3.4,5.33,0,5.9,5.56,5.9,7.96,0,3.24-1.49,14.05-20.61,17.07l-.5.08.67.44c1.19.76,4.83,3.07,5.83,4.35.08.17.25.27.44.27.07,0,.21,0,.33-.06,16.57-5,20.05-14.69,20.05-21.93,0-1.28-.16-4.57-1.65-7.59-1.92-3.9-5.26-5.88-9.93-5.88-3.56,0-7.35,1.13-11.23,2.39l-.5.16c-2.67.84-5.2,1.64-7.73,2-.2.04-.53.11-.53.4,0,.06,0,.23.16.4l4.09,5.27.08.11Z"/></svg>
